<svg width="1440" height="943" viewBox="0 0 1440 943" fill="none" xmlns="http://www.w3.org/2000/svg">
<g clip-path="url(#clip0)">
<g opacity="0.5">
<path d="M1306 399C1289.63 399.062 1251.69 393.201 1230.91 369.259C1210.14 345.318 1205.91 332.797 1206.39 329.529" stroke="#93B0FF" stroke-opacity="0.46" stroke-width="6" stroke-linecap="round" stroke-dasharray="20 20"/>
<path d="M1211.12 220.799C1207.46 208.487 1203.57 179.575 1217.34 162.42C1231.11 145.265 1239.78 141.282 1242.39 141.436" stroke="#93B0FF" stroke-opacity="0.46" stroke-width="6" stroke-linecap="round" stroke-dasharray="20 20"/>
<g clip-path="url(#clip1)" filter="url(#filter0_d)">
<path d="M1372.92 416.104L1392.48 451.973L1376.51 500.28L1270.26 528.707L1245.04 494.308L1372.92 416.104Z" fill="#5C88FF"/>
<path d="M1245.04 494.308L1357 464.507L1372.92 416.104L1261.59 450.028L1245.04 494.308Z" fill="#93B0FF"/>
<path d="M1260.89 486.281L1341.3 464.63C1342.85 460.186 1348.62 455.299 1354.37 453.777L1362.16 430.288C1356.37 431.958 1352.98 429.837 1354.48 425.541L1274.45 449.714C1272.94 453.766 1267.79 458.193 1263.01 459.68L1254.96 481.325C1259.74 479.837 1262.5 482.176 1260.89 486.281Z" fill="#FCFCFD"/>
<path d="M1287.48 462.217C1284.42 470.713 1290.29 475.33 1300.87 472.416C1311.68 469.493 1322.94 459.875 1326 451.135C1328.95 442.448 1322.6 438.092 1311.85 441.353C1301.28 444.511 1290.45 453.773 1287.48 462.217Z" fill="#93B0FF"/>
<path d="M1338.54 447.517C1337.84 449.638 1339.39 450.656 1342.09 449.925C1344.8 449.194 1347.49 446.855 1348.2 444.733C1348.9 442.612 1347.26 441.647 1344.65 442.325C1341.9 443.203 1339.2 445.543 1338.54 447.517Z" fill="#93B0FF"/>
<path d="M1267.6 467.853C1266.93 469.827 1268.14 470.906 1270.51 470.236C1272.87 469.566 1275.33 467.479 1276 465.505C1276.66 463.531 1275.35 462.505 1273.08 463.122C1270.72 463.792 1268.31 465.975 1267.6 467.853Z" fill="#93B0FF"/>
<path d="M1296.89 463.538C1298.08 460.033 1302.67 456.163 1306.97 454.937C1308.8 454.432 1310.74 452.754 1311.27 451.223C1311.8 449.693 1310.66 448.954 1308.82 449.458C1307.86 449.737 1306.9 450.258 1306.1 451.067C1305.01 452.032 1303.52 452.476 1302.92 452.059C1302.32 451.641 1302.57 450.511 1303.75 449.493C1305.03 448.424 1306.36 447.45 1307.85 446.763L1308.29 445.528C1308.65 444.589 1309.87 443.423 1311.18 443.084C1312.43 442.649 1313.13 443.258 1312.78 444.197L1312.33 445.432C1315.35 445.275 1316.87 446.927 1315.86 449.84C1314.66 453.345 1310.07 457.215 1305.68 458.494C1303.85 458.998 1301.91 460.677 1301.38 462.207C1300.85 463.738 1301.9 464.529 1303.73 464.024C1304.7 463.746 1305.66 463.224 1306.51 462.511C1307.6 461.546 1309.09 461.102 1309.69 461.519C1310.29 461.937 1309.94 463.119 1308.86 464.085C1307.58 465.154 1306.15 466.181 1304.76 466.815L1304.32 468.05C1304.01 469.086 1302.64 470.207 1301.43 470.494C1300.13 470.834 1299.47 470.321 1299.78 469.286L1300.22 468.051C1297.45 468.199 1295.87 466.451 1296.89 463.538Z" fill="#FCFCFD"/>
</g>
<g clip-path="url(#clip2)">
<path d="M1363.6 251.128C1374.75 240.596 1393.54 242.388 1405.58 255.129C1417.61 267.871 1418.33 286.737 1407.18 297.269C1396.04 307.8 1377.24 306.009 1365.2 293.267C1353.17 280.526 1352.45 261.659 1363.6 251.128Z" fill="url(#paint0_linear)"/>
<path d="M1405.58 255.129C1416.71 266.913 1418.15 283.932 1409.49 294.756C1410.41 294.103 1411.29 293.39 1412.13 292.599C1423.28 282.067 1422.56 263.201 1410.52 250.459C1398.49 237.718 1379.69 235.926 1368.54 246.458C1367.71 247.249 1366.94 248.092 1366.24 248.971C1377.54 240.936 1394.45 243.345 1405.58 255.129Z" fill="#93B0FF"/>
<path d="M1367.79 255.706L1367.86 255.639C1368.44 255.094 1369.05 254.58 1369.68 254.111C1370.19 253.738 1370.9 253.843 1371.27 254.346C1371.64 254.85 1371.53 255.555 1371.03 255.932C1370.47 256.348 1369.93 256.804 1369.42 257.287C1368.96 257.717 1368.21 257.73 1367.78 257.275C1367.35 256.82 1367.33 256.137 1367.79 255.706ZM1363.84 261.119C1364.17 260.805 1364.68 260.712 1365.11 260.925C1365.68 261.199 1365.91 261.878 1365.64 262.44C1365.33 263.067 1365.05 263.725 1364.82 264.391C1364.61 264.984 1363.96 265.291 1363.37 265.083C1362.78 264.875 1362.47 264.227 1362.68 263.636C1362.95 262.888 1363.25 262.153 1363.6 261.447C1363.66 261.321 1363.74 261.211 1363.84 261.119ZM1375.58 251.214C1375.71 251.096 1375.86 251.004 1376.04 250.952C1376.79 250.732 1377.57 250.547 1378.35 250.408C1378.96 250.297 1379.55 250.707 1379.66 251.323C1379.77 251.94 1379.36 252.528 1378.75 252.639C1378.05 252.764 1377.35 252.928 1376.68 253.126C1376.08 253.303 1375.45 252.96 1375.28 252.36C1375.15 251.936 1375.28 251.498 1375.58 251.214ZM1361.78 269.798C1361.99 269.6 1362.28 269.482 1362.59 269.489C1363.22 269.504 1363.71 270.024 1363.7 270.649C1363.68 271.349 1363.7 272.067 1363.75 272.783C1363.8 273.407 1363.33 273.951 1362.7 273.997C1362.08 274.044 1361.54 273.576 1361.49 272.951C1361.43 272.161 1361.41 271.368 1361.43 270.595C1361.44 270.28 1361.57 269.997 1361.78 269.798ZM1384.48 250.552C1384.72 250.327 1385.05 250.207 1385.4 250.25C1386.17 250.349 1386.95 250.486 1387.72 250.659C1388.33 250.795 1388.72 251.402 1388.58 252.013C1388.44 252.623 1387.84 253.009 1387.22 252.871C1386.53 252.714 1385.82 252.589 1385.12 252.5C1384.5 252.421 1384.06 251.853 1384.14 251.232C1384.17 250.962 1384.3 250.726 1384.48 250.552ZM1363.26 278.612C1363.37 278.508 1363.5 278.425 1363.65 278.37C1364.24 278.158 1364.89 278.463 1365.1 279.052C1365.34 279.72 1365.62 280.39 1365.92 281.04C1366.18 281.607 1365.93 282.281 1365.36 282.544C1364.79 282.805 1364.12 282.558 1363.86 281.99C1363.53 281.28 1363.23 280.55 1362.97 279.821C1362.81 279.383 1362.94 278.911 1363.26 278.612ZM1393 253.274C1393.34 252.95 1393.86 252.864 1394.3 253.095C1394.99 253.457 1395.67 253.854 1396.33 254.275C1396.86 254.613 1397.01 255.313 1396.67 255.84C1396.34 256.367 1395.63 256.521 1395.11 256.183C1394.5 255.797 1393.88 255.432 1393.25 255.101C1392.69 254.808 1392.48 254.123 1392.77 253.57C1392.83 253.457 1392.91 253.357 1393 253.274ZM1367.66 286.397C1367.69 286.377 1367.71 286.358 1367.73 286.339C1368.22 285.946 1368.93 286.022 1369.33 286.509C1369.76 287.045 1370.22 287.573 1370.7 288.078C1371.13 288.533 1371.13 289.277 1370.68 289.707C1370.22 290.137 1369.53 290.143 1369.1 289.688L1369.05 289.635C1368.53 289.087 1368.03 288.515 1367.56 287.933C1367.19 287.47 1367.24 286.8 1367.66 286.397ZM1400.12 258.706C1400.58 258.277 1401.29 258.288 1401.72 258.743L1401.73 258.761C1402.26 259.323 1402.78 259.909 1403.25 260.502C1403.65 260.989 1403.57 261.698 1403.08 262.096C1402.59 262.488 1401.88 262.411 1401.49 261.924C1401.05 261.376 1400.58 260.836 1400.09 260.318C1399.66 259.863 1399.67 259.136 1400.12 258.706ZM1374.33 292.368C1374.7 292.02 1375.27 291.952 1375.72 292.236C1376.32 292.623 1376.95 292.986 1377.58 293.317C1378.13 293.607 1378.35 294.293 1378.05 294.847C1377.76 295.403 1377.08 295.615 1376.52 295.323C1375.84 294.964 1375.16 294.568 1374.5 294.149C1373.97 293.813 1373.82 293.112 1374.15 292.585C1374.2 292.504 1374.26 292.432 1374.33 292.368ZM1405.14 266.102C1405.22 266.019 1405.33 265.95 1405.44 265.896C1406.01 265.635 1406.68 265.885 1406.95 266.453C1407.27 267.161 1407.57 267.891 1407.83 268.623C1408.04 269.214 1407.74 269.86 1407.15 270.074C1406.56 270.285 1405.91 269.979 1405.7 269.39C1405.46 268.718 1405.18 268.048 1404.88 267.399C1404.68 266.945 1404.79 266.427 1405.14 266.102ZM1382.58 295.818C1382.84 295.568 1383.22 295.45 1383.6 295.535C1384.3 295.69 1385.01 295.813 1385.71 295.901C1386.33 295.979 1386.77 296.547 1386.7 297.167C1386.62 297.788 1386.05 298.229 1385.43 298.151C1384.66 298.054 1383.88 297.919 1383.11 297.748C1382.5 297.612 1382.12 297.007 1382.25 296.395C1382.3 296.166 1382.42 295.969 1382.58 295.818ZM1407.39 274.753C1407.57 274.581 1407.81 274.467 1408.09 274.448C1408.71 274.402 1409.25 274.872 1409.3 275.497C1409.35 276.285 1409.37 277.078 1409.35 277.853C1409.34 278.478 1408.82 278.973 1408.19 278.957C1407.56 278.94 1407.07 278.421 1407.09 277.795C1407.1 277.094 1407.09 276.376 1407.04 275.659C1407.01 275.307 1407.15 274.98 1407.39 274.753ZM1391.51 296.039C1391.66 295.894 1391.86 295.789 1392.08 295.749C1392.78 295.623 1393.47 295.457 1394.14 295.256C1394.74 295.079 1395.37 295.42 1395.55 296.02C1395.73 296.618 1395.39 297.251 1394.79 297.429C1394.04 297.654 1393.26 297.839 1392.49 297.979C1391.87 298.091 1391.28 297.682 1391.17 297.066C1391.1 296.674 1391.24 296.294 1391.51 296.039ZM1406.24 283.605C1406.54 283.322 1406.98 283.213 1407.4 283.361C1407.99 283.571 1408.29 284.219 1408.08 284.809C1407.82 285.555 1407.51 286.291 1407.16 286.996C1406.89 287.557 1406.21 287.79 1405.65 287.515C1405.08 287.239 1404.85 286.56 1405.13 285.997C1405.44 285.369 1405.71 284.713 1405.95 284.047C1406.01 283.874 1406.11 283.723 1406.24 283.605ZM1399.68 292.523C1399.72 292.492 1399.75 292.464 1399.79 292.437C1400.34 292.027 1400.87 291.579 1401.37 291.108C1401.82 290.679 1402.56 290.683 1402.99 291.137C1403.42 291.592 1403.41 292.294 1402.96 292.723L1402.92 292.756C1402.36 293.287 1401.76 293.791 1401.14 294.254C1400.64 294.628 1399.93 294.526 1399.56 294.024C1399.21 293.559 1399.27 292.912 1399.68 292.523Z" fill="#93B0FF"/>
<path d="M1404.8 254.304L1409.74 249.635C1409.2 249.097 1408.65 248.577 1408.09 248.08L1403.14 252.753C1403.71 253.248 1404.26 253.766 1404.8 254.304Z" fill="#2F61E6"/>
<path d="M1408.5 258.602L1413.44 253.935C1413 253.327 1412.53 252.73 1412.04 252.144L1407.1 256.813C1407.59 257.4 1408.06 257.994 1408.5 258.602Z" fill="#2F61E6"/>
<path d="M1400.46 250.612L1405.4 245.942C1404.77 245.486 1404.13 245.053 1403.47 244.645L1398.53 249.314C1399.18 249.723 1399.82 250.156 1400.46 250.612Z" fill="#2F61E6"/>
<path d="M1395.41 247.581L1400.36 242.908C1399.62 242.545 1398.87 242.216 1398.11 241.912L1393.17 246.583C1393.92 246.886 1394.67 247.219 1395.41 247.581Z" fill="#2F61E6"/>
<path d="M1411.53 263.535L1416.47 258.87C1416.12 258.177 1415.75 257.488 1415.35 256.811L1410.4 261.486C1410.8 262.161 1411.18 262.844 1411.53 263.535Z" fill="#2F61E6"/>
<path d="M1413.79 269.205L1418.73 264.535C1418.49 263.742 1418.23 262.951 1417.93 262.167L1412.99 266.84C1413.28 267.623 1413.55 268.412 1413.79 269.205Z" fill="#2F61E6"/>
<path d="M1415.09 277.325L1420.04 272.65C1420.02 271.683 1419.94 270.712 1419.82 269.739L1414.87 274.413C1414.99 275.387 1415.07 276.358 1415.09 277.325Z" fill="#2F61E6"/>
<path d="M1413.95 286.204L1418.9 281.524C1419.28 280.242 1419.57 278.929 1419.76 277.591L1414.81 282.268C1414.62 283.607 1414.33 284.922 1413.95 286.204Z" fill="#2F61E6"/>
<path d="M1388.21 245.029L1393.16 240.357C1392.24 240.147 1391.31 239.979 1390.39 239.854L1385.44 244.53C1386.36 244.654 1387.29 244.82 1388.21 245.029Z" fill="#2F61E6"/>
<path d="M1385.71 239.596C1384.49 239.625 1383.27 239.727 1382.07 239.913L1377.12 244.594C1378.32 244.406 1379.54 244.294 1380.77 244.264L1385.71 239.596Z" fill="#2F61E6"/>
</g>
<g clip-path="url(#clip3)" filter="url(#filter1_d)">
<path d="M1087.26 390.874C1103.64 375.4 1131.26 378.032 1148.94 396.753C1166.63 415.473 1167.68 443.192 1151.3 458.665C1134.92 474.139 1107.31 471.507 1089.62 452.786C1071.94 434.066 1070.88 406.347 1087.26 390.874Z" fill="url(#paint1_linear)"/>
<path d="M1148.94 396.753C1165.3 414.066 1167.42 439.071 1154.69 454.973C1156.04 454.014 1157.34 452.966 1158.57 451.804C1174.95 436.331 1173.89 408.612 1156.21 389.891C1138.52 371.171 1110.91 368.539 1094.53 384.012C1093.3 385.174 1092.18 386.413 1091.14 387.705C1107.74 375.899 1132.59 379.439 1148.94 396.753Z" fill="#CEDBFF"/>
<path d="M1093.42 397.6L1093.53 397.502C1094.37 396.701 1095.28 395.946 1096.21 395.256C1096.95 394.708 1097.99 394.863 1098.54 395.602C1099.08 396.342 1098.92 397.378 1098.19 397.931C1097.36 398.543 1096.57 399.213 1095.81 399.923C1095.14 400.555 1094.04 400.573 1093.41 399.905C1092.78 399.237 1092.75 398.234 1093.42 397.6ZM1087.62 405.554C1088.1 405.092 1088.85 404.955 1089.49 405.268C1090.32 405.671 1090.66 406.667 1090.26 407.494C1089.81 408.415 1089.4 409.381 1089.06 410.361C1088.75 411.231 1087.8 411.683 1086.93 411.377C1086.06 411.071 1085.61 410.119 1085.92 409.251C1086.31 408.151 1086.76 407.072 1087.26 406.035C1087.35 405.85 1087.47 405.689 1087.62 405.554ZM1104.87 391.001C1105.06 390.827 1105.29 390.692 1105.55 390.616C1106.65 390.291 1107.79 390.02 1108.93 389.816C1109.84 389.653 1110.7 390.255 1110.87 391.161C1111.03 392.066 1110.43 392.93 1109.52 393.094C1108.5 393.277 1107.47 393.518 1106.49 393.809C1105.61 394.069 1104.68 393.565 1104.42 392.684C1104.24 392.061 1104.43 391.417 1104.87 391.001ZM1084.6 418.304C1084.91 418.014 1085.33 417.84 1085.78 417.85C1086.7 417.873 1087.43 418.636 1087.41 419.555C1087.38 420.583 1087.41 421.638 1087.49 422.69C1087.55 423.607 1086.87 424.406 1085.95 424.475C1085.03 424.543 1084.23 423.855 1084.17 422.937C1084.08 421.777 1084.05 420.612 1084.08 419.475C1084.09 419.012 1084.29 418.597 1084.6 418.304ZM1117.95 390.027C1118.3 389.697 1118.79 389.52 1119.3 389.584C1120.43 389.729 1121.58 389.931 1122.7 390.184C1123.6 390.385 1124.17 391.277 1123.97 392.174C1123.77 393.071 1122.88 393.637 1121.98 393.435C1120.95 393.204 1119.91 393.02 1118.88 392.889C1117.97 392.773 1117.32 391.939 1117.44 391.026C1117.49 390.63 1117.68 390.282 1117.95 390.027ZM1086.76 431.255C1086.92 431.101 1087.12 430.98 1087.34 430.899C1088.21 430.587 1089.16 431.035 1089.47 431.901C1089.82 432.883 1090.23 433.866 1090.67 434.821C1091.05 435.654 1090.69 436.645 1089.86 437.031C1089.02 437.415 1088.03 437.053 1087.65 436.217C1087.17 435.175 1086.72 434.102 1086.34 433.031C1086.11 432.387 1086.3 431.694 1086.76 431.255ZM1130.46 394.026C1130.96 393.55 1131.73 393.424 1132.38 393.764C1133.39 394.296 1134.39 394.879 1135.35 395.498C1136.13 395.993 1136.35 397.022 1135.86 397.796C1135.36 398.571 1134.33 398.798 1133.56 398.301C1132.67 397.734 1131.75 397.198 1130.83 396.711C1130.01 396.281 1129.7 395.274 1130.13 394.462C1130.21 394.296 1130.33 394.148 1130.46 394.026ZM1093.24 442.693C1093.27 442.663 1093.3 442.634 1093.34 442.607C1094.05 442.029 1095.1 442.141 1095.68 442.856C1096.32 443.644 1096.99 444.421 1097.7 445.163C1098.33 445.831 1098.33 446.924 1097.66 447.555C1097 448.187 1095.98 448.197 1095.35 447.528L1095.27 447.45C1094.51 446.645 1093.78 445.804 1093.09 444.949C1092.54 444.269 1092.61 443.284 1093.24 442.693ZM1140.93 402.008C1141.6 401.377 1142.64 401.394 1143.27 402.062L1143.29 402.089C1144.07 402.914 1144.83 403.776 1145.53 404.646C1146.1 405.362 1145.99 406.404 1145.27 406.988C1144.56 407.565 1143.51 407.451 1142.93 406.735C1142.28 405.931 1141.59 405.137 1140.87 404.376C1140.24 403.707 1140.26 402.64 1140.93 402.008ZM1103.03 451.465C1103.57 450.954 1104.41 450.854 1105.07 451.272C1105.96 451.839 1106.88 452.373 1107.8 452.859C1108.62 453.286 1108.93 454.294 1108.5 455.108C1108.08 455.925 1107.07 456.237 1106.25 455.807C1105.25 455.279 1104.25 454.698 1103.28 454.082C1102.5 453.588 1102.28 452.559 1102.77 451.784C1102.84 451.665 1102.93 451.56 1103.03 451.465ZM1148.29 412.874C1148.42 412.752 1148.57 412.65 1148.74 412.571C1149.58 412.188 1150.57 412.555 1150.95 413.391C1151.43 414.43 1151.86 415.503 1152.25 416.579C1152.56 417.446 1152.11 418.396 1151.25 418.709C1150.38 419.021 1149.43 418.57 1149.12 417.705C1148.76 416.717 1148.36 415.733 1147.92 414.78C1147.62 414.112 1147.79 413.351 1148.29 412.874ZM1115.15 456.534C1115.54 456.167 1116.1 455.994 1116.66 456.118C1117.68 456.346 1118.73 456.527 1119.75 456.657C1120.67 456.771 1121.31 457.605 1121.2 458.517C1121.09 459.429 1120.25 460.076 1119.34 459.962C1118.21 459.819 1117.06 459.62 1115.93 459.369C1115.04 459.17 1114.47 458.28 1114.67 457.382C1114.75 457.045 1114.92 456.756 1115.15 456.534ZM1151.6 425.585C1151.87 425.331 1152.23 425.165 1152.63 425.136C1153.54 425.069 1154.34 425.76 1154.41 426.678C1154.49 427.836 1154.52 429.001 1154.49 430.139C1154.46 431.057 1153.7 431.785 1152.78 431.761C1151.86 431.737 1151.14 430.974 1151.16 430.055C1151.18 429.025 1151.16 427.968 1151.08 426.916C1151.04 426.398 1151.25 425.918 1151.6 425.585ZM1128.27 456.859C1128.49 456.645 1128.78 456.492 1129.11 456.433C1130.14 456.248 1131.16 456.003 1132.14 455.709C1133.02 455.448 1133.95 455.949 1134.21 456.83C1134.47 457.709 1133.98 458.639 1133.09 458.901C1131.99 459.231 1130.85 459.503 1129.71 459.709C1128.8 459.873 1127.93 459.273 1127.77 458.368C1127.67 457.791 1127.87 457.234 1128.27 456.859ZM1149.91 438.59C1150.35 438.174 1151 438.014 1151.62 438.231C1152.48 438.54 1152.93 439.493 1152.62 440.359C1152.23 441.455 1151.78 442.537 1151.27 443.572C1150.87 444.397 1149.87 444.74 1149.04 444.334C1148.22 443.929 1147.88 442.932 1148.28 442.105C1148.73 441.183 1149.14 440.219 1149.49 439.239C1149.58 438.985 1149.73 438.764 1149.91 438.59ZM1140.28 451.693C1140.33 451.648 1140.38 451.606 1140.43 451.567C1141.24 450.964 1142.02 450.306 1142.75 449.614C1143.42 448.983 1144.5 448.989 1145.13 449.657C1145.77 450.326 1145.76 451.356 1145.09 451.987L1145.04 452.035C1144.22 452.815 1143.33 453.556 1142.42 454.236C1141.69 454.786 1140.64 454.636 1140.09 453.898C1139.58 453.215 1139.68 452.264 1140.28 451.693Z" fill="#CEDBFF"/>
<path d="M1147.8 395.54L1155.06 388.681C1154.27 387.889 1153.46 387.125 1152.63 386.396L1145.36 393.261C1146.19 393.989 1147.01 394.749 1147.8 395.54Z" fill="#2F61E6"/>
<path d="M1153.24 401.855L1160.5 394.998C1159.85 394.105 1159.16 393.228 1158.44 392.366L1151.17 399.226C1151.89 400.089 1152.59 400.962 1153.24 401.855Z" fill="#2F61E6"/>
<path d="M1141.42 390.116L1148.68 383.254C1147.75 382.584 1146.81 381.948 1145.85 381.348L1138.59 388.208C1139.54 388.809 1140.49 389.446 1141.42 390.116Z" fill="#2F61E6"/>
<path d="M1134.01 385.663L1141.27 378.797C1140.19 378.263 1139.08 377.781 1137.97 377.333L1130.71 384.196C1131.82 384.642 1132.92 385.13 1134.01 385.663Z" fill="#2F61E6"/>
<path d="M1157.69 409.102L1164.95 402.249C1164.43 401.231 1163.89 400.218 1163.3 399.223L1156.03 406.092C1156.62 407.084 1157.18 408.088 1157.69 409.102Z" fill="#2F61E6"/>
<path d="M1161 417.433L1168.26 410.572C1167.92 409.406 1167.53 408.244 1167.1 407.093L1159.83 413.959C1160.26 415.109 1160.66 416.268 1161 417.433Z" fill="#2F61E6"/>
<path d="M1162.92 429.363L1170.19 422.494C1170.16 421.073 1170.05 419.647 1169.87 418.218L1162.6 425.085C1162.78 426.515 1162.88 427.943 1162.92 429.363Z" fill="#2F61E6"/>
<path d="M1161.24 442.409L1168.52 435.533C1169.08 433.65 1169.5 431.721 1169.78 429.754L1162.51 436.626C1162.23 438.593 1161.8 440.525 1161.24 442.409Z" fill="#2F61E6"/>
<path d="M1123.43 381.913L1130.69 375.048C1129.34 374.74 1127.98 374.492 1126.62 374.31L1119.35 381.179C1120.71 381.362 1122.07 381.605 1123.43 381.913Z" fill="#2F61E6"/>
<path d="M1119.75 373.931C1117.95 373.974 1116.17 374.123 1114.41 374.396L1107.13 381.273C1108.89 380.997 1110.68 380.832 1112.49 380.79L1119.75 373.931Z" fill="#2F61E6"/>
</g>
<g filter="url(#filter2_d)">
<path d="M1380.5 843C1435.45 843 1480 798.452 1480 743.5C1480 688.548 1435.45 644 1380.5 644C1325.55 644 1281 688.548 1281 743.5C1281 798.452 1325.55 843 1380.5 843Z" fill="#5C88FF"/>
<path d="M1380.51 825.333C1425.7 825.333 1462.34 788.695 1462.34 743.5C1462.34 698.304 1425.7 661.666 1380.51 661.666C1335.31 661.666 1298.67 698.304 1298.67 743.5C1298.67 788.695 1335.31 825.333 1380.51 825.333Z" fill="#90AEFF"/>
<path d="M1399.9 773.133H1390.79V762.465C1401.63 758.715 1410.25 749.201 1413.84 737.08C1418.1 737.078 1421.55 733.172 1421.55 728.355C1421.55 724.148 1418.91 720.637 1415.41 719.814C1413.37 700.055 1398.53 684.717 1380.51 684.717C1362.49 684.717 1347.64 700.055 1345.6 719.814C1342.1 720.637 1339.47 724.148 1339.47 728.355C1339.47 733.172 1342.92 737.078 1347.18 737.08C1350.77 749.202 1359.38 758.715 1370.22 762.465V773.133H1361.11C1342.95 773.133 1327.99 787.563 1327.13 805.528C1341.46 817.871 1360.11 825.335 1380.51 825.335C1400.9 825.335 1419.56 817.871 1433.89 805.528C1433.03 787.563 1418.07 773.133 1399.9 773.133Z" fill="white"/>
<path d="M1401.13 773.164C1395.25 779.667 1388.15 783.467 1380.51 783.467C1372.86 783.467 1365.76 779.667 1359.88 773.164C1342.28 773.8 1327.97 787.972 1327.13 805.528C1341.46 817.871 1360.11 825.335 1380.51 825.335C1400.9 825.335 1419.56 817.871 1433.89 805.528C1433.04 787.972 1418.74 773.8 1401.13 773.164Z" fill="white"/>
</g>
<g filter="url(#filter3_d)">
<path d="M1297.5 152C1319.32 152 1337 134.315 1337 112.5C1337 90.6847 1319.32 73 1297.5 73C1275.68 73 1258 90.6847 1258 112.5C1258 134.315 1275.68 152 1297.5 152Z" fill="#5C88FF"/>
<path d="M1297.5 144.987C1315.45 144.987 1329.99 130.442 1329.99 112.5C1329.99 94.558 1315.45 80.0132 1297.5 80.0132C1279.56 80.0132 1265.02 94.558 1265.02 112.5C1265.02 130.442 1279.56 144.987 1297.5 144.987Z" fill="#91AEFF"/>
<path d="M1305.2 124.264H1301.59V120.029C1305.89 118.54 1309.31 114.764 1310.73 109.952C1312.43 109.951 1313.8 108.4 1313.8 106.488C1313.8 104.818 1312.75 103.424 1311.36 103.097C1310.55 95.2532 1304.66 89.1641 1297.5 89.1641C1290.35 89.1641 1284.46 95.2532 1283.65 103.097C1282.26 103.424 1281.21 104.818 1281.21 106.488C1281.21 108.4 1282.58 109.951 1284.27 109.952C1285.7 114.764 1289.12 118.54 1293.42 120.029V124.264H1289.8C1282.59 124.264 1276.65 129.993 1276.31 137.124C1282 142.024 1289.41 144.987 1297.5 144.987C1305.6 144.987 1313.01 142.024 1318.69 137.124C1318.35 129.993 1312.41 124.264 1305.2 124.264Z" fill="white"/>
<path d="M1305.69 124.276C1303.36 126.858 1300.54 128.366 1297.5 128.366C1294.47 128.366 1291.65 126.858 1289.31 124.276C1282.33 124.529 1276.65 130.155 1276.31 137.124C1282 142.024 1289.41 144.987 1297.5 144.987C1305.6 144.987 1313 142.024 1318.69 137.124C1318.36 130.155 1312.68 124.529 1305.69 124.276Z" fill="white"/>
</g>
<path d="M1402.75 466.338C1419.13 483.324 1449.91 527.203 1441.96 566.831C1434.01 606.458 1423.24 620.283 1418.85 622.241" stroke="#93B0FF" stroke-opacity="0.46" stroke-width="6" stroke-linecap="round" stroke-dasharray="20 20"/>
<g filter="url(#filter4_d)">
<rect x="1154" y="251" width="73" height="67" rx="15" fill="#5C88FF"/>
</g>
<path d="M1173.03 266.918L1200.74 285.85L1171.24 300.431L1173.03 266.918Z" fill="white"/>
<rect x="1188" y="270.5" width="24" height="29" fill="#EAEEF9" fill-opacity="0.67"/>
</g>
<g opacity="0.5">
<path d="M160.134 310.552C143.761 310.614 105.821 304.753 85.0479 280.812C64.2752 256.871 60.0453 244.349 60.527 241.081" stroke="#93B0FF" stroke-opacity="0.46" stroke-width="6" stroke-linecap="round" stroke-dasharray="20 20"/>
<g clip-path="url(#clip4)" filter="url(#filter5_d)">
<path d="M74.1341 221C122.735 221 162.134 181.601 162.134 133C162.134 84.3989 122.735 45 74.1341 45C25.5331 45 -13.8657 84.3989 -13.8657 133C-13.8657 181.601 25.5331 221 74.1341 221Z" fill="#5C88FF"/>
<path d="M74.1414 205.375C114.113 205.375 146.517 172.972 146.517 133C146.517 93.0279 114.113 60.6243 74.1414 60.6243C34.1695 60.6243 1.76587 93.0279 1.76587 133C1.76587 172.972 34.1695 205.375 74.1414 205.375Z" fill="#90AEFF"/>
<path d="M91.2919 159.208H83.2384V149.773C92.8264 146.456 100.444 138.042 103.618 127.322C107.385 127.32 110.439 123.866 110.439 119.606C110.439 115.885 108.109 112.78 105.009 112.052C103.209 94.5763 90.0791 81.0107 74.1406 81.0107C58.2021 81.0107 45.0727 94.5763 43.2718 112.052C40.1721 112.78 37.8425 115.885 37.8425 119.606C37.8425 123.866 40.8961 127.32 44.6633 127.322C47.8375 138.043 55.4544 146.456 65.0428 149.773V159.208H56.9893C40.9215 159.208 27.6921 171.971 26.9314 187.859C39.6053 198.775 56.1017 205.377 74.1409 205.377C92.1802 205.377 108.677 198.775 121.351 187.859C120.589 171.971 107.36 159.208 91.2919 159.208Z" fill="white"/>
<path d="M92.382 159.236C87.1793 164.987 80.9006 168.348 74.1407 168.348C67.3808 168.348 61.1021 164.987 55.8994 159.236C40.328 159.798 27.6747 172.332 26.9312 187.859C39.605 198.775 56.1015 205.377 74.1407 205.377C92.1799 205.377 108.677 198.775 121.35 187.859C120.606 172.332 107.953 159.798 92.382 159.236Z" fill="white"/>
</g>
<g clip-path="url(#clip5)" filter="url(#filter6_d)">
<path d="M50.6342 815C72.4494 815 90.1341 797.315 90.1341 775.5C90.1341 753.685 72.4494 736 50.6342 736C28.819 736 11.1343 753.685 11.1343 775.5C11.1343 797.315 28.819 815 50.6342 815Z" fill="#5C88FF"/>
<path d="M50.6374 807.987C68.5793 807.987 83.1241 793.442 83.1241 775.5C83.1241 757.558 68.5793 743.013 50.6374 743.013C32.6954 743.013 18.1506 757.558 18.1506 775.5C18.1506 793.442 32.6954 807.987 50.6374 807.987Z" fill="#91AEFF"/>
<path d="M58.3356 787.264H54.7207V783.029C59.0244 781.54 62.4435 777.763 63.8683 772.951C65.5594 772.95 66.9299 771.4 66.9299 769.488C66.9299 767.818 65.8842 766.424 64.4929 766.097C63.6847 758.253 57.7913 752.164 50.637 752.164C43.4828 752.164 37.5895 758.253 36.7811 766.097C35.3898 766.424 34.3441 767.818 34.3441 769.488C34.3441 771.4 35.7148 772.95 37.4057 772.951C38.8305 777.764 42.2495 781.54 46.5534 783.029V787.264H42.9384C35.7262 787.264 29.788 792.993 29.4465 800.124C35.1354 805.024 42.54 807.987 50.6372 807.987C58.7343 807.987 66.1391 805.024 71.8278 800.124C71.4861 792.993 65.5479 787.264 58.3356 787.264Z" fill="white"/>
<path d="M58.8251 787.276C56.4897 789.858 53.6715 791.366 50.6372 791.366C47.6029 791.366 44.7846 789.858 42.4493 787.276C35.4599 787.529 29.7803 793.155 29.4465 800.124C35.1354 805.024 42.54 807.987 50.6372 807.987C58.7343 807.987 66.1391 805.024 71.8278 800.124C71.4939 793.155 65.8143 787.529 58.8251 787.276Z" fill="white"/>
</g>
<path d="M256.539 441C258.27 459.244 255.73 500.787 231.723 521.004C207.717 541.22 194.487 544.404 190.873 543.469" stroke="#93B0FF" stroke-opacity="0.46" stroke-width="6" stroke-linecap="round" stroke-dasharray="20 20"/>
<path d="M246.634 678C228.422 680.038 189.013 703.366 174.134 731C159.256 758.634 101.98 766.654 103.634 770" stroke="#93B0FF" stroke-opacity="0.46" stroke-width="6" stroke-linecap="round" stroke-dasharray="20 20"/>
<path d="M-16.8658 410.32C2.69022 397.107 51.2181 374.349 88.8818 389.013C126.545 403.678 138.307 416.668 139.479 421.331" stroke="#2F61E6" stroke-opacity="0.4" stroke-width="6" stroke-linecap="round" stroke-dasharray="20 20"/>
<path d="M391.907 269C395.443 292.334 395.16 345.933 365.744 373.652C336.329 401.37 319.547 406.414 314.833 405.472" stroke="#2F61E6" stroke-opacity="0.4" stroke-width="6" stroke-linecap="round" stroke-dasharray="20 20"/>
<g clip-path="url(#clip6)" filter="url(#filter7_d)">
<path d="M3.93042 504.287L-25.6617 558.529L-1.51117 631.579L159.165 674.567L197.304 622.548L3.93042 504.287Z" fill="#2F61E6"/>
<path d="M197.304 622.548L28.0019 577.483L3.93053 504.287L172.272 555.587L197.304 622.548Z" fill="#93B0FF"/>
<path d="M173.333 610.409L51.7374 577.669C49.3974 570.949 40.6664 563.558 31.9744 561.256L20.1949 525.737C28.9527 528.262 34.0812 525.054 31.8069 518.558L152.823 555.112C155.111 561.24 162.908 567.934 170.127 570.184L182.302 602.915C175.082 600.665 170.9 604.202 173.333 610.409Z" fill="#FCFCFD"/>
<path d="M133.123 574.019C137.751 586.867 128.874 593.85 112.884 589.443C96.526 585.023 79.4979 570.478 74.8831 557.261C70.413 544.124 80.0134 537.537 96.2793 542.47C112.257 547.244 128.64 561.25 133.123 574.019Z" fill="#93B0FF"/>
<path d="M55.9082 551.79C56.9731 554.998 54.6325 556.537 50.5428 555.432C46.4532 554.327 42.3771 550.79 41.3122 547.581C40.2474 544.372 42.733 542.913 46.6777 543.938C50.8332 545.267 54.9091 548.805 55.9082 551.79Z" fill="#93B0FF"/>
<path d="M163.196 582.543C164.196 585.528 162.368 587.159 158.791 586.146C155.214 585.133 151.493 581.976 150.494 578.991C149.495 576.006 151.467 574.455 154.899 575.389C158.476 576.402 162.118 579.703 163.196 582.543Z" fill="#93B0FF"/>
<path d="M118.895 576.017C117.094 570.717 110.151 564.865 103.655 563.01C100.881 562.247 97.9481 559.709 97.1461 557.395C96.3441 555.08 98.0803 553.963 100.855 554.726C102.314 555.147 103.761 555.936 104.97 557.159C106.614 558.618 108.876 559.289 109.783 558.658C110.69 558.027 110.309 556.318 108.521 554.779C106.588 553.162 104.576 551.689 102.328 550.65L101.657 548.782C101.118 547.362 99.2641 545.599 97.2921 545.086C95.3985 544.429 94.3333 545.349 94.8722 546.769L95.5427 548.637C90.9796 548.4 88.6784 550.898 90.2162 555.303C92.0173 560.603 98.9602 566.455 105.601 568.389C108.375 569.152 111.308 571.69 112.11 574.005C112.911 576.319 111.32 577.516 108.546 576.753C107.086 576.332 105.64 575.543 104.351 574.465C102.707 573.005 100.446 572.334 99.5383 572.965C98.6311 573.596 99.1566 575.384 100.8 576.844C102.733 578.462 104.89 580.013 106.994 580.973L107.664 582.841C108.124 584.406 110.202 586.103 112.03 586.537C114.002 587.05 114.988 586.274 114.528 584.709L113.858 582.842C118.053 583.066 120.433 580.422 118.895 576.017Z" fill="#FCFCFD"/>
</g>
<g clip-path="url(#clip7)">
<path d="M170.876 401.28C157.458 376.948 169.123 344.791 196.931 329.456C224.74 314.12 258.16 321.414 271.579 345.746C284.997 370.078 273.332 402.235 245.523 417.57C217.715 432.906 184.295 425.612 170.876 401.28Z" fill="url(#paint2_linear)"/>
<path d="M196.932 329.456C222.65 315.273 253.159 320.458 268.215 340.566C267.486 338.66 266.636 336.784 265.629 334.957C252.21 310.624 218.79 303.331 190.981 318.666C163.173 334.001 151.508 366.158 164.926 390.49C165.934 392.317 167.067 394.037 168.29 395.671C159.318 372.207 171.213 343.639 196.932 329.456Z" fill="#CEDBFF"/>
<path d="M180.808 396.002L180.723 395.848C180.028 394.589 179.405 393.279 178.868 391.957C178.442 390.905 178.948 389.709 180 389.281C181.053 388.855 182.238 389.376 182.674 390.414C183.15 391.587 183.703 392.748 184.319 393.864C184.868 394.859 184.548 396.184 183.555 396.731C182.563 397.279 181.357 396.998 180.808 396.002ZM188.511 405.391C188.111 404.665 188.177 403.734 188.748 403.065C189.485 402.202 190.781 402.099 191.643 402.836C192.604 403.657 193.633 404.438 194.696 405.154C195.64 405.786 195.887 407.062 195.253 408.005C194.62 408.945 193.343 409.194 192.402 408.56C191.209 407.757 190.06 406.882 188.977 405.96C188.784 405.796 188.628 405.603 188.511 405.391ZM176.463 380.294C176.312 380.021 176.221 379.707 176.211 379.373C176.164 377.957 176.191 376.514 176.301 375.081C176.386 373.95 177.371 373.105 178.503 373.189C179.634 373.278 180.48 374.261 180.397 375.393C180.298 376.673 180.271 377.967 180.314 379.232C180.353 380.365 179.465 381.316 178.333 381.355C177.532 381.383 176.824 380.949 176.463 380.294ZM202.804 412.929C202.552 412.472 202.473 411.917 202.627 411.375C202.938 410.284 204.073 409.651 205.164 409.962C206.383 410.31 207.651 410.603 208.931 410.832C210.047 411.035 210.789 412.104 210.587 413.218C210.386 414.333 209.319 415.077 208.201 414.875C206.789 414.619 205.389 414.296 204.04 413.912C203.491 413.755 203.057 413.389 202.804 412.929ZM179.336 364.386C179.049 363.866 178.989 363.226 179.225 362.632C179.747 361.326 180.341 360.021 180.991 358.754C181.508 357.745 182.747 357.345 183.757 357.862C184.765 358.378 185.166 359.615 184.647 360.626C184.055 361.781 183.514 362.968 183.041 364.155C182.62 365.208 181.426 365.721 180.371 365.302C179.914 365.12 179.557 364.787 179.336 364.386ZM218.933 414.343C218.8 414.102 218.714 413.833 218.686 413.543C218.581 412.413 219.411 411.413 220.541 411.306C221.822 411.188 223.121 411.009 224.397 410.776C225.51 410.575 226.582 411.314 226.785 412.431C226.985 413.547 226.247 414.615 225.13 414.818C223.738 415.07 222.321 415.265 220.923 415.396C220.083 415.472 219.313 415.034 218.933 414.343ZM187.971 350.684C187.558 349.936 187.645 348.976 188.251 348.309C189.197 347.269 190.202 346.255 191.239 345.294C192.07 344.521 193.368 344.57 194.138 345.402C194.912 346.228 194.863 347.533 194.031 348.304C193.08 349.187 192.157 350.118 191.29 351.072C190.526 351.911 189.228 351.973 188.39 351.21C188.218 351.056 188.077 350.876 187.971 350.684ZM234.588 410.14C234.562 410.093 234.538 410.045 234.516 409.997C234.047 408.963 234.504 407.747 235.537 407.276C236.673 406.76 237.81 406.189 238.912 405.581C239.905 405.034 241.212 405.363 241.76 406.356C242.307 407.349 242.005 408.566 241.012 409.113L240.895 409.178C239.7 409.837 238.469 410.455 237.235 411.016C236.253 411.463 235.1 411.07 234.588 410.14ZM200.732 340.647C200.185 339.654 200.527 338.415 201.519 337.868L201.559 337.846C202.785 337.17 204.046 336.538 205.301 335.97C206.334 335.504 207.543 335.961 208.019 336.995C208.486 338.029 208.027 339.246 206.994 339.712C205.834 340.237 204.673 340.819 203.542 341.443C202.549 341.99 201.28 341.64 200.732 340.647ZM248.084 401.154C247.641 400.35 247.78 399.319 248.482 398.665C249.434 397.776 250.355 396.844 251.221 395.888C251.982 395.048 253.282 394.986 254.121 395.747C254.965 396.508 255.026 397.809 254.262 398.648C253.321 399.687 252.318 400.702 251.286 401.666C250.456 402.44 249.157 402.394 248.384 401.566C248.264 401.442 248.166 401.304 248.084 401.154ZM215.978 335.208C215.872 335.016 215.797 334.804 215.756 334.576C215.556 333.46 216.299 332.393 217.415 332.193C218.804 331.946 220.219 331.753 221.623 331.624C222.755 331.52 223.75 332.351 223.857 333.481C223.962 334.61 223.13 335.61 222.001 335.715C220.712 335.832 219.412 336.009 218.14 336.237C217.249 336.393 216.392 335.958 215.978 335.208ZM257.876 388.25C257.558 387.673 257.523 386.955 257.845 386.323C258.433 385.169 258.971 383.98 259.443 382.791C259.861 381.738 261.057 381.222 262.11 381.64C263.164 382.058 263.68 383.253 263.262 384.306C262.742 385.613 262.151 386.919 261.503 388.189C260.989 389.2 259.751 389.601 258.741 389.086C258.361 388.892 258.068 388.599 257.876 388.25ZM232.176 335.178C231.956 334.779 231.867 334.303 231.956 333.818C232.159 332.702 233.229 331.964 234.346 332.169C235.754 332.426 237.153 332.752 238.504 333.138C239.592 333.453 240.225 334.588 239.913 335.677C239.6 336.768 238.466 337.399 237.375 337.088C236.153 336.739 234.885 336.442 233.604 336.208C232.975 336.095 232.464 335.702 232.176 335.178ZM262.313 372.689C262.127 372.353 262.033 371.961 262.065 371.55C262.159 370.272 262.182 368.978 262.136 367.707C262.095 366.576 262.98 365.624 264.113 365.582C265.243 365.543 266.2 366.423 266.24 367.559C266.294 368.979 266.266 370.422 266.16 371.85C266.076 372.982 265.091 373.833 263.961 373.748C263.24 373.695 262.638 373.279 262.313 372.689ZM247.181 341.211C246.82 340.556 246.83 339.728 247.279 339.065C247.915 338.126 249.191 337.882 250.131 338.517C251.319 339.323 252.47 340.199 253.548 341.126C254.409 341.861 254.51 343.159 253.771 344.021C253.033 344.881 251.737 344.981 250.874 344.242C249.913 343.417 248.888 342.634 247.826 341.916C247.55 341.73 247.332 341.484 247.181 341.211ZM259.853 356.751C259.814 356.68 259.779 356.608 259.749 356.533C259.278 355.381 258.734 354.246 258.134 353.158C257.587 352.165 257.927 350.878 258.92 350.33C259.912 349.783 261.142 350.106 261.689 351.099L261.731 351.175C262.407 352.401 263.019 353.682 263.55 354.979C263.98 356.027 263.478 357.227 262.428 357.657C261.453 358.058 260.348 357.65 259.853 356.751Z" fill="#CEDBFF"/>
<path d="M195.131 330.444L189.183 319.658C187.993 320.361 186.831 321.091 185.705 321.855L191.658 332.65C192.783 331.884 193.942 331.149 195.131 330.444Z" fill="#2F61E6"/>
<path d="M204.35 325.897L198.404 315.115C197.136 315.619 195.876 316.173 194.625 316.767L200.574 327.555C201.826 326.963 203.082 326.401 204.35 325.897Z" fill="#2F61E6"/>
<path d="M186.685 336.391L180.734 325.6C179.648 326.504 178.597 327.435 177.585 328.394L183.534 339.182C184.547 338.225 185.599 337.295 186.685 336.391Z" fill="#2F61E6"/>
<path d="M179.081 343.865L173.127 333.068C172.154 334.203 171.238 335.37 170.361 336.557L176.312 347.348C177.187 346.162 178.11 344.999 179.081 343.865Z" fill="#2F61E6"/>
<path d="M214.377 322.818L208.434 312.041C207.059 312.342 205.683 312.674 204.313 313.073L210.27 323.875C211.636 323.478 213.007 323.119 214.377 322.818Z" fill="#2F61E6"/>
<path d="M225.344 321.442L219.394 310.652C217.896 310.704 216.39 310.806 214.88 310.972L220.834 321.769C222.342 321.603 223.846 321.494 225.344 321.442Z" fill="#2F61E6"/>
<path d="M240.18 322.83L234.223 312.028C232.516 311.636 230.78 311.324 229.018 311.095L234.973 321.893C236.736 322.125 238.473 322.438 240.18 322.83Z" fill="#2F61E6"/>
<path d="M255.236 328.868L249.273 318.055C247.199 316.803 245.026 315.703 242.765 314.759L248.724 325.565C250.986 326.51 253.161 327.614 255.236 328.868Z" fill="#2F61E6"/>
<path d="M171.338 355.34L165.385 344.545C164.599 346.066 163.886 347.609 163.248 349.175L169.205 359.977C169.843 358.411 170.553 356.863 171.338 355.34Z" fill="#2F61E6"/>
<path d="M160.674 357.264C160.17 359.425 159.798 361.603 159.581 363.786L165.544 374.601C165.759 372.41 166.116 370.22 166.622 368.05L160.674 357.264Z" fill="#2F61E6"/>
</g>
<g clip-path="url(#clip8)">
<path d="M-23.8983 332.419C-31.3044 318.989 -24.8659 301.241 -9.51758 292.777C5.83073 284.313 24.2767 288.338 31.6827 301.768C39.0887 315.198 32.6503 332.946 17.302 341.41C1.95364 349.874 -16.4923 345.849 -23.8983 332.419Z" fill="url(#paint3_linear)"/>
<path d="M-9.51748 292.777C4.67752 284.949 21.5161 287.81 29.8264 298.909C29.4238 297.857 28.9549 296.821 28.3988 295.813C20.9928 282.383 2.5468 278.358 -12.8015 286.822C-28.1498 295.286 -34.5883 313.034 -27.1823 326.464C-26.6262 327.472 -26.0004 328.421 -25.3259 329.323C-30.2775 316.373 -23.7125 300.605 -9.51748 292.777Z" fill="#CEDBFF"/>
<path d="M-18.4167 329.506L-18.4638 329.421C-18.8469 328.726 -19.1911 328.003 -19.4874 327.274C-19.7224 326.693 -19.4431 326.032 -18.8626 325.796C-18.2816 325.562 -17.6273 325.849 -17.3865 326.422C-17.124 327.069 -16.8187 327.71 -16.4788 328.326C-16.1761 328.875 -16.3525 329.607 -16.9004 329.909C-17.4483 330.211 -18.1135 330.056 -18.4167 329.506ZM-14.165 334.688C-14.3861 334.287 -14.3495 333.774 -14.0342 333.404C-13.6278 332.928 -12.9122 332.871 -12.4367 333.278C-11.9061 333.731 -11.3383 334.162 -10.7516 334.557C-10.2302 334.906 -10.0943 335.611 -10.4441 336.131C-10.7935 336.65 -11.4982 336.787 -12.0176 336.437C-12.6762 335.994 -13.31 335.511 -13.9078 335.002C-14.0145 334.912 -14.1004 334.805 -14.165 334.688ZM-20.8149 320.836C-20.8981 320.685 -20.9482 320.512 -20.9542 320.328C-20.9801 319.546 -20.9651 318.75 -20.9041 317.959C-20.8573 317.335 -20.3135 316.868 -19.6887 316.915C-19.0647 316.964 -18.5974 317.506 -18.6438 318.131C-18.6979 318.838 -18.7133 319.552 -18.6892 320.25C-18.668 320.875 -19.1577 321.4 -19.7828 321.422C-20.2245 321.437 -20.6157 321.198 -20.8149 320.836ZM-6.27661 338.848C-6.41563 338.596 -6.45893 338.29 -6.3741 337.991C-6.20257 337.389 -5.57594 337.039 -4.97396 337.211C-4.30115 337.403 -3.60115 337.565 -2.89445 337.691C-2.27863 337.803 -1.86929 338.393 -1.98043 339.008C-2.09157 339.624 -2.68073 340.034 -3.29754 339.922C-4.07686 339.781 -4.84957 339.603 -5.59421 339.391C-5.89701 339.304 -6.13649 339.102 -6.27661 338.848ZM-19.2292 312.056C-19.3874 311.769 -19.4204 311.416 -19.2906 311.088C-19.0021 310.367 -18.6745 309.647 -18.3157 308.948C-18.0302 308.39 -17.3466 308.17 -16.7893 308.456C-16.2324 308.74 -16.0111 309.423 -16.2976 309.981C-16.6244 310.618 -16.9232 311.273 -17.1844 311.929C-17.4166 312.51 -18.0758 312.793 -18.6579 312.561C-18.91 312.461 -19.1072 312.277 -19.2292 312.056ZM2.62552 339.629C2.55218 339.496 2.50509 339.347 2.48951 339.188C2.43136 338.564 2.88952 338.012 3.51314 337.953C4.22023 337.888 4.93711 337.789 5.64164 337.66C6.25607 337.549 6.84729 337.957 6.95941 338.574C7.07 339.19 6.66258 339.779 6.04617 339.891C5.27764 340.03 4.49567 340.138 3.72394 340.21C3.26044 340.252 2.8357 340.01 2.62552 339.629ZM-14.4633 304.494C-14.691 304.081 -14.6429 303.551 -14.3087 303.183C-13.7865 302.609 -13.2318 302.049 -12.6597 301.519C-12.201 301.092 -11.4846 301.119 -11.0593 301.578C-10.632 302.034 -10.6593 302.754 -11.1184 303.18C-11.6431 303.667 -12.153 304.181 -12.6315 304.708C-13.0531 305.171 -13.7696 305.205 -14.232 304.784C-14.3267 304.699 -14.4048 304.6 -14.4633 304.494ZM11.2661 337.309C11.2519 337.283 11.2386 337.257 11.2264 337.23C10.9675 336.66 11.2199 335.989 11.7898 335.729C12.417 335.444 13.0445 335.129 13.6529 334.793C14.2008 334.491 14.9224 334.673 15.2245 335.221C15.5267 335.769 15.36 336.44 14.8121 336.743L14.7476 336.778C14.0876 337.142 13.4083 337.483 12.7274 337.793C12.1854 338.04 11.5491 337.822 11.2661 337.309ZM-7.41975 298.954C-7.72188 298.406 -7.53335 297.722 -6.98548 297.42L-6.96365 297.408C-6.28675 297.035 -5.5911 296.686 -4.8981 296.372C-4.32813 296.115 -3.66101 296.367 -3.39803 296.938C-3.14012 297.509 -3.39356 298.181 -3.96353 298.438C-4.60372 298.728 -5.24468 299.049 -5.86897 299.393C-6.41684 299.695 -7.11762 299.502 -7.41975 298.954ZM18.7151 332.35C18.4704 331.906 18.5474 331.337 18.9346 330.976C19.4602 330.485 19.9685 329.971 20.4464 329.443C20.8666 328.98 21.584 328.945 22.0474 329.365C22.5133 329.785 22.5468 330.503 22.1252 330.966C21.6055 331.54 21.0523 332.1 20.4823 332.632C20.0241 333.059 19.3073 333.034 18.8805 332.577C18.8143 332.509 18.7605 332.432 18.7151 332.35ZM0.994979 295.952C0.936414 295.846 0.895166 295.729 0.872332 295.603C0.761751 294.987 1.17225 294.398 1.78821 294.288C2.55431 294.151 3.33584 294.045 4.11065 293.974C4.73537 293.917 5.28449 294.375 5.34363 294.998C5.40124 295.622 4.94209 296.174 4.31891 296.231C3.60775 296.296 2.89032 296.394 2.18822 296.52C1.69607 296.606 1.22322 296.366 0.994979 295.952ZM24.1197 325.227C23.944 324.909 23.925 324.513 24.1026 324.164C24.427 323.527 24.7242 322.871 24.9848 322.215C25.2155 321.633 25.8752 321.348 26.4567 321.579C27.0383 321.81 27.3231 322.469 27.0924 323.051C26.8055 323.772 26.4794 324.493 26.1216 325.194C25.8377 325.752 25.1547 325.973 24.5969 325.689C24.3876 325.582 24.2259 325.42 24.1197 325.227ZM9.93495 295.935C9.81344 295.715 9.76428 295.452 9.81334 295.184C9.92547 294.569 10.5163 294.161 11.1326 294.274C11.91 294.416 12.6822 294.596 13.4274 294.809C14.028 294.983 14.3774 295.61 14.2053 296.211C14.0328 296.813 13.4066 297.161 12.8046 296.989C12.1303 296.797 11.4302 296.633 10.7234 296.504C10.3759 296.442 10.0942 296.224 9.93495 295.935ZM26.5684 316.639C26.4661 316.453 26.4143 316.237 26.4315 316.01C26.4837 315.305 26.4965 314.591 26.4707 313.889C26.4486 313.265 26.9367 312.739 27.5623 312.716C28.1859 312.695 28.7138 313.18 28.7361 313.807C28.7656 314.591 28.7506 315.388 28.6921 316.176C28.6458 316.801 28.1021 317.27 27.4783 317.223C27.0804 317.194 26.748 316.964 26.5684 316.639ZM18.217 299.265C18.0178 298.904 18.0232 298.446 18.2707 298.081C18.6216 297.562 19.3264 297.427 19.8448 297.778C20.5004 298.223 21.1358 298.706 21.7312 299.218C22.2062 299.624 22.2619 300.34 21.854 300.816C21.4465 301.291 20.7314 301.346 20.2553 300.938C19.7246 300.483 19.1588 300.05 18.5726 299.654C18.4203 299.552 18.3002 299.416 18.217 299.265ZM25.2106 307.842C25.1893 307.803 25.1699 307.763 25.1535 307.722C24.8935 307.086 24.5933 306.459 24.2622 305.859C23.96 305.311 24.148 304.6 24.6958 304.298C25.2437 303.996 25.9221 304.175 26.2242 304.723L26.2472 304.764C26.6205 305.441 26.9584 306.148 27.2511 306.864C27.4885 307.443 27.2119 308.105 26.632 308.342C26.094 308.564 25.4843 308.338 25.2106 307.842Z" fill="#CEDBFF"/>
<path d="M0.111482 289.113L-3.16871 283.165C-3.92753 283.331 -4.68717 283.514 -5.4433 283.735L-2.15544 289.697C-1.4013 289.477 -0.644803 289.279 0.111482 289.113Z" fill="#2F61E6"/>
<path d="M6.16434 288.354L2.88031 282.399C2.05356 282.427 1.22232 282.483 0.388985 282.575L3.6752 288.534C4.50754 288.443 5.33758 288.382 6.16434 288.354Z" fill="#2F61E6"/>
<path d="M14.3529 289.12L11.065 283.158C10.1224 282.941 9.16423 282.77 8.19221 282.643L11.479 288.603C12.4515 288.731 13.4102 288.904 14.3529 289.12Z" fill="#2F61E6"/>
<path d="M22.6625 292.453L19.3714 286.485C18.2264 285.793 17.027 285.186 15.7794 284.665L19.0683 290.629C20.3165 291.151 21.517 291.76 22.6625 292.453Z" fill="#2F61E6"/>
</g>
<g filter="url(#filter8_d)">
<rect x="281.134" y="648" width="73" height="67" rx="15" fill="#93B0FF"/>
</g>
<circle cx="308.634" cy="676.5" r="17.5" fill="#EAEEF9" fill-opacity="0.89"/>
<circle cx="326.634" cy="687.5" r="17.5" fill="white"/>
</g>
</g>
<defs>
<filter id="filter0_d" x="1121" y="278" width="402.046" height="402.046" filterUnits="userSpaceOnUse" color-interpolation-filters="sRGB">
<feFlood flood-opacity="0" result="BackgroundImageFix"/>
<feColorMatrix in="SourceAlpha" type="matrix" values="0 0 0 0 0 0 0 0 0 0 0 0 0 0 0 0 0 0 127 0"/>
<feOffset dy="4"/>
<feGaussianBlur stdDeviation="45"/>
<feColorMatrix type="matrix" values="0 0 0 0 0.184314 0 0 0 0 0.380392 0 0 0 0 0.901961 0 0 0 0.4 0"/>
<feBlend mode="normal" in2="BackgroundImageFix" result="effect1_dropShadow"/>
<feBlend mode="normal" in="SourceGraphic" in2="effect1_dropShadow" result="shape"/>
</filter>
<filter id="filter1_d" x="987" y="245.424" width="311.83" height="311.83" filterUnits="userSpaceOnUse" color-interpolation-filters="sRGB">
<feFlood flood-opacity="0" result="BackgroundImageFix"/>
<feColorMatrix in="SourceAlpha" type="matrix" values="0 0 0 0 0 0 0 0 0 0 0 0 0 0 0 0 0 0 127 0"/>
<feOffset dx="20" dy="-20"/>
<feGaussianBlur stdDeviation="45"/>
<feColorMatrix type="matrix" values="0 0 0 0 0.124583 0 0 0 0 0.300016 0 0 0 0 0.766667 0 0 0 1 0"/>
<feBlend mode="normal" in2="BackgroundImageFix" result="effect1_dropShadow"/>
<feBlend mode="normal" in="SourceGraphic" in2="effect1_dropShadow" result="shape"/>
</filter>
<filter id="filter2_d" x="1191" y="558" width="379" height="379" filterUnits="userSpaceOnUse" color-interpolation-filters="sRGB">
<feFlood flood-opacity="0" result="BackgroundImageFix"/>
<feColorMatrix in="SourceAlpha" type="matrix" values="0 0 0 0 0 0 0 0 0 0 0 0 0 0 0 0 0 0 127 0"/>
<feOffset dy="4"/>
<feGaussianBlur stdDeviation="45"/>
<feColorMatrix type="matrix" values="0 0 0 0 0.184314 0 0 0 0 0.380392 0 0 0 0 0.901961 0 0 0 0.26 0"/>
<feBlend mode="normal" in2="BackgroundImageFix" result="effect1_dropShadow"/>
<feBlend mode="normal" in="SourceGraphic" in2="effect1_dropShadow" result="shape"/>
</filter>
<filter id="filter3_d" x="1198" y="17" width="199" height="199" filterUnits="userSpaceOnUse" color-interpolation-filters="sRGB">
<feFlood flood-opacity="0" result="BackgroundImageFix"/>
<feColorMatrix in="SourceAlpha" type="matrix" values="0 0 0 0 0 0 0 0 0 0 0 0 0 0 0 0 0 0 127 0"/>
<feOffset dy="4"/>
<feGaussianBlur stdDeviation="30"/>
<feColorMatrix type="matrix" values="0 0 0 0 0.184314 0 0 0 0 0.380392 0 0 0 0 0.901961 0 0 0 0.33 0"/>
<feBlend mode="normal" in2="BackgroundImageFix" result="effect1_dropShadow"/>
<feBlend mode="normal" in="SourceGraphic" in2="effect1_dropShadow" result="shape"/>
</filter>
<filter id="filter4_d" x="1154" y="231" width="93" height="87" filterUnits="userSpaceOnUse" color-interpolation-filters="sRGB">
<feFlood flood-opacity="0" result="BackgroundImageFix"/>
<feColorMatrix in="SourceAlpha" type="matrix" values="0 0 0 0 0 0 0 0 0 0 0 0 0 0 0 0 0 0 127 0"/>
<feOffset dx="20" dy="-20"/>
<feColorMatrix type="matrix" values="0 0 0 0 0.917647 0 0 0 0 0.933333 0 0 0 0 0.976471 0 0 0 1 0"/>
<feBlend mode="normal" in2="BackgroundImageFix" result="effect1_dropShadow"/>
<feBlend mode="normal" in="SourceGraphic" in2="effect1_dropShadow" result="shape"/>
</filter>
<filter id="filter5_d" x="-103.866" y="-41" width="356" height="356" filterUnits="userSpaceOnUse" color-interpolation-filters="sRGB">
<feFlood flood-opacity="0" result="BackgroundImageFix"/>
<feColorMatrix in="SourceAlpha" type="matrix" values="0 0 0 0 0 0 0 0 0 0 0 0 0 0 0 0 0 0 127 0"/>
<feOffset dy="4"/>
<feGaussianBlur stdDeviation="45"/>
<feColorMatrix type="matrix" values="0 0 0 0 0.184314 0 0 0 0 0.380392 0 0 0 0 0.901961 0 0 0 0.26 0"/>
<feBlend mode="normal" in2="BackgroundImageFix" result="effect1_dropShadow"/>
<feBlend mode="normal" in="SourceGraphic" in2="effect1_dropShadow" result="shape"/>
</filter>
<filter id="filter6_d" x="-48.8657" y="680" width="199" height="199" filterUnits="userSpaceOnUse" color-interpolation-filters="sRGB">
<feFlood flood-opacity="0" result="BackgroundImageFix"/>
<feColorMatrix in="SourceAlpha" type="matrix" values="0 0 0 0 0 0 0 0 0 0 0 0 0 0 0 0 0 0 127 0"/>
<feOffset dy="4"/>
<feGaussianBlur stdDeviation="30"/>
<feColorMatrix type="matrix" values="0 0 0 0 0.184314 0 0 0 0 0.380392 0 0 0 0 0.901961 0 0 0 0.33 0"/>
<feBlend mode="normal" in2="BackgroundImageFix" result="effect1_dropShadow"/>
<feBlend mode="normal" in="SourceGraphic" in2="effect1_dropShadow" result="shape"/>
</filter>
<filter id="filter7_d" x="-177" y="339.495" width="515.78" height="515.78" filterUnits="userSpaceOnUse" color-interpolation-filters="sRGB">
<feFlood flood-opacity="0" result="BackgroundImageFix"/>
<feColorMatrix in="SourceAlpha" type="matrix" values="0 0 0 0 0 0 0 0 0 0 0 0 0 0 0 0 0 0 127 0"/>
<feOffset dy="4"/>
<feGaussianBlur stdDeviation="45"/>
<feColorMatrix type="matrix" values="0 0 0 0 0.184314 0 0 0 0 0.380392 0 0 0 0 0.901961 0 0 0 0.4 0"/>
<feBlend mode="normal" in2="BackgroundImageFix" result="effect1_dropShadow"/>
<feBlend mode="normal" in="SourceGraphic" in2="effect1_dropShadow" result="shape"/>
</filter>
<filter id="filter8_d" x="261.134" y="628" width="93" height="87" filterUnits="userSpaceOnUse" color-interpolation-filters="sRGB">
<feFlood flood-opacity="0" result="BackgroundImageFix"/>
<feColorMatrix in="SourceAlpha" type="matrix" values="0 0 0 0 0 0 0 0 0 0 0 0 0 0 0 0 0 0 127 0"/>
<feOffset dx="-20" dy="-20"/>
<feColorMatrix type="matrix" values="0 0 0 0 0.917647 0 0 0 0 0.933333 0 0 0 0 0.976471 0 0 0 1 0"/>
<feBlend mode="normal" in2="BackgroundImageFix" result="effect1_dropShadow"/>
<feBlend mode="normal" in="SourceGraphic" in2="effect1_dropShadow" result="shape"/>
</filter>
<linearGradient id="paint0_linear" x1="1401.52" y1="275.043" x2="1377.62" y2="323.619" gradientUnits="userSpaceOnUse">
<stop stop-color="#2F61E6"/>
<stop offset="1" stop-color="#88A8FF"/>
</linearGradient>
<linearGradient id="paint1_linear" x1="1166.5" y1="427.562" x2="1069.22" y2="388.215" gradientUnits="userSpaceOnUse">
<stop stop-color="#2F61E6"/>
<stop offset="1" stop-color="#EAEEF9" stop-opacity="0.89"/>
</linearGradient>
<linearGradient id="paint2_linear" x1="239.134" y1="318" x2="162.134" y2="422" gradientUnits="userSpaceOnUse">
<stop stop-color="#2F61E6"/>
<stop offset="1" stop-color="#EAEEF9" stop-opacity="0.89"/>
</linearGradient>
<linearGradient id="paint3_linear" x1="13.7755" y1="286.454" x2="-28.7233" y2="343.855" gradientUnits="userSpaceOnUse">
<stop stop-color="#2F61E6"/>
<stop offset="1" stop-color="#EAEEF9" stop-opacity="0.89"/>
</linearGradient>
<clipPath id="clip0">
<rect width="1440" height="943" fill="white"/>
</clipPath>
<clipPath id="clip1">
<rect width="163.656" height="163.656" fill="white" transform="matrix(-0.877856 0.478925 0.478925 0.877856 1354.67 364)"/>
</clipPath>
<clipPath id="clip2">
<rect width="63.4723" height="63.4723" fill="white" transform="translate(1432.73 273.141) rotate(136.631)"/>
</clipPath>
<clipPath id="clip3">
<rect width="93.256" height="93.256" fill="white" transform="translate(1188.83 423.216) rotate(136.631)"/>
</clipPath>
<clipPath id="clip4">
<rect width="176" height="176" fill="white" transform="translate(-13.8657 45)"/>
</clipPath>
<clipPath id="clip5">
<rect width="79" height="79" fill="white" transform="translate(11.1343 736)"/>
</clipPath>
<clipPath id="clip6">
<rect width="247.483" height="247.483" fill="white" transform="translate(31.5256 425.495) rotate(28.6152)"/>
</clipPath>
<clipPath id="clip7">
<rect width="115" height="115" fill="white" transform="translate(240.837 290) rotate(61.1249)"/>
</clipPath>
<clipPath id="clip8">
<rect width="63.4723" height="63.4723" fill="white" transform="translate(14.7153 271) rotate(61.1249)"/>
</clipPath>
</defs>
</svg>
