<svg width="2461" height="2315" viewBox="0 0 2461 2315" fill="none" xmlns="http://www.w3.org/2000/svg">
<g clip-path="url(#clip0)">
<path d="M2020.75 1593.41C1969.01 1773.81 1678.06 1853.92 1567.7 1890.86C1567.7 1890.86 1244.64 1924.17 1216.77 1924.17C935.481 1924.17 829.972 1953 829.972 1953C687.378 1819.54 341.342 1593.41 364.068 1289.75C381.999 1050.15 538.894 1082.83 631.11 788.136C723.326 493.446 866.132 360.195 1183.12 332.648C1500.12 305.1 1698.64 438.352 1795.34 571.603C1892.03 704.854 1887.55 954.06 1984.25 1082.83C2080.95 1211.59 2085.43 1367.91 2020.75 1593.41Z" fill="url(#paint0_linear)" fill-opacity="0.38"/>
<g clip-path="url(#clip1)">
<rect x="595" y="457" width="863" height="1475" rx="182" fill="url(#paint1_linear)"/>
<path d="M571.903 1931.9H1170.92C1245.98 1931.9 1306.82 1871.06 1306.82 1796L1414.5 593C1414.5 517.944 1353.65 457.097 1278.6 457.097L679.579 457.097C604.523 457.097 543.676 517.944 543.676 593L436 1796C436 1871.06 496.847 1931.9 571.903 1931.9Z" fill="#3062E6"/>
<path d="M558.95 1843.5H1170.52C1208.05 1843.5 1238.47 1813.08 1238.47 1775.55L1343.95 572.929C1343.95 535.401 1313.53 504.979 1276 504.979H670.392C642.544 504.979 613.951 515.496 603.253 541.207C599.314 550.676 596.478 561.471 596.478 572.929L491 1775.55C491 1813.08 521.422 1843.5 558.95 1843.5Z" fill="white"/>
<path d="M985.336 572.941H849.436C830.672 572.941 815.459 588.154 815.459 606.918C815.459 625.682 830.672 640.891 849.436 640.891H985.336C1004.1 640.891 1019.31 625.679 1019.31 606.918C1019.31 588.154 1004.1 572.941 985.336 572.941Z" fill="#EAEEF9" fill-opacity="0.89"/>
<path d="M1121.24 640.903C1102.47 640.903 1087.26 625.691 1087.26 606.927C1087.26 588.162 1102.47 572.95 1121.24 572.95C1140 572.95 1155.22 588.162 1155.22 606.927C1155.22 625.691 1140 640.903 1121.24 640.903Z" fill="#EAEEF9" fill-opacity="0.89"/>
<path d="M882.903 1660.15H814.95C777.422 1660.15 747 1690.57 747 1728.1V1728.1C747 1765.63 777.422 1796.05 814.95 1796.05H882.903C920.431 1796.05 950.853 1765.63 950.853 1728.1V1728.1C950.853 1690.57 920.431 1660.15 882.903 1660.15Z" fill="#EAEEF9" fill-opacity="0.89"/>
<g filter="url(#filter0_d)">
<path d="M619.041 805.194C621.002 784.671 638.242 769 658.859 769H1239.49C1263.09 769 1281.56 789.318 1279.31 812.806L1259.96 1015.31C1258 1035.83 1240.76 1051.5 1220.14 1051.5H639.505C615.91 1051.5 597.442 1031.18 599.687 1007.69L619.041 805.194Z" fill="white"/>
<path d="M620.036 805.289C621.949 785.279 638.757 770 658.859 770H1239.49C1262.5 770 1280.51 789.81 1278.32 812.711L1258.96 1015.21C1257.05 1035.22 1240.24 1050.5 1220.14 1050.5H639.505C616.5 1050.5 598.493 1030.69 600.682 1007.79L620.036 805.289Z" stroke="#EAEEF9" stroke-opacity="0.89" stroke-width="2"/>
</g>
<g filter="url(#filter1_d)">
<path d="M577.541 1166.19C579.502 1145.67 596.742 1130 617.359 1130H1197.99C1221.59 1130 1240.06 1150.32 1237.81 1173.81L1218.46 1376.31C1216.5 1396.83 1199.26 1412.5 1178.64 1412.5H598.005C574.41 1412.5 555.942 1392.18 558.187 1368.69L577.541 1166.19Z" fill="white"/>
<path d="M578.536 1166.29C580.449 1146.28 597.257 1131 617.359 1131H1197.99C1221 1131 1239.01 1150.81 1236.82 1173.71L1217.46 1376.21C1215.55 1396.22 1198.74 1411.5 1178.64 1411.5H598.005C575 1411.5 556.993 1391.69 559.182 1368.79L578.536 1166.29Z" stroke="#EAEEF9" stroke-opacity="0.89" stroke-width="2"/>
</g>
<path d="M1194 1844H1476V1932H1194V1844Z" fill="#7AB555"/>
<path d="M1194 1923H1370V1932H1194V1923Z" fill="#5A8A41"/>
<path d="M1370 1844H1476V1932H1370V1844Z" fill="#5A8A41"/>
<path d="M1256 1844H1309V1932H1256V1844Z" fill="#F2E368"/>
<path d="M1476 1932H1370V1923.2H1387.18C1409.17 1923.2 1430.39 1915.12 1446.78 1900.51C1463.17 1885.9 1473.57 1865.78 1476 1844V1932Z" fill="#4B7A32"/>
<path d="M1441 1844H1264V1755H1441V1844Z" fill="#5A8A41"/>
<path d="M1441 1844H1264V1835.1H1352.01C1374.04 1835.1 1395.31 1826.93 1411.72 1812.15C1428.14 1797.37 1438.57 1777.02 1441 1755V1844Z" fill="#4B7A32"/>
<path d="M1379 1844H1326V1755H1379V1844Z" fill="#F2E368"/>
<path d="M1264 1844H1158V1755H1264V1844Z" fill="#7AB555"/>
<path d="M1158 1835H1264V1844H1158V1835Z" fill="#5A8A41"/>
<path d="M1185 1667H1467V1755H1185V1667Z" fill="#7AB555"/>
<path d="M1185 1746H1361V1755H1185V1746Z" fill="#5A8A41"/>
<path d="M1362 1667H1468V1755H1362V1667Z" fill="#5A8A41"/>
<path d="M1247 1667H1300V1755H1247V1667Z" fill="#F2E368"/>
<path d="M1468 1755H1362V1746.2H1379.18C1401.17 1746.2 1422.39 1738.12 1438.78 1723.51C1455.17 1708.9 1465.57 1688.78 1468 1667V1755Z" fill="#4B7A32"/>
<path d="M496 1191.61L464.755 1222.86L447.697 1239.92L416.452 1271.17L387.35 1237.92L375.727 1224.62C369.086 1217.03 360.897 1210.94 351.711 1206.77C342.524 1202.6 332.552 1200.45 322.463 1200.45H322.032C303.261 1200.45 285.258 1192.99 271.983 1179.72L253.245 1160.98L222 1129.73L253.245 1098.48L270.303 1081.42L301.548 1050.17L332.794 1081.42L360.37 1109C373.645 1122.27 391.648 1129.73 410.419 1129.73C420.629 1129.73 430.717 1131.94 439.993 1136.21C449.269 1140.47 457.512 1146.69 464.159 1154.45L467.252 1158.05L496 1191.61Z" fill="#93B0FF"/>
<path d="M332.893 1081.23C328.793 1085.33 323.925 1088.58 318.568 1090.8C313.21 1093.02 307.467 1094.17 301.667 1094.17C295.867 1094.17 290.124 1093.02 284.766 1090.8C279.408 1088.58 274.54 1085.33 270.441 1081.23L301.667 1050L332.893 1081.23Z" fill="#2F61E6"/>
<path d="M266.333 1129.5C266.34 1135.3 265.2 1141.05 262.979 1146.4C260.758 1151.76 257.5 1156.63 253.393 1160.73L222.167 1129.5L253.393 1098.27C257.5 1102.37 260.758 1107.24 262.979 1112.6C265.2 1117.95 266.34 1123.7 266.333 1129.5Z" fill="#2F61E6"/>
<path d="M464.774 1222.56C460.469 1218.26 457.1 1213.11 454.879 1207.45C452.658 1201.78 451.632 1195.72 451.866 1189.63C452.1 1183.55 453.59 1177.59 456.241 1172.11C458.891 1166.63 462.646 1161.76 467.27 1157.8L496 1191.33L464.774 1222.56Z" fill="#2F61E6"/>
<path d="M447.726 1239.61L416.5 1270.83L387.417 1237.61C395.845 1230.22 406.766 1226.32 417.966 1226.69C429.167 1227.06 439.806 1231.68 447.726 1239.61Z" fill="#2F61E6"/>
<path d="M363.5 1200.17C387.893 1200.17 407.667 1184.35 407.667 1164.83C407.667 1145.32 387.893 1129.5 363.5 1129.5C339.107 1129.5 319.333 1145.32 319.333 1164.83C319.333 1184.35 339.107 1200.17 363.5 1200.17Z" fill="#2F61E6"/>
<path d="M359.235 1549.47C379.247 1549.47 395.47 1533.25 395.47 1513.23C395.47 1493.22 379.247 1477 359.235 1477C339.223 1477 323 1493.22 323 1513.23C323 1533.25 339.223 1549.47 359.235 1549.47Z" fill="#F6B545"/>
<path d="M386.865 1490.13C392.3 1496.48 395.47 1504.18 395.47 1513.23C395.47 1533.16 379.165 1549.47 359.236 1549.47C350.177 1549.47 342.477 1546.3 336.136 1540.86C342.93 1549.02 352.895 1554 363.765 1554C383.694 1554 400 1537.69 400 1517.76C400 1506.44 395.017 1496.48 386.865 1490.13Z" fill="#B06328"/>
<path d="M359.236 1544.94C376.746 1544.94 390.941 1530.75 390.941 1513.23C390.941 1495.72 376.746 1481.53 359.236 1481.53C341.725 1481.53 327.53 1495.72 327.53 1513.23C327.53 1530.75 341.725 1544.94 359.236 1544.94Z" fill="#FFCB5B"/>
<path d="M359.235 1481.53V1477C339.306 1477 323 1493.31 323 1513.23H327.529C327.53 1495.57 341.57 1481.53 359.235 1481.53Z" fill="#FFE27A"/>
<path d="M363.765 1508.71H354.706C351.988 1508.71 350.177 1506.89 350.177 1504.18C350.177 1501.46 351.989 1499.65 354.706 1499.65H368.294C371.012 1499.65 372.823 1497.83 372.823 1495.12C372.823 1492.4 371.011 1490.59 368.294 1490.59H363.765C363.765 1487.87 361.953 1486.06 359.236 1486.06C356.518 1486.06 354.706 1487.87 354.706 1490.59C347.007 1490.59 341.118 1496.48 341.118 1504.18C341.118 1511.88 347.007 1517.76 354.706 1517.76H363.765C366.483 1517.76 368.294 1519.58 368.294 1522.29C368.294 1525.01 366.483 1526.82 363.765 1526.82H350.177C347.46 1526.82 345.648 1528.63 345.648 1531.35C345.648 1534.07 347.46 1535.88 350.177 1535.88H354.706C354.706 1538.6 356.518 1540.41 359.236 1540.41C361.953 1540.41 363.765 1538.6 363.765 1535.88C371.465 1535.88 377.353 1529.99 377.353 1522.29C377.353 1514.59 371.465 1508.71 363.765 1508.71Z" fill="#E78825"/>
<path d="M288.88 863.319L314.604 874.535L328.648 880.658L354.371 891.874L363.852 865.464L367.635 854.908C369.797 848.877 373.224 843.378 377.686 838.78C382.147 834.182 387.541 830.592 393.504 828.25L393.759 828.15C404.854 823.792 413.763 815.205 418.528 804.277L425.252 788.849L436.464 763.124L410.74 751.908L396.696 745.784L370.972 734.569L359.76 760.294L349.865 782.999C345.1 793.927 336.191 802.514 325.096 806.873C319.062 809.245 313.612 812.894 309.12 817.569C304.628 822.245 301.2 827.837 299.072 833.961L298.08 836.809L288.88 863.319Z" fill="#93B0FF"/>
<path d="M359.657 760.205C363.033 761.678 366.666 762.471 370.348 762.54C374.031 762.608 377.691 761.95 381.119 760.603C384.547 759.257 387.676 757.248 390.327 754.691C392.979 752.135 395.1 749.081 396.571 745.704L370.864 734.498L359.657 760.205Z" fill="#2F61E6"/>
<path d="M410.207 773.283C411.55 776.713 413.558 779.844 416.115 782.496C418.672 785.148 421.728 787.268 425.107 788.735L436.313 763.028L410.606 751.822C409.129 755.197 408.333 758.83 408.265 762.513C408.197 766.196 408.857 769.856 410.207 773.283Z" fill="#2F61E6"/>
<path d="M314.523 874.364C316.069 870.822 316.866 866.998 316.863 863.133C316.86 859.268 316.058 855.446 314.508 851.906C312.957 848.366 310.691 845.184 307.853 842.562C305.014 839.939 301.663 837.932 298.012 836.666L288.816 863.158L314.523 874.364Z" fill="#2F61E6"/>
<path d="M328.558 880.482L354.265 891.688L363.741 865.297C357.045 862.889 349.683 863.118 343.149 865.938C336.615 868.757 331.399 873.957 328.558 880.482Z" fill="#2F61E6"/>
<path d="M369.184 837.613C354.766 843.277 339.405 838.518 334.874 826.984C330.343 815.45 338.358 801.508 352.776 795.845C367.193 790.181 382.554 794.94 387.085 806.474C391.616 818.008 383.601 831.95 369.184 837.613Z" fill="#2F61E6"/>
<path d="M362.353 605.293C341.562 605.293 324.707 588.438 324.707 567.647C324.707 546.855 341.562 530 362.353 530C383.145 530 400 546.855 400 567.647C400 588.438 383.145 605.293 362.353 605.293Z" fill="#F6B545"/>
<path d="M333.647 543.646C328 550.235 324.706 558.235 324.706 567.646C324.706 588.352 341.647 605.293 362.352 605.293C371.764 605.293 379.764 601.999 386.352 596.352C379.293 604.822 368.94 609.999 357.646 609.999C336.941 609.999 320 593.058 320 572.352C320 560.587 325.177 550.235 333.647 543.646Z" fill="#B06328"/>
<path d="M362.353 600.587C344.16 600.587 329.412 585.839 329.412 567.646C329.412 549.454 344.16 534.706 362.353 534.706C380.545 534.706 395.293 549.454 395.293 567.646C395.293 585.839 380.545 600.587 362.353 600.587Z" fill="#FFCB5B"/>
<path d="M362.353 534.706V530C383.059 530 400 546.941 400 567.647H395.294C395.294 549.294 380.706 534.706 362.353 534.706Z" fill="#FFE27A"/>
<path d="M367.058 562.94H357.647C354.823 562.94 352.941 561.058 352.941 558.235C352.941 555.411 354.823 553.529 357.647 553.529H371.764C374.588 553.529 376.47 551.646 376.47 548.823C376.47 546 374.587 544.118 371.764 544.118H367.058C367.058 541.294 365.176 539.412 362.353 539.412C359.529 539.412 357.647 541.294 357.647 544.118C349.647 544.118 343.53 550.235 343.53 558.235C343.53 566.235 349.647 572.352 357.647 572.352H367.059C369.882 572.352 371.764 574.235 371.764 577.058C371.764 579.881 369.882 581.764 367.059 581.764H352.941C350.118 581.764 348.236 583.646 348.236 586.469C348.236 589.293 350.118 591.175 352.941 591.175H357.647C357.647 593.999 359.529 595.881 362.353 595.881C365.176 595.881 367.058 593.998 367.058 591.175C375.058 591.175 381.176 585.058 381.176 577.058C381.176 569.058 375.058 562.94 367.058 562.94Z" fill="#E78825"/>
<path d="M597 1710.38C568.2 1737.98 561 1819.88 561 1857.38L692 1936.88H917C901.333 1918.21 870.7 1871.18 873.5 1832.38C877 1783.88 790 1710.38 782 1670.88C778.427 1653.24 798 1596.02 774.5 1567.52C751 1539.02 642.568 1517.03 611.5 1584.52C597 1616.02 633 1675.88 597 1710.38Z" fill="#2F61E6" fill-opacity="0.11"/>
<circle cx="747" cy="910" r="81" fill="url(#paint2_linear)"/>
<path d="M753.373 903.642L739.857 902.386C735.803 902.009 733.351 899.055 733.728 895.001C734.105 890.946 737.059 888.495 741.113 888.871L761.386 890.755C765.441 891.132 768.395 888.68 768.772 884.626C769.149 880.571 766.697 877.617 762.642 877.24L755.885 876.612C756.262 872.558 753.81 869.604 749.756 869.227C745.701 868.85 742.747 871.302 742.37 875.356C730.882 874.289 721.281 882.257 720.213 893.745C719.145 905.233 727.114 914.835 738.602 915.902L752.117 917.158C756.172 917.535 758.624 920.49 758.247 924.544C757.87 928.598 754.915 931.05 750.861 930.673L730.588 928.789C726.534 928.413 723.58 930.865 723.203 934.919C722.826 938.974 725.278 941.928 729.332 942.304L736.09 942.932C735.713 946.987 738.165 949.941 742.219 950.318C746.274 950.695 749.228 948.242 749.605 944.188C761.093 945.256 770.694 937.288 771.762 925.799C772.829 914.311 764.861 904.71 753.373 903.642Z" fill="white"/>
<path d="M887.224 867.593C888.165 861.498 893.411 857 899.578 857H1165.42C1173.09 857 1178.94 863.833 1177.78 871.407C1176.83 877.502 1171.59 882 1165.42 882H899.578C891.914 882 886.055 875.167 887.224 867.593Z" fill="#EAEEF9" fill-opacity="0.89"/>
<path d="M881.224 913.593C882.165 907.498 887.411 903 893.578 903H1159.42C1167.09 903 1172.94 909.833 1171.78 917.407C1170.83 923.502 1165.59 928 1159.42 928H893.578C885.914 928 880.055 921.167 881.224 913.593Z" fill="#EAEEF9" fill-opacity="0.89"/>
<path d="M874.224 960.593C875.165 954.498 880.411 950 886.578 950H1152.42C1160.09 950 1165.94 956.833 1164.78 964.407C1163.83 970.502 1158.59 975 1152.42 975H886.578C878.914 975 873.055 968.167 874.224 960.593Z" fill="#EAEEF9" fill-opacity="0.89"/>
<circle cx="705" cy="1281" r="81" fill="url(#paint3_linear)"/>
<path d="M843.224 1232.59C844.165 1226.5 849.411 1222 855.578 1222H1121.42C1129.09 1222 1134.94 1228.83 1133.78 1236.41C1132.83 1242.5 1127.59 1247 1121.42 1247H855.578C847.914 1247 842.055 1240.17 843.224 1232.59Z" fill="#EAEEF9" fill-opacity="0.89"/>
<path d="M837.224 1278.59C838.165 1272.5 843.411 1268 849.578 1268H1115.42C1123.09 1268 1128.94 1274.83 1127.78 1282.41C1126.83 1288.5 1121.59 1293 1115.42 1293H849.578C841.914 1293 836.055 1286.17 837.224 1278.59Z" fill="#EAEEF9" fill-opacity="0.89"/>
<path d="M830.224 1325.59C831.165 1319.5 836.411 1315 842.578 1315H1108.42C1116.09 1315 1121.94 1321.83 1120.78 1329.41C1119.83 1335.5 1114.59 1340 1108.42 1340H842.578C834.914 1340 829.055 1333.17 830.224 1325.59Z" fill="#EAEEF9" fill-opacity="0.89"/>
<path d="M711.654 1276.09L699.176 1274.53C695.432 1274.07 693.249 1271.26 693.716 1267.52C694.184 1263.77 696.992 1261.59 700.735 1262.06L719.453 1264.4C723.197 1264.86 726.004 1262.68 726.472 1258.94C726.94 1255.19 724.756 1252.39 721.013 1251.92L714.774 1251.14C715.241 1247.39 713.057 1244.59 709.314 1244.12C705.57 1243.65 702.763 1245.84 702.295 1249.58C691.688 1248.25 682.564 1255.35 681.238 1265.96C679.913 1276.56 687.01 1285.69 697.617 1287.01L710.095 1288.57C713.839 1289.04 716.023 1291.85 715.555 1295.59C715.087 1299.34 712.279 1301.52 708.536 1301.05L689.818 1298.71C686.074 1298.24 683.267 1300.43 682.799 1304.17C682.331 1307.92 684.515 1310.72 688.259 1311.19L694.498 1311.97C694.03 1315.71 696.214 1318.52 699.957 1318.99C703.701 1319.46 706.508 1317.27 706.976 1313.53C717.583 1314.86 726.707 1307.76 728.033 1297.15C729.359 1286.54 722.261 1277.42 711.654 1276.09Z" fill="white"/>
</g>
<path d="M2551 -111.25L1982.72 1940H1561L1342 -287L2551 -111.25Z" fill="url(#paint4_linear)"/>
<path d="M1980.88 1573.32L2006.6 1584.54L2020.65 1590.66L2046.37 1601.87L2055.85 1575.46L2059.64 1564.91C2061.8 1558.88 2065.22 1553.38 2069.69 1548.78C2074.15 1544.18 2079.54 1540.59 2085.5 1538.25L2085.76 1538.15C2096.85 1533.79 2105.76 1525.2 2110.53 1514.28L2117.25 1498.85L2128.46 1473.12L2102.74 1461.91L2088.7 1455.78L2062.97 1444.57L2051.76 1470.29L2041.86 1493C2037.1 1503.93 2028.19 1512.51 2017.1 1516.87C2011.06 1519.25 2005.61 1522.89 2001.12 1527.57C1996.63 1532.25 1993.2 1537.84 1991.07 1543.96L1990.08 1546.81L1980.88 1573.32Z" fill="#93B0FF"/>
<path d="M2051.66 1470.2C2055.03 1471.68 2058.67 1472.47 2062.35 1472.54C2066.03 1472.61 2069.69 1471.95 2073.12 1470.6C2076.55 1469.26 2079.68 1467.25 2082.33 1464.69C2084.98 1462.13 2087.1 1459.08 2088.57 1455.7L2062.86 1444.5L2051.66 1470.2Z" fill="#2F61E6"/>
<path d="M2102.21 1483.28C2103.55 1486.71 2105.56 1489.84 2108.11 1492.5C2110.67 1495.15 2113.73 1497.27 2117.11 1498.74L2128.31 1473.03L2102.61 1461.82C2101.13 1465.2 2100.33 1468.83 2100.26 1472.51C2100.2 1476.2 2100.86 1479.86 2102.21 1483.28Z" fill="#2F61E6"/>
<path d="M2006.52 1584.36C2008.07 1580.82 2008.87 1577 2008.86 1573.13C2008.86 1569.27 2008.06 1565.45 2006.51 1561.91C2004.96 1558.37 2002.69 1555.18 1999.85 1552.56C1997.01 1549.94 1993.66 1547.93 1990.01 1546.67L1980.82 1573.16L2006.52 1584.36Z" fill="#2F61E6"/>
<path d="M2020.56 1590.48L2046.27 1601.69L2055.74 1575.3C2049.04 1572.89 2041.68 1573.12 2035.15 1575.94C2028.62 1578.76 2023.4 1583.96 2020.56 1590.48Z" fill="#2F61E6"/>
<path d="M2061.18 1547.61C2046.77 1553.28 2031.41 1548.52 2026.87 1536.98C2022.34 1525.45 2030.36 1511.51 2044.78 1505.84C2059.19 1500.18 2074.55 1504.94 2079.09 1516.47C2083.62 1528.01 2075.6 1541.95 2061.18 1547.61Z" fill="#2F61E6"/>
<path d="M1937.93 1144.08L1910.85 1155.88L1896.07 1162.33L1868.99 1174.14L1859.01 1146.33L1855.02 1135.22C1852.75 1128.87 1849.14 1123.09 1844.44 1118.25C1839.75 1113.41 1834.07 1109.63 1827.79 1107.16L1827.52 1107.06C1815.85 1102.47 1806.47 1093.43 1801.45 1081.93L1794.37 1065.68L1782.57 1038.6L1809.65 1026.8L1824.43 1020.35L1851.51 1008.55L1863.31 1035.63L1873.73 1059.53C1878.75 1071.03 1888.12 1080.07 1899.8 1084.66C1906.16 1087.15 1911.89 1091 1916.62 1095.92C1921.35 1100.84 1924.96 1106.73 1927.2 1113.17L1928.24 1116.17L1937.93 1144.08Z" fill="#93B0FF"/>
<path d="M1863.42 1035.53C1859.87 1037.08 1856.04 1037.92 1852.17 1037.99C1848.29 1038.06 1844.44 1037.37 1840.83 1035.95C1837.22 1034.53 1833.93 1032.42 1831.14 1029.73C1828.35 1027.04 1826.11 1023.82 1824.56 1020.27L1851.63 1008.47L1863.42 1035.53Z" fill="#2F61E6"/>
<path d="M1810.21 1049.3C1808.8 1052.91 1806.68 1056.21 1803.99 1059C1801.3 1061.79 1798.08 1064.02 1794.53 1065.57L1782.73 1038.5L1809.79 1026.71C1811.35 1030.26 1812.18 1034.09 1812.25 1037.96C1812.33 1041.84 1811.63 1045.69 1810.21 1049.3Z" fill="#2F61E6"/>
<path d="M1910.93 1155.7C1909.31 1151.97 1908.47 1147.95 1908.47 1143.88C1908.47 1139.81 1909.32 1135.79 1910.95 1132.06C1912.58 1128.34 1914.97 1124.99 1917.95 1122.23C1920.94 1119.47 1924.47 1117.35 1928.31 1116.02L1937.99 1143.91L1910.93 1155.7Z" fill="#2F61E6"/>
<path d="M1896.16 1162.14L1869.1 1173.94L1859.12 1146.16C1866.17 1143.62 1873.92 1143.87 1880.8 1146.83C1887.68 1149.8 1893.17 1155.28 1896.16 1162.14Z" fill="#2F61E6"/>
<path d="M1853.39 1117.02C1868.57 1122.98 1884.74 1117.97 1889.51 1105.83C1894.28 1093.69 1885.84 1079.01 1870.67 1073.05C1855.49 1067.09 1839.32 1072.1 1834.55 1084.24C1829.78 1096.38 1838.22 1111.06 1853.39 1117.02Z" fill="#2F61E6"/>
<path d="M1699.96 1929.5C1701.29 1919.75 1653.29 1836 1627.46 1797.5L1559.5 1762.5C1553 1789 1531.46 1840.1 1533.46 1846.5C1535.96 1854.5 1669.96 1936 1680.96 1938.5C1691.96 1941 1698.46 1940.5 1699.96 1929.5Z" fill="url(#paint5_linear)"/>
<path d="M1450.96 1927C1441.44 1923.83 1440.79 1861.5 1444.96 1836L1526.96 1826.5V1849.5C1530.46 1852.33 1540.16 1858.5 1550.96 1860.5C1564.46 1863 1612.46 1880.5 1626.96 1891C1641.46 1901.5 1632.46 1921.5 1619.96 1927C1607.46 1932.5 1470.46 1933.5 1450.96 1927Z" fill="url(#paint6_linear)"/>
<mask id="mask0" mask-type="alpha" maskUnits="userSpaceOnUse" x="1414" y="714" width="93" height="94">
<path d="M1506.11 762.214L1503.08 730.802L1499.99 717.642L1414.69 714.475C1419.87 739.164 1432.26 796.646 1434.65 804.706C1437.64 814.781 1491.37 797.387 1500.14 793.253C1507.16 789.947 1507.05 771.182 1506.11 762.214Z" fill="#FDDAC6"/>
</mask>
<g mask="url(#mask0)">
<path d="M1506.11 762.214L1503.08 730.802L1499.99 717.642L1414.85 713.401C1415.51 739.152 1433.74 795.884 1436.13 803.944C1439.12 814.018 1491.37 797.387 1500.14 793.253C1507.16 789.947 1507.05 771.182 1506.11 762.214Z" fill="#FDDAC6"/>
<path d="M1453.17 753.843C1482.54 772.41 1500.71 760.97 1506.13 752.929L1511.11 707.641L1423.18 687.195L1413.7 723.513C1414.62 725.887 1423.8 735.277 1453.17 753.843Z" fill="#F5B591"/>
</g>
<mask id="mask1" mask-type="alpha" maskUnits="userSpaceOnUse" x="1402" y="603" width="125" height="137">
<path d="M1510.3 734.158C1538.98 720.271 1524.92 655.397 1509.97 624.691L1458.57 603.707L1406.06 624.176C1409.3 639.255 1413.43 670.195 1413.43 670.195C1413.43 670.195 1400.95 676.078 1402.58 686.238C1403.8 693.887 1408.6 698.623 1412.34 698.772L1415.92 721.084C1434.35 727.53 1476.25 750.647 1510.3 734.158Z" fill="#FDDAC6"/>
</mask>
<g mask="url(#mask1)">
<path d="M1510.8 733.67C1539.47 719.782 1525.41 654.909 1510.47 624.202L1459.07 603.219L1406.56 623.688C1409.79 638.767 1413.93 669.707 1413.93 669.707C1413.93 669.707 1401.45 675.589 1403.07 685.749C1404.3 693.399 1409.09 698.134 1412.84 698.284L1416.41 720.596C1434.84 727.042 1476.75 750.159 1510.8 733.67Z" fill="#FDDAC6"/>
<ellipse rx="18.4875" ry="19.9738" transform="matrix(-0.987406 0.158209 0.158209 0.987406 1521.42 684.358)" fill="url(#paint7_radial)"/>
<ellipse rx="22.9693" ry="24.8159" transform="matrix(-0.987406 0.158209 0.158209 0.987406 1438.26 708.308)" fill="url(#paint8_radial)"/>
</g>
<path d="M1405.47 676.034L1405.5 675.987L1405.54 675.948C1406.43 675.084 1407.67 673.961 1408.85 672.948C1410.03 671.944 1411.19 671.021 1411.94 670.578C1412.65 670.15 1413.97 669.35 1415.04 667.897C1416.09 666.465 1416.92 664.369 1416.62 661.302C1414.07 653.116 1414.3 647.924 1416.56 644.468C1418.81 641.021 1422.98 639.468 1427.8 638.287C1429.37 637.903 1431.01 637.558 1432.69 637.203C1436.26 636.449 1440.04 635.652 1443.78 634.353C1449.24 632.455 1454.51 629.508 1458.64 624.13C1463.82 617.396 1469.78 614.632 1475.87 614.309C1481.92 613.987 1488.03 616.086 1493.52 618.962C1499.02 621.841 1503.95 625.522 1507.64 628.416C1508.33 628.958 1508.97 629.47 1509.57 629.945C1510.57 630.742 1511.44 631.431 1512.16 631.971C1512.61 632.309 1512.99 632.579 1513.3 632.775C1508.67 617.969 1504.61 608.408 1501.05 601.559C1498.18 596.023 1495.64 592.259 1493.38 588.903C1492.78 588.016 1492.2 587.157 1491.64 586.302C1488.21 581.063 1485.02 578.164 1481.36 576.887C1477.69 575.606 1473.46 575.92 1467.86 577.327C1465.28 577.973 1463.18 578.556 1461.36 579.06C1455.26 580.748 1452.38 581.547 1445.96 580.819C1445.25 580.737 1444.42 580.634 1443.5 580.519C1439.11 579.969 1432.61 579.155 1425.98 579.238C1417.94 579.338 1409.9 580.763 1405.27 585.42C1399.96 590.76 1397.98 594.949 1396.45 599.248C1396.15 600.071 1395.87 600.902 1395.59 601.748C1394.38 605.337 1393.07 609.201 1390.14 613.932C1388.32 616.882 1385.77 619.531 1383.07 622.18C1382.59 622.653 1382.1 623.126 1381.61 623.6C1379.35 625.799 1377.04 628.04 1374.96 630.52C1369.93 636.519 1366.26 643.877 1368.07 655.16C1370.24 668.722 1375.16 675.081 1379.67 679.118C1380.8 680.133 1381.91 681.006 1382.97 681.815C1383.1 681.92 1383.24 682.024 1383.37 682.127C1384.27 682.817 1385.12 683.471 1385.88 684.13C1387.63 685.651 1388.96 687.26 1389.33 689.571C1390.71 698.181 1395.75 704.621 1401.36 709.497C1405.63 713.208 1410.19 715.979 1413.71 718.116C1414.44 718.564 1415.14 718.984 1415.77 719.379L1412.67 698.855C1411.77 698.616 1410.79 698.089 1409.81 697.378C1408.71 696.568 1407.58 695.496 1406.55 694.263C1404.51 691.807 1402.82 688.651 1402.58 685.584C1402.35 682.61 1402.64 680.837 1403.24 679.471C1403.54 678.793 1403.9 678.233 1404.29 677.696C1404.41 677.521 1404.54 677.352 1404.66 677.183C1404.93 676.819 1405.2 676.455 1405.47 676.034Z" fill="black" stroke="black"/>
<path d="M1467.34 665.652C1468.01 664.772 1467.84 663.517 1466.96 662.85C1466.08 662.182 1464.82 662.354 1464.15 663.234L1467.34 665.652ZM1454.81 673.131L1454.08 671.268L1454.81 673.131ZM1446.1 672.38C1445 672.251 1444.01 673.036 1443.88 674.133C1443.75 675.23 1444.53 676.224 1445.63 676.353L1446.1 672.38ZM1464.15 663.234C1461.51 666.718 1457.65 669.875 1454.08 671.268L1455.54 674.994C1459.93 673.276 1464.36 669.586 1467.34 665.652L1464.15 663.234ZM1454.08 671.268C1449.66 672.998 1446.36 672.411 1446.1 672.38L1445.63 676.353C1445.63 676.352 1446.04 676.414 1446.56 676.454C1447.1 676.495 1447.83 676.521 1448.72 676.48C1450.48 676.397 1452.86 676.043 1455.54 674.994L1454.08 671.268Z" fill="black"/>
<path d="M1491.1 657.865C1490.13 657.336 1489.77 656.122 1490.3 655.152C1490.83 654.182 1492.05 653.825 1493.01 654.354L1491.1 657.865ZM1503.72 658.326L1503.85 660.322L1503.72 658.326ZM1510.3 653.989C1511.24 653.409 1512.47 653.702 1513.05 654.642C1513.63 655.583 1513.34 656.815 1512.4 657.394L1510.3 653.989ZM1493.01 654.354C1496.52 656.265 1500.99 656.5 1503.59 656.33L1503.85 660.322C1500.94 660.512 1495.57 660.305 1491.1 657.865L1493.01 654.354ZM1503.59 656.33C1506.92 656.112 1510 654.173 1510.3 653.989L1512.4 657.394C1512.12 657.565 1508.27 660.032 1503.85 660.322L1503.59 656.33Z" fill="black"/>
<path d="M1487.15 670.134C1489.33 674.633 1493.38 682.928 1493.77 685.373C1494.25 688.337 1489.35 690.511 1487.1 692.209" stroke="#F5B591" stroke-width="4" stroke-linecap="round"/>
<path d="M1489.13 703.685C1497.15 702.913 1504.58 698.243 1508.18 696.493C1508.18 696.493 1513.84 719.526 1491.99 721.551C1470.15 723.575 1469.58 702.678 1469.58 702.678C1473.96 704.005 1481.11 704.458 1489.13 703.685Z" fill="#F5B591"/>
<path d="M1412.02 677.573C1409.24 681.901 1406.67 683.742 1410.54 691.296" stroke="#F5B591" stroke-width="4" stroke-linecap="round"/>
<path d="M1612.46 777.5C1593.26 766.3 1533.79 768.833 1506.46 771.5C1472.95 807.466 1463.56 807.446 1426.46 777.5C1407.29 788.167 1356.76 810.7 1349.96 815.5C1341.46 821.5 1313.46 840 1308.46 869C1304.69 890.866 1308.13 952.833 1319.96 981.5C1331.96 979.333 1357.96 974.5 1365.96 972.5C1373.96 970.5 1392.63 962.333 1400.96 958.5C1400.79 975.167 1400.56 1014.5 1400.96 1038.5C1401.36 1062.5 1407.79 1134.33 1409.46 1156C1446.96 1150.67 1526.66 1139.1 1545.46 1135.5C1564.26 1131.9 1620.46 1115.5 1642.96 1107.5C1642.13 1082.67 1628.36 1001.4 1625.96 987C1623.56 972.6 1616.63 930.667 1612.46 909C1618.63 907.167 1633.36 902.8 1642.96 900C1652.56 897.2 1673.96 884.167 1682.46 877.5C1667.79 849.167 1647.96 798.208 1612.46 777.5Z" fill="url(#paint9_linear)"/>
<path d="M1698.46 953.5C1696.96 945 1687.96 911.5 1679.96 880.5L1611.46 908.5L1625.96 980.5L1627.46 989C1627.46 989 1515.13 1015.83 1490.46 1024L1473.96 1017.5C1459.29 1011.5 1425.56 999.5 1407.96 999.5C1390.36 999.5 1372.46 1019.33 1366.46 1027.5C1376.63 1029.5 1400.36 1030.8 1407.96 1034C1415.56 1037.2 1437.46 1035.33 1447.46 1034L1469.46 1052C1500.13 1058.5 1634.46 1047 1645.46 1044C1653.96 1041.68 1684.46 1041.5 1698.46 1024C1708.46 1011.5 1701.93 973.202 1698.46 953.5Z" fill="url(#paint10_linear)"/>
<path d="M1413.46 1036.5L1401.46 958.5L1318.46 977.5L1335.96 1058.5C1339.79 1073 1345.46 1095.5 1361.96 1109.5C1374.41 1120.06 1403.46 1126.5 1433.46 1109.5C1463.46 1092.5 1512.96 1057.5 1523.46 1051C1531.86 1045.8 1576.29 1018.83 1597.46 1006L1627.96 988.5L1620.46 952.934C1605.14 949.451 1591.87 947.365 1586.96 949C1576.16 952.6 1556.79 974.167 1548.46 984.5C1533.13 989.334 1498.86 1000.4 1484.46 1006C1470.06 1011.6 1431.13 1028.67 1413.46 1036.5Z" fill="url(#paint11_linear)"/>
<path d="M1413.46 1036.5L1401.46 958.5L1318.46 977.5L1335.96 1058.5C1339.79 1073 1345.46 1095.5 1361.96 1109.5C1374.41 1120.06 1403.46 1126.5 1433.46 1109.5C1463.46 1092.5 1512.96 1057.5 1523.46 1051C1531.86 1045.8 1576.29 1018.83 1597.46 1006L1627.96 988.5L1620.46 952.934C1605.14 949.451 1591.87 947.365 1586.96 949C1576.16 952.6 1556.79 974.167 1548.46 984.5C1533.13 989.334 1498.86 1000.4 1484.46 1006C1470.06 1011.6 1431.13 1028.67 1413.46 1036.5Z" fill="url(#paint12_linear)"/>
<path d="M1392.39 904C1393.42 910.467 1406.67 988.891 1407.28 999" stroke="black" stroke-width="3" stroke-linecap="round"/>
<path d="M1399.87 1045.5C1420.87 1030 1436.49 1026.13 1446.13 1023" stroke="black" stroke-width="3" stroke-linecap="round"/>
<path d="M1603.98 870C1605.23 876.428 1619.77 954.625 1622.68 964.325" stroke="black" stroke-width="3" stroke-linecap="round"/>
<path d="M1718.46 1287C1701.26 1248.6 1659.63 1152 1640.96 1108.5L1452.46 1145C1489.96 1221.5 1567.26 1378.8 1576.46 1396C1585.66 1413.2 1613.29 1485.83 1625.96 1520C1622.13 1527.67 1612.16 1546.3 1602.96 1559.5C1593.76 1572.7 1538.46 1693 1511.96 1751.5L1640.96 1811C1655.29 1779 1686.26 1708.1 1695.46 1680.5C1706.96 1646 1761.46 1447.5 1762.96 1422.5C1764.46 1397.5 1739.96 1335 1718.46 1287Z" fill="black"/>
<path d="M1409.46 1487V1152L1569.96 1123V1192.5L1560.46 1818.5C1552.13 1821 1526.56 1828.8 1490.96 1840C1455.36 1851.2 1421.79 1844.67 1409.46 1840V1487Z" fill="#131313"/>
<path d="M1738.84 1668.97H1757.32C1758.8 1668.97 1760.25 1669.33 1761.56 1670.03C1762.86 1670.73 1763.97 1671.74 1764.79 1672.97L1771.44 1682.94C1770.54 1681.58 1770.02 1680.01 1769.94 1678.39C1769.86 1676.76 1770.22 1675.15 1770.99 1673.71C1771.76 1672.28 1772.9 1671.08 1774.3 1670.25C1775.69 1669.41 1777.29 1668.97 1778.91 1668.97H1801.21C1802.84 1668.97 1804.43 1669.41 1805.83 1670.25C1807.22 1671.08 1808.37 1672.28 1809.13 1673.71C1809.9 1675.15 1810.26 1676.76 1810.19 1678.39C1810.11 1680.01 1809.59 1681.58 1808.69 1682.94L1815.33 1672.97C1816.15 1671.74 1817.26 1670.73 1818.57 1670.03C1819.87 1669.33 1821.33 1668.97 1822.81 1668.97H1841.28L1818 1706.22H1762.12L1738.84 1668.97Z" fill="#2F61E6"/>
<path d="M1818 1706.22H1762.12V1743.47H1818V1706.22Z" fill="#CEDBFF"/>
<path d="M1696.94 1939.03H1883.19C1886.89 1939.03 1890.45 1937.56 1893.06 1934.94C1895.68 1932.32 1897.16 1928.77 1897.16 1925.06C1897.16 1921.36 1895.68 1917.8 1893.06 1915.19C1890.45 1912.57 1886.89 1911.09 1883.19 1911.09H1878.53V1799.34C1878.53 1784.52 1872.64 1770.31 1862.17 1759.83C1851.69 1749.36 1837.48 1743.47 1822.66 1743.47H1757.47C1742.65 1743.47 1728.44 1749.36 1717.96 1759.83C1707.48 1770.31 1701.59 1784.52 1701.59 1799.34V1911.09H1696.94C1693.23 1911.09 1689.68 1912.57 1687.06 1915.19C1684.44 1917.8 1682.97 1921.36 1682.97 1925.06C1682.97 1928.77 1684.44 1932.32 1687.06 1934.94C1689.68 1937.56 1693.23 1939.03 1696.94 1939.03Z" fill="url(#paint13_linear)"/>
<path d="M1794.72 1687.59H1785.41V1706.22H1794.72V1687.59Z" fill="#2B7CD4"/>
<path d="M1794.72 1720.19H1762.12V1729.5H1794.72V1720.19Z" fill="#2F61E6" fill-opacity="0.4"/>
<path d="M1818 1720.19H1804.03V1729.5H1818V1720.19Z" fill="#2F61E6" fill-opacity="0.4"/>
<path d="M1934.41 1892.47H1785.41V1939.03H1934.41V1892.47Z" fill="#7AB555"/>
<path d="M1934.41 1934.38H1841.28V1939.03H1934.41V1934.38Z" fill="#5A8A41"/>
<path d="M1841.28 1892.47H1785.41V1939.03H1841.28V1892.47Z" fill="#5A8A41"/>
<path d="M1901.81 1892.47H1873.88V1939.03H1901.81V1892.47Z" fill="#F2E368"/>
<path d="M1785.41 1939.03H1841.28V1934.37H1832.23C1820.63 1934.37 1809.45 1930.1 1800.81 1922.37C1792.17 1914.64 1786.69 1903.99 1785.41 1892.47V1939.03Z" fill="#4B7A32"/>
<path d="M1804.03 1892.47H1897.16V1845.91H1804.03V1892.47Z" fill="#5A8A41"/>
<path d="M1804.03 1892.47H1897.16V1887.81H1850.85C1839.26 1887.81 1828.07 1883.54 1819.43 1875.81C1810.8 1868.07 1805.31 1857.43 1804.03 1845.91V1892.47Z" fill="#4B7A32"/>
<path d="M1836.62 1892.47H1864.56V1845.91H1836.62V1892.47Z" fill="#F2E368"/>
<path d="M1897.16 1892.47H1953.03V1845.91H1897.16V1892.47Z" fill="#7AB555"/>
<path d="M1953.03 1887.81H1897.16V1892.47H1953.03V1887.81Z" fill="#5A8A41"/>
<path d="M1939.06 1799.34H1790.06V1845.91H1939.06V1799.34Z" fill="#7AB555"/>
<path d="M1939.06 1841.25H1845.94V1845.91H1939.06V1841.25Z" fill="#5A8A41"/>
<path d="M1845.94 1799.34H1790.06V1845.91H1845.94V1799.34Z" fill="#5A8A41"/>
<path d="M1906.47 1799.34H1878.53V1845.91H1906.47V1799.34Z" fill="#F2E368"/>
<path d="M1790.06 1845.91H1845.94V1841.25H1836.88C1825.29 1841.25 1814.1 1836.98 1805.47 1829.24C1796.83 1821.51 1791.34 1810.87 1790.06 1799.34V1845.91Z" fill="#4B7A32"/>
<g clip-path="url(#clip2)">
<path d="M639.863 1931.14H444.863C439.546 1931.14 436 1927.59 436 1922.27V1904.55C436 1899.23 439.546 1895.68 444.863 1895.68H639.863C645.182 1895.68 648.727 1899.23 648.727 1904.55V1922.27C648.727 1927.59 645.182 1931.14 639.863 1931.14Z" fill="#F6B545"/>
<path d="M604.409 1904.55H436C436 1899.23 439.546 1895.68 444.863 1895.68H604.409V1904.55Z" fill="#FFCB5B"/>
<path d="M604.409 1904.55V1913.41C604.409 1918.73 600.863 1922.27 595.546 1922.27H436C436 1927.59 439.546 1931.14 444.863 1931.14H595.545H639.863C645.182 1931.14 648.727 1927.59 648.727 1922.27V1904.54H604.409V1904.55Z" fill="#F19920"/>
<path d="M462.591 1922.27V1908.98C462.591 1906.32 460.818 1904.54 458.159 1904.54C455.5 1904.54 453.727 1906.32 453.727 1908.98V1922.27" fill="#F19920"/>
<path d="M489.182 1922.27V1908.98C489.182 1906.32 487.409 1904.54 484.75 1904.54C482.091 1904.54 480.318 1906.32 480.318 1908.98V1922.27" fill="#F19920"/>
<path d="M515.773 1922.27V1908.98C515.773 1906.32 514 1904.54 511.341 1904.54C508.682 1904.54 506.909 1906.32 506.909 1908.98V1922.27" fill="#F19920"/>
<path d="M542.363 1922.27V1908.98C542.363 1906.32 540.591 1904.54 537.932 1904.54C535.273 1904.54 533.5 1906.32 533.5 1908.98V1922.27" fill="#F19920"/>
<path d="M568.954 1922.27V1908.98C568.954 1906.32 567.182 1904.54 564.523 1904.54C561.863 1904.54 560.091 1906.32 560.091 1908.98V1922.27" fill="#F19920"/>
<path d="M595.546 1922.27V1908.98C595.546 1906.32 593.773 1904.54 591.114 1904.54C588.455 1904.54 586.682 1906.32 586.682 1908.98V1922.27" fill="#F19920"/>
<path d="M657.591 1895.68H462.591C457.273 1895.68 453.727 1892.14 453.727 1886.82V1869.09C453.727 1863.77 457.273 1860.23 462.591 1860.23H657.591C662.909 1860.23 666.454 1863.77 666.454 1869.09V1886.82C666.454 1892.14 662.909 1895.68 657.591 1895.68Z" fill="#F6B545"/>
<path d="M622.137 1869.09H453.727C453.727 1863.77 457.273 1860.23 462.591 1860.23H622.137V1869.09Z" fill="#FFCB5B"/>
<path d="M622.137 1869.09V1877.95C622.137 1883.27 618.591 1886.82 613.273 1886.82H453.727C453.727 1892.14 457.273 1895.68 462.591 1895.68H613.273H657.591C662.909 1895.68 666.454 1892.14 666.454 1886.82V1869.09H622.137V1869.09Z" fill="#F19920"/>
<path d="M480.318 1886.82V1873.52C480.318 1870.86 478.546 1869.09 475.887 1869.09C473.227 1869.09 471.455 1870.86 471.455 1873.52V1886.82" fill="#F19920"/>
<path d="M506.909 1886.82V1873.52C506.909 1870.86 505.137 1869.09 502.478 1869.09C499.818 1869.09 498.046 1870.86 498.046 1873.52V1886.82" fill="#F19920"/>
<path d="M533.5 1886.82V1873.52C533.5 1870.86 531.727 1869.09 529.068 1869.09C526.409 1869.09 524.637 1870.86 524.637 1873.52V1886.82" fill="#F19920"/>
<path d="M560.091 1886.82V1873.52C560.091 1870.86 558.318 1869.09 555.659 1869.09C553 1869.09 551.227 1870.86 551.227 1873.52V1886.82" fill="#F19920"/>
<path d="M586.682 1886.82V1873.52C586.682 1870.86 584.909 1869.09 582.25 1869.09C579.591 1869.09 577.818 1870.86 577.818 1873.52V1886.82" fill="#F19920"/>
<path d="M613.272 1886.82V1873.52C613.272 1870.86 611.5 1869.09 608.841 1869.09C606.182 1869.09 604.409 1870.86 604.409 1873.52V1886.82" fill="#F19920"/>
<path d="M675.318 1824.77H480.318C475 1824.77 471.455 1821.23 471.455 1815.91V1798.18C471.455 1792.86 475.001 1789.32 480.318 1789.32H675.318C680.637 1789.32 684.182 1792.86 684.182 1798.18V1815.91C684.182 1821.23 680.637 1824.77 675.318 1824.77Z" fill="#F6B545"/>
<path d="M639.863 1798.18H471.454C471.454 1792.86 475 1789.32 480.318 1789.32H639.863V1798.18Z" fill="#FFCB5B"/>
<path d="M639.863 1798.18V1807.05C639.863 1812.36 636.318 1815.91 631 1815.91H471.454C471.454 1821.23 475 1824.77 480.318 1824.77H631H675.318C680.637 1824.77 684.182 1821.23 684.182 1815.91V1798.18H639.863V1798.18Z" fill="#F19920"/>
<path d="M498.046 1815.91V1802.61C498.046 1799.95 496.273 1798.18 493.614 1798.18C490.955 1798.18 489.182 1799.95 489.182 1802.61V1815.91" fill="#F19920"/>
<path d="M524.637 1815.91V1802.61C524.637 1799.95 522.864 1798.18 520.205 1798.18C517.546 1798.18 515.773 1799.95 515.773 1802.61V1815.91" fill="#F19920"/>
<path d="M551.228 1815.91V1802.61C551.228 1799.95 549.455 1798.18 546.796 1798.18C544.137 1798.18 542.364 1799.95 542.364 1802.61V1815.91" fill="#F19920"/>
<path d="M577.818 1815.91V1802.61C577.818 1799.95 576.046 1798.18 573.387 1798.18C570.728 1798.18 568.955 1799.95 568.955 1802.61V1815.91" fill="#F19920"/>
<path d="M604.409 1815.91V1802.61C604.409 1799.95 602.637 1798.18 599.978 1798.18C597.318 1798.18 595.546 1799.95 595.546 1802.61V1815.91" fill="#F19920"/>
<path d="M631 1815.91V1802.61C631 1799.95 629.228 1798.18 626.568 1798.18C623.909 1798.18 622.137 1799.95 622.137 1802.61V1815.91" fill="#F19920"/>
<path d="M657.591 1789.32H462.591C457.273 1789.32 453.727 1785.77 453.727 1780.45V1762.73C453.727 1757.41 457.273 1753.86 462.591 1753.86H657.591C662.909 1753.86 666.454 1757.41 666.454 1762.73V1780.45C666.454 1785.77 662.909 1789.32 657.591 1789.32Z" fill="#F6B545"/>
<path d="M622.137 1762.73H453.727C453.727 1757.41 457.273 1753.86 462.591 1753.86H622.137V1762.73Z" fill="#FFCB5B"/>
<path d="M622.137 1762.73V1771.59C622.137 1776.91 618.591 1780.45 613.273 1780.45H453.727C453.727 1785.77 457.273 1789.32 462.591 1789.32H613.273H657.591C662.909 1789.32 666.454 1785.77 666.454 1780.45V1762.73H622.137V1762.73Z" fill="#F19920"/>
<path d="M480.318 1780.45V1767.16C480.318 1764.5 478.546 1762.73 475.887 1762.73C473.227 1762.73 471.455 1764.5 471.455 1767.16V1780.45" fill="#F19920"/>
<path d="M506.909 1780.45V1767.16C506.909 1764.5 505.137 1762.73 502.478 1762.73C499.818 1762.73 498.046 1764.5 498.046 1767.16V1780.45" fill="#F19920"/>
<path d="M533.5 1780.45V1767.16C533.5 1764.5 531.727 1762.73 529.068 1762.73C526.409 1762.73 524.637 1764.5 524.637 1767.16V1780.45" fill="#F19920"/>
<path d="M560.091 1780.45V1767.16C560.091 1764.5 558.318 1762.73 555.659 1762.73C553 1762.73 551.227 1764.5 551.227 1767.16V1780.45" fill="#F19920"/>
<path d="M586.682 1780.45V1767.16C586.682 1764.5 584.909 1762.73 582.25 1762.73C579.591 1762.73 577.818 1764.5 577.818 1767.16V1780.45" fill="#F19920"/>
<path d="M613.272 1780.45V1767.16C613.272 1764.5 611.5 1762.73 608.841 1762.73C606.182 1762.73 604.409 1764.5 604.409 1767.16V1780.45" fill="#F19920"/>
<path d="M639.863 1860.23H444.863C439.546 1860.23 436 1856.68 436 1851.36V1833.64C436 1828.32 439.546 1824.77 444.863 1824.77H639.863C645.182 1824.77 648.727 1828.32 648.727 1833.64V1851.36C648.727 1856.68 645.182 1860.23 639.863 1860.23Z" fill="#F6B545"/>
<path d="M604.409 1833.64H436C436 1828.32 439.546 1824.77 444.863 1824.77H604.409V1833.64Z" fill="#FFCB5B"/>
<path d="M604.409 1833.64V1842.5C604.409 1847.82 600.863 1851.36 595.546 1851.36H436C436 1856.68 439.546 1860.23 444.863 1860.23H595.545H639.863C645.182 1860.23 648.727 1856.68 648.727 1851.36V1833.64H604.409V1833.64Z" fill="#F19920"/>
<path d="M462.591 1851.36V1838.07C462.591 1835.41 460.818 1833.64 458.159 1833.64C455.5 1833.64 453.727 1835.41 453.727 1838.07V1851.36" fill="#F19920"/>
<path d="M489.182 1851.36V1838.07C489.182 1835.41 487.409 1833.64 484.75 1833.64C482.091 1833.64 480.318 1835.41 480.318 1838.07V1851.36" fill="#F19920"/>
<path d="M515.773 1851.36V1838.07C515.773 1835.41 514 1833.64 511.341 1833.64C508.682 1833.64 506.909 1835.41 506.909 1838.07V1851.36" fill="#F19920"/>
<path d="M542.363 1851.36V1838.07C542.363 1835.41 540.591 1833.64 537.932 1833.64C535.273 1833.64 533.5 1835.41 533.5 1838.07V1851.36" fill="#F19920"/>
<path d="M568.954 1851.36V1838.07C568.954 1835.41 567.182 1833.64 564.523 1833.64C561.863 1833.64 560.091 1835.41 560.091 1838.07V1851.36" fill="#F19920"/>
<path d="M595.546 1851.36V1838.07C595.546 1835.41 593.773 1833.64 591.114 1833.64C588.455 1833.64 586.682 1835.41 586.682 1838.07V1851.36" fill="#F19920"/>
<path d="M808.273 1873.52C796.75 1865.54 790.545 1852.25 790.545 1838.07C790.545 1784 769.273 1732.59 731.158 1694.48L693.045 1656.36V1629.77L724.068 1590.77C726.728 1587.23 728.5 1582.8 728.5 1578.36C728.5 1567.73 719.637 1558.86 709 1558.86H675.318L666.455 1576.59L648.728 1558.86H606.182C595.545 1558.86 586.682 1567.73 586.682 1578.36C586.682 1582.79 588.454 1587.23 591.113 1590.77L622.136 1629.77V1656.36L584.023 1694.48C545.909 1732.59 524.636 1784 524.636 1838.07C524.636 1852.25 518.432 1865.54 506.908 1873.52C495.385 1881.5 489.181 1894.79 489.181 1908.98C489.181 1921.39 498.931 1931.14 511.34 1931.14H803.84C816.249 1931.14 825.999 1921.39 825.999 1908.98C826 1894.8 819.796 1881.5 808.273 1873.52Z" fill="#2F61E6"/>
<path d="M808.273 1873.52C796.75 1864.66 790.545 1851.36 790.545 1837.18C791.432 1781.34 765.727 1729.04 726.727 1689.16L693.045 1656.36V1629.77L724.068 1590.77C729.386 1584.57 730.272 1575.7 725.84 1567.73C722.294 1561.52 715.203 1558.86 708.113 1558.86C701.908 1558.86 698.363 1565.95 700.135 1571.27C701.022 1573.04 701.908 1575.7 701.908 1578.36C701.908 1582.79 700.135 1587.23 697.476 1590.77L666.453 1629.77V1656.36H622.135L613.272 1665.23H675.318L708.113 1698.02C744.454 1734.36 758.636 1784 755.091 1834.52C754.204 1849.59 760.409 1863.77 771.932 1872.64C772.818 1873.52 773.704 1874.41 774.591 1874.41C787.887 1888.59 776.363 1912.52 755.977 1912.52H490.068C491.841 1922.27 500.705 1930.25 511.341 1930.25H768.387H790.546H803.842C816.25 1930.25 826 1920.5 826 1908.09V1906.32C826 1893.02 818.909 1881.5 808.273 1873.52Z" fill="#4978F5"/>
<path d="M697.477 1656.36H617.704C610.613 1656.36 604.408 1650.16 604.408 1643.07C604.408 1635.98 610.613 1629.77 617.704 1629.77H697.477C704.568 1629.77 710.772 1635.98 710.772 1643.07C710.772 1650.16 704.568 1656.36 697.477 1656.36Z" fill="#FFCB5B"/>
<path d="M617.704 1629.77H662.023C664.682 1629.77 666.454 1631.54 666.454 1634.2C666.454 1636.86 664.682 1638.64 662.023 1638.64H617.704C615.045 1638.64 613.273 1636.86 613.273 1634.2C613.273 1631.55 615.046 1629.77 617.704 1629.77Z" fill="#FFE278"/>
<path d="M697.478 1629.77H693.046V1638.64C693.046 1643.95 689.5 1647.5 684.182 1647.5H605.296C607.068 1652.82 612.387 1656.36 617.705 1656.36H697.478C704.568 1656.36 710.773 1650.16 710.773 1643.07C710.773 1635.98 704.568 1629.77 697.478 1629.77Z" fill="#F6B545"/>
<path d="M670.887 1647.5H697.478C700.137 1647.5 701.909 1649.27 701.909 1651.93C701.909 1654.59 700.137 1656.36 697.478 1656.36H670.887C668.228 1656.36 666.455 1654.59 666.455 1651.93C666.454 1649.27 668.228 1647.5 670.887 1647.5Z" fill="#F19920"/>
<path d="M666.455 1656.36H648.728V1727.27H666.455V1656.36Z" fill="#F6B545"/>
<path d="M648.728 1656.36V1665.23H657.591V1727.27H666.454V1665.23V1656.36H648.728Z" fill="#F19920"/>
<path d="M719.637 1789.32C719.637 1823.89 692.159 1851.36 657.591 1851.36V1860.23C696.591 1860.23 728.5 1828.32 728.5 1789.32H719.637Z" fill="#F19920"/>
<path d="M657.591 1860.23C696.753 1860.23 728.5 1828.48 728.5 1789.32C728.5 1750.16 696.753 1718.41 657.591 1718.41C618.429 1718.41 586.682 1750.16 586.682 1789.32C586.682 1828.48 618.429 1860.23 657.591 1860.23Z" fill="#F6B545"/>
<path d="M711.659 1744.11C722.296 1756.52 728.5 1771.59 728.5 1789.32C728.5 1828.32 696.591 1860.23 657.591 1860.23C639.863 1860.23 624.795 1854.02 612.387 1843.39C625.683 1859.34 645.183 1869.09 666.455 1869.09C705.455 1869.09 737.364 1837.18 737.364 1798.18C737.363 1776.02 727.613 1756.52 711.659 1744.11Z" fill="#B06328"/>
<path d="M657.591 1851.36C691.858 1851.36 719.637 1823.59 719.637 1789.32C719.637 1755.05 691.858 1727.27 657.591 1727.27C623.324 1727.27 595.545 1755.05 595.545 1789.32C595.545 1823.59 623.324 1851.36 657.591 1851.36Z" fill="#FFCB5B"/>
<path d="M657.591 1727.27V1718.41C618.591 1718.41 586.682 1750.32 586.682 1789.32H595.545C595.546 1754.75 623.022 1727.27 657.591 1727.27Z" fill="#FFE27A"/>
<path d="M666.454 1780.45H648.727C643.408 1780.45 639.863 1776.91 639.863 1771.59C639.863 1766.27 643.409 1762.73 648.727 1762.73H675.318C680.636 1762.73 684.181 1759.18 684.181 1753.86C684.181 1748.55 680.635 1745 675.318 1745H666.454C666.454 1739.68 662.908 1736.14 657.591 1736.14C652.273 1736.14 648.728 1739.68 648.728 1745C633.659 1745 622.137 1756.52 622.137 1771.59C622.137 1786.66 633.659 1798.18 648.728 1798.18H666.455C671.773 1798.18 675.318 1801.73 675.318 1807.05C675.318 1812.36 671.773 1815.91 666.455 1815.91H639.864C634.546 1815.91 631.001 1819.45 631.001 1824.77C631.001 1830.09 634.547 1833.64 639.864 1833.64H648.728C648.728 1838.95 652.273 1842.5 657.591 1842.5C662.909 1842.5 666.454 1838.95 666.454 1833.64C681.523 1833.64 693.045 1822.11 693.045 1807.04C693.045 1791.98 681.523 1780.45 666.454 1780.45Z" fill="#E78825"/>
</g>
<path d="M1953.71 1932.59C1903.29 1932.59 1862.41 1891.71 1862.41 1841.29C1862.41 1790.87 1903.29 1750 1953.71 1750C2004.13 1750 2045 1790.87 2045 1841.29C2045 1891.71 2004.13 1932.59 1953.71 1932.59Z" fill="#F6B545"/>
<path d="M1884.09 1783.09C1870.4 1799.07 1862.41 1818.47 1862.41 1841.29C1862.41 1891.51 1903.49 1932.59 1953.71 1932.59C1976.53 1932.59 1995.93 1924.6 2011.91 1910.91C1994.79 1931.45 1969.68 1944 1942.29 1944C1892.08 1944 1851 1902.92 1851 1852.7C1851 1824.18 1863.55 1799.07 1884.09 1783.09Z" fill="#B06328"/>
<path d="M1953.71 1921.18C1909.59 1921.18 1873.82 1885.41 1873.82 1841.29C1873.82 1797.18 1909.59 1761.41 1953.71 1761.41C1997.82 1761.41 2033.59 1797.18 2033.59 1841.29C2033.59 1885.41 1997.82 1921.18 1953.71 1921.18Z" fill="#FFCB5B"/>
<path d="M1953.71 1761.41V1750C2003.92 1750 2045 1791.08 2045 1841.29H2033.59C2033.59 1796.79 1998.21 1761.41 1953.71 1761.41Z" fill="#FFE27A"/>
<path d="M1965.12 1829.88H1942.29C1935.45 1829.88 1930.88 1825.32 1930.88 1818.47C1930.88 1811.62 1935.45 1807.06 1942.29 1807.06H1976.53C1983.38 1807.06 1987.94 1802.49 1987.94 1795.65C1987.94 1788.8 1983.37 1784.24 1976.53 1784.24H1965.12C1965.12 1777.39 1960.55 1772.82 1953.71 1772.82C1946.86 1772.82 1942.29 1777.39 1942.29 1784.24C1922.89 1784.24 1908.06 1799.07 1908.06 1818.47C1908.06 1837.87 1922.89 1852.71 1942.29 1852.71H1965.12C1971.97 1852.71 1976.53 1857.27 1976.53 1864.12C1976.53 1870.96 1971.96 1875.53 1965.12 1875.53H1930.88C1924.04 1875.53 1919.47 1880.09 1919.47 1886.94C1919.47 1893.79 1924.04 1898.35 1930.88 1898.35H1942.29C1942.29 1905.2 1946.86 1909.76 1953.71 1909.76C1960.55 1909.76 1965.12 1905.2 1965.12 1898.35C1984.52 1898.35 1999.35 1883.52 1999.35 1864.12C1999.35 1844.72 1984.52 1829.88 1965.12 1829.88Z" fill="#E78825"/>
<path d="M1909.77 1447.47C1889.75 1447.47 1873.53 1431.25 1873.53 1411.23C1873.53 1391.22 1889.75 1375 1909.77 1375C1929.78 1375 1946 1391.22 1946 1411.23C1946 1431.25 1929.78 1447.47 1909.77 1447.47Z" fill="#F6B545"/>
<path d="M1882.14 1388.13C1876.7 1394.48 1873.53 1402.18 1873.53 1411.23C1873.53 1431.16 1889.84 1447.47 1909.76 1447.47C1918.82 1447.47 1926.52 1444.3 1932.86 1438.86C1926.07 1447.02 1916.11 1452 1905.23 1452C1885.31 1452 1869 1435.69 1869 1415.76C1869 1404.44 1873.98 1394.48 1882.14 1388.13Z" fill="#B06328"/>
<path d="M1909.76 1442.94C1892.25 1442.94 1878.06 1428.75 1878.06 1411.23C1878.06 1393.72 1892.25 1379.53 1909.76 1379.53C1927.28 1379.53 1941.47 1393.72 1941.47 1411.23C1941.47 1428.75 1927.28 1442.94 1909.76 1442.94Z" fill="#FFCB5B"/>
<path d="M1909.77 1379.53V1375C1929.69 1375 1946 1391.31 1946 1411.23H1941.47C1941.47 1393.57 1927.43 1379.53 1909.77 1379.53Z" fill="#FFE27A"/>
<path d="M1914.29 1406.71H1905.23C1902.52 1406.71 1900.71 1404.89 1900.71 1402.18C1900.71 1399.46 1902.52 1397.65 1905.23 1397.65H1918.82C1921.54 1397.65 1923.35 1395.83 1923.35 1393.12C1923.35 1390.4 1921.54 1388.59 1918.82 1388.59H1914.29C1914.29 1385.87 1912.48 1384.06 1909.76 1384.06C1907.05 1384.06 1905.24 1385.87 1905.24 1388.59C1897.54 1388.59 1891.65 1394.48 1891.65 1402.18C1891.65 1409.88 1897.54 1415.76 1905.24 1415.76H1914.29C1917.01 1415.76 1918.82 1417.58 1918.82 1420.29C1918.82 1423.01 1917.01 1424.82 1914.29 1424.82H1900.71C1897.99 1424.82 1896.18 1426.63 1896.18 1429.35C1896.18 1432.07 1897.99 1433.88 1900.71 1433.88H1905.24C1905.24 1436.6 1907.05 1438.41 1909.76 1438.41C1912.48 1438.41 1914.29 1436.6 1914.29 1433.88C1921.99 1433.88 1927.88 1427.99 1927.88 1420.29C1927.88 1412.59 1921.99 1406.71 1914.29 1406.71Z" fill="#E78825"/>
<path d="M1497.64 553.215L1497.92 524" stroke="url(#paint14_linear)" stroke-width="8" stroke-linecap="round"/>
<path d="M1519.14 568.781L1538 548" stroke="url(#paint15_linear)" stroke-width="8" stroke-linecap="round"/>
<path d="M1532 595.06L1558.77 596.933" stroke="url(#paint16_linear)" stroke-width="8" stroke-linecap="round"/>
<path d="M283.872 1027.63C275.565 1013.52 261.503 977.799 271.709 947.79C281.916 917.782 290.598 907.817 293.663 906.585" stroke="#2F61E6" stroke-opacity="0.4" stroke-width="6" stroke-linecap="round" stroke-dasharray="20 20"/>
<path d="M377.5 1468C392.227 1460.84 401.395 1427.14 409.5 1396.5C420.609 1354.5 394.776 1314.21 392.904 1311.49" stroke="#2F61E6" stroke-opacity="0.4" stroke-width="6" stroke-linecap="round" stroke-dasharray="20 20"/>
<path d="M1930.73 1350.51C1945.46 1343.35 1954.63 1309.65 1962.73 1279.01C1973.84 1237.01 1948.01 1196.72 1946.14 1194" stroke="#2F61E6" stroke-opacity="0.4" stroke-width="6" stroke-linecap="round" stroke-dasharray="20 20"/>
<path d="M1802.59 1628.5C1794.42 1614.31 1805.75 1581.27 1816.24 1551.36C1830.62 1510.37 1874.62 1491.53 1877.7 1490.33" stroke="#2F61E6" stroke-opacity="0.4" stroke-width="6" stroke-linecap="round" stroke-dasharray="20 20"/>
</g>
<defs>
<filter id="filter0_d" x="569.502" y="739" width="919.997" height="522.5" filterUnits="userSpaceOnUse" color-interpolation-filters="sRGB">
<feFlood flood-opacity="0" result="BackgroundImageFix"/>
<feColorMatrix in="SourceAlpha" type="matrix" values="0 0 0 0 0 0 0 0 0 0 0 0 0 0 0 0 0 0 127 0"/>
<feOffset dx="90" dy="90"/>
<feGaussianBlur stdDeviation="60"/>
<feColorMatrix type="matrix" values="0 0 0 0 0.184314 0 0 0 0 0.380392 0 0 0 0 0.901961 0 0 0 0.14 0"/>
<feBlend mode="normal" in2="BackgroundImageFix" result="effect1_dropShadow"/>
<feBlend mode="normal" in="SourceGraphic" in2="effect1_dropShadow" result="shape"/>
</filter>
<filter id="filter1_d" x="528.002" y="1100" width="919.997" height="522.5" filterUnits="userSpaceOnUse" color-interpolation-filters="sRGB">
<feFlood flood-opacity="0" result="BackgroundImageFix"/>
<feColorMatrix in="SourceAlpha" type="matrix" values="0 0 0 0 0 0 0 0 0 0 0 0 0 0 0 0 0 0 127 0"/>
<feOffset dx="90" dy="90"/>
<feGaussianBlur stdDeviation="60"/>
<feColorMatrix type="matrix" values="0 0 0 0 0.184314 0 0 0 0 0.380392 0 0 0 0 0.901961 0 0 0 0.14 0"/>
<feBlend mode="normal" in2="BackgroundImageFix" result="effect1_dropShadow"/>
<feBlend mode="normal" in="SourceGraphic" in2="effect1_dropShadow" result="shape"/>
</filter>
<linearGradient id="paint0_linear" x1="927" y1="1616" x2="1353.54" y2="-380.384" gradientUnits="userSpaceOnUse">
<stop stop-color="#2F61E6" stop-opacity="0.4"/>
<stop offset="1" stop-color="#EAEEF9" stop-opacity="0"/>
</linearGradient>
<linearGradient id="paint1_linear" x1="1139.5" y1="394" x2="1026" y2="1859.5" gradientUnits="userSpaceOnUse">
<stop stop-color="#2F61E6" stop-opacity="0.4"/>
<stop offset="1" stop-color="white" stop-opacity="0"/>
</linearGradient>
<linearGradient id="paint2_linear" x1="714.488" y1="880.161" x2="857.147" y2="819.425" gradientUnits="userSpaceOnUse">
<stop stop-color="#2F61E6"/>
<stop offset="1" stop-color="#88A8FF"/>
</linearGradient>
<linearGradient id="paint3_linear" x1="672.488" y1="1251.16" x2="815.147" y2="1190.43" gradientUnits="userSpaceOnUse">
<stop stop-color="#2F61E6"/>
<stop offset="1" stop-color="#88A8FF"/>
</linearGradient>
<linearGradient id="paint4_linear" x1="2104.45" y1="3401.27" x2="2365.89" y2="234.991" gradientUnits="userSpaceOnUse">
<stop stop-color="#93B0FF"/>
<stop offset="1" stop-color="white" stop-opacity="0"/>
</linearGradient>
<linearGradient id="paint5_linear" x1="1616.67" y1="1763.5" x2="1616.67" y2="1939.74" gradientUnits="userSpaceOnUse">
<stop stop-color="#799DFF"/>
<stop offset="1" stop-color="#CEDBFF"/>
</linearGradient>
<linearGradient id="paint6_linear" x1="1507.46" y1="1767" x2="1538.46" y2="1900" gradientUnits="userSpaceOnUse">
<stop stop-color="#93B0FF"/>
<stop offset="1" stop-color="#E2EAFF"/>
</linearGradient>
<radialGradient id="paint7_radial" cx="0" cy="0" r="1" gradientUnits="userSpaceOnUse" gradientTransform="translate(19.9865 20.5136) rotate(94.4106) scale(19.4917 23.8936)">
<stop stop-color="#F9BFA2"/>
<stop offset="1" stop-color="#F9BFA2" stop-opacity="0"/>
</radialGradient>
<radialGradient id="paint8_radial" cx="0" cy="0" r="1" gradientUnits="userSpaceOnUse" gradientTransform="translate(24.8317 25.4866) rotate(94.4106) scale(24.2169 29.6859)">
<stop stop-color="#F9BFA2"/>
<stop offset="1" stop-color="#F9BFA2" stop-opacity="0"/>
</radialGradient>
<linearGradient id="paint9_linear" x1="1707.96" y1="857" x2="977.459" y2="583" gradientUnits="userSpaceOnUse">
<stop stop-color="#2F61E6"/>
<stop offset="1" stop-color="#93B0FF"/>
</linearGradient>
<linearGradient id="paint10_linear" x1="1703.46" y1="980.5" x2="1391.46" y2="1142" gradientUnits="userSpaceOnUse">
<stop stop-color="#FDDAC6"/>
<stop offset="1" stop-color="#F5B591"/>
</linearGradient>
<linearGradient id="paint11_linear" x1="1648.96" y1="977" x2="1557.96" y2="973" gradientUnits="userSpaceOnUse">
<stop stop-color="#F5B591"/>
<stop offset="1" stop-color="#FDDAC6"/>
</linearGradient>
<linearGradient id="paint12_linear" x1="1523.96" y1="1080" x2="1318.46" y2="995.5" gradientUnits="userSpaceOnUse">
<stop stop-color="#FDDAC6" stop-opacity="0"/>
<stop offset="1" stop-color="#F5B591"/>
</linearGradient>
<linearGradient id="paint13_linear" x1="1790" y1="1827" x2="1644.5" y2="1703.5" gradientUnits="userSpaceOnUse">
<stop stop-color="#2F61E6"/>
<stop offset="1" stop-color="#93B0FF"/>
</linearGradient>
<linearGradient id="paint14_linear" x1="1500.74" y1="524.713" x2="1493.78" y2="552.24" gradientUnits="userSpaceOnUse">
<stop stop-color="#2F61E6"/>
<stop offset="1" stop-color="#93B0FF"/>
</linearGradient>
<linearGradient id="paint15_linear" x1="1539.57" y1="550.65" x2="1516.5" y2="564.33" gradientUnits="userSpaceOnUse">
<stop stop-color="#2F61E6"/>
<stop offset="1" stop-color="#93B0FF"/>
</linearGradient>
<linearGradient id="paint16_linear" x1="1557.96" y1="599.963" x2="1532.5" y2="593.195" gradientUnits="userSpaceOnUse">
<stop stop-color="#2F61E6"/>
<stop offset="1" stop-color="#93B0FF"/>
</linearGradient>
<clipPath id="clip0">
<rect width="2461" height="2315" fill="white"/>
</clipPath>
<clipPath id="clip1">
<rect width="1495" height="1495" fill="white" transform="matrix(-1 0 0 1 1495 437)"/>
</clipPath>
<clipPath id="clip2">
<rect width="390" height="390" fill="white" transform="translate(436 1550)"/>
</clipPath>
</defs>
</svg>
