<svg width="1542" height="1472" viewBox="0 0 1542 1472" fill="none" xmlns="http://www.w3.org/2000/svg">
<g clip-path="url(#clip0)">
<path d="M355.866 1185.57C316.688 1249.57 139.465 1595.35 54.5 1786.5H488.624L572.998 1221.25L870.048 1176.39C916.661 1204.13 990.617 1264.35 1016.11 1264.35C1041.6 1264.35 1054.85 1263.81 1062.72 1256.24C1077 1242.51 1071.33 1216.32 1051.51 1196C1031.68 1175.68 1012.25 1144.14 982.154 1140.72C1020.51 1140.72 1043 1185.57 1087.5 1159.5C1108.88 1146.97 1099.89 1096.27 1051.51 1074.11C1023.66 1061.35 793.08 913.72 709.295 926.691C625.511 939.662 552.937 951.553 488.624 1000.19C428.223 1045.88 404.839 1105.59 355.866 1185.57Z" fill="url(#paint0_linear)"/>
<path d="M355.866 1185.57C316.688 1249.57 139.465 1595.35 54.5 1786.5H488.624L572.998 1221.25L870.048 1176.39C916.661 1204.13 990.617 1264.35 1016.11 1264.35C1041.6 1264.35 1054.85 1263.81 1062.72 1256.24C1077 1242.51 1071.33 1216.32 1051.51 1196C1031.68 1175.68 1012.25 1144.14 982.154 1140.72C1020.51 1140.72 1043 1185.57 1087.5 1159.5C1108.88 1146.97 1099.89 1096.27 1051.51 1074.11C1023.66 1061.35 793.08 913.72 709.295 926.691C625.511 939.662 552.937 951.553 488.624 1000.19C428.223 1045.88 404.839 1105.59 355.866 1185.57Z" fill="url(#paint1_linear)"/>
<path d="M1030 1061.5C1043.67 1068.5 1071.16 1085.47 1078 1091.5C1086.5 1099 1095.5 1115.5 1096.5 1123" stroke="black" stroke-width="4" stroke-linecap="round"/>
<path d="M1016.21 1163C1028.38 1172.37 1052.31 1194.07 1057.94 1201.25C1064.93 1210.17 1070.77 1228.04 1070.38 1235.6" stroke="black" stroke-width="4" stroke-linecap="round"/>
<rect x="539.433" y="325" width="525.195" height="970.516" rx="80" transform="rotate(2.8014 539.433 325)" fill="#2F61E6"/>
<rect x="576.156" y="361.852" width="449.835" height="900.49" rx="50" transform="rotate(2.8014 576.156 361.852)" fill="white"/>
<path d="M387.15 1681.79C364.501 1698.66 354.907 1734.46 352.941 1770.5H199V1546.1L505.112 1199.03C580.214 1162.63 716.854 1092.04 756.961 1085.5C783.503 1081.18 859.449 1105.72 884.36 1118.48C904.414 1128.75 919.749 1140.11 919.749 1182.27C919.749 1224.44 833.99 1227.79 821.251 1230.39C808.511 1232.98 783.699 1225.34 772.886 1221.2C771.117 1222.64 765.454 1228.87 756.961 1242.28C748.468 1255.69 723.735 1294.72 716.854 1299.58C828.132 1305.89 882.461 1315 919.749 1315C953.958 1315 952.189 1352.84 908.543 1372.3C877.004 1386.37 853.69 1383.38 795.889 1385.54C738.087 1387.7 702.26 1405.21 671 1429C639.74 1452.79 616.733 1502.85 595.5 1546.1C574.267 1589.35 415.461 1660.71 387.15 1681.79Z" fill="url(#paint2_linear)"/>
<path d="M818.5 1171C804.5 1161.4 812.667 1117.33 818.5 1096.5L904.5 1074.5L939.5 1180C931.333 1179.5 912.9 1178.8 904.5 1180C894 1181.5 836 1183 818.5 1171Z" fill="white" fill-opacity="0.56"/>
<path d="M793.792 414.713L686.188 410.143C671.331 409.512 658.774 421.045 658.143 435.902C657.512 450.759 669.045 463.314 683.902 463.945L791.507 468.515C806.364 469.146 818.921 457.613 819.552 442.758C820.183 427.901 808.649 415.344 793.792 414.713Z" fill="#EAEEF9" fill-opacity="0.89"/>
<path d="M899.113 473.096C884.255 472.465 872.722 459.909 873.353 445.051C873.985 430.193 886.541 418.66 901.398 419.291C916.256 419.922 927.789 432.479 927.158 447.336C926.527 462.194 913.971 473.727 899.113 473.096Z" fill="#EAEEF9" fill-opacity="0.89"/>
<g filter="url(#filter0_d)">
<rect x="904.991" y="622" width="496" height="131" rx="27" transform="rotate(2.18368 904.991 622)" fill="url(#paint3_linear)"/>
</g>
<path d="M949.068 683.78C950.523 682.217 952.316 681.476 954.448 681.557C958.5 681.712 960.466 684.103 960.349 688.731L959.875 701.149L955.607 700.986L956.074 688.726C956.124 687.414 955.873 686.478 955.319 685.918C954.778 685.346 953.957 685.039 952.857 684.997C951.147 684.932 949.841 685.644 948.94 687.135L948.422 700.713L944.154 700.55L945.183 673.569L949.451 673.732L949.068 683.78ZM973.332 678.003L973.156 682.622L976.511 682.75L976.391 685.912L973.036 685.784L972.631 696.394C972.603 697.12 972.724 697.652 972.992 697.99C973.273 698.318 973.782 698.496 974.52 698.524C975.012 698.542 975.512 698.503 976.02 698.405L975.894 701.707C974.912 701.94 973.97 702.038 973.068 702.004C969.789 701.879 968.219 700.007 968.357 696.389L968.767 685.621L965.641 685.502L965.761 682.34L968.888 682.46L969.064 677.84L973.332 678.003ZM988.19 678.569L988.014 683.189L991.369 683.317L991.248 686.479L987.893 686.351L987.489 696.96C987.461 697.686 987.581 698.218 987.85 698.557C988.131 698.884 988.64 699.062 989.378 699.09C989.869 699.109 990.369 699.069 990.877 698.971L990.751 702.274C989.769 702.506 988.827 702.605 987.926 702.571C984.647 702.446 983.076 700.574 983.214 696.955L983.625 686.188L980.498 686.069L980.619 682.907L983.745 683.026L983.921 678.406L988.19 678.569ZM1013.8 693.882C1013.68 696.821 1012.93 699.144 1011.52 700.849C1010.12 702.543 1008.3 703.347 1006.05 703.262C1003.97 703.182 1002.32 702.434 1001.12 701.016L1000.78 710.027L996.51 709.864L997.514 683.551L1001.45 683.701L1001.55 685.64C1002.86 684.165 1004.59 683.469 1006.75 683.551C1009.07 683.64 1010.85 684.576 1012.1 686.359C1013.35 688.131 1013.92 690.551 1013.81 693.619L1013.8 693.882ZM1009.56 693.351C1009.63 691.454 1009.31 689.935 1008.59 688.793C1007.88 687.652 1006.83 687.055 1005.42 687.001C1003.68 686.935 1002.4 687.607 1001.58 689.019L1001.26 697.45C1001.97 698.955 1003.21 699.741 1004.97 699.808C1006.33 699.86 1007.41 699.356 1008.21 698.295C1009.02 697.224 1009.47 695.576 1009.56 693.351ZM1022.69 699.041C1023.49 699.072 1024.09 699.323 1024.51 699.797C1024.93 700.258 1025.12 700.828 1025.09 701.508C1025.07 702.175 1024.83 702.723 1024.38 703.152C1023.93 703.568 1023.31 703.761 1022.51 703.731C1021.75 703.702 1021.16 703.462 1020.73 703.012C1020.3 702.562 1020.1 701.997 1020.12 701.318C1020.15 700.639 1020.39 700.085 1020.84 699.657C1021.29 699.216 1021.91 699.011 1022.69 699.041ZM1023.26 684.128C1024.06 684.159 1024.66 684.41 1025.08 684.884C1025.49 685.345 1025.69 685.915 1025.66 686.595C1025.64 687.262 1025.4 687.81 1024.95 688.239C1024.5 688.655 1023.88 688.848 1023.08 688.818C1022.32 688.789 1021.72 688.549 1021.3 688.099C1020.87 687.649 1020.67 687.084 1020.69 686.405C1020.72 685.726 1020.96 685.172 1021.41 684.744C1021.86 684.303 1022.48 684.098 1023.26 684.128ZM1033.5 706.155L1030.14 706.028L1041.27 678.64L1044.62 678.768L1033.5 706.155ZM1046.25 706.642L1042.89 706.514L1054.02 679.127L1057.37 679.255L1046.25 706.642ZM1068.48 681.631L1068.31 686.251L1071.66 686.378L1071.54 689.54L1068.19 689.412L1067.78 700.022C1067.76 700.748 1067.88 701.28 1068.14 701.619C1068.43 701.946 1068.93 702.124 1069.67 702.152C1070.16 702.171 1070.66 702.131 1071.17 702.033L1071.05 705.335C1070.06 705.568 1069.12 705.667 1068.22 705.632C1064.94 705.507 1063.37 703.636 1063.51 700.017L1063.92 689.25L1060.79 689.13L1060.91 685.969L1064.04 686.088L1064.22 681.468L1068.48 681.631ZM1088.45 706.052C1088.28 705.682 1088.13 705.084 1088.02 704.259C1086.61 705.624 1084.92 706.269 1082.95 706.194C1081.05 706.121 1079.51 705.517 1078.34 704.382C1077.18 703.247 1076.63 701.878 1076.69 700.273C1076.77 698.248 1077.58 696.725 1079.12 695.704C1080.67 694.673 1082.84 694.211 1085.64 694.317L1088.26 694.417L1088.31 693.17C1088.34 692.186 1088.1 691.391 1087.57 690.785C1087.04 690.166 1086.22 689.836 1085.09 689.793C1084.12 689.756 1083.32 689.972 1082.68 690.44C1082.04 690.896 1081.7 691.499 1081.67 692.249L1077.41 692.086C1077.45 691.044 1077.83 690.085 1078.55 689.209C1079.28 688.322 1080.24 687.644 1081.45 687.174C1082.66 686.704 1084 686.497 1085.46 686.553C1087.69 686.638 1089.44 687.267 1090.72 688.442C1092 689.605 1092.62 691.2 1092.58 693.227L1092.25 701.799C1092.19 703.509 1092.37 704.882 1092.82 705.919L1092.8 706.218L1088.45 706.052ZM1083.88 702.799C1084.72 702.831 1085.52 702.656 1086.27 702.275C1087.04 701.893 1087.62 701.364 1088.02 700.688L1088.16 697.105L1085.86 697.017C1084.27 696.957 1083.08 697.186 1082.26 697.706C1081.44 698.226 1081.01 698.99 1080.97 699.997C1080.94 700.817 1081.19 701.483 1081.71 701.995C1082.24 702.496 1082.96 702.764 1083.88 702.799ZM1116.43 697.796C1116.32 700.735 1115.56 703.057 1114.16 704.763C1112.76 706.457 1110.93 707.261 1108.69 707.175C1106.6 707.096 1104.96 706.347 1103.76 704.929L1103.41 713.94L1099.15 713.778L1100.15 687.465L1104.08 687.615L1104.19 689.554C1105.5 688.079 1107.23 687.383 1109.38 687.465C1111.7 687.553 1113.48 688.489 1114.73 690.272C1115.99 692.044 1116.56 694.464 1116.44 697.532L1116.43 697.796ZM1112.19 697.265C1112.27 695.368 1111.94 693.848 1111.22 692.707C1110.52 691.566 1109.46 690.968 1108.06 690.915C1106.31 690.848 1105.03 691.521 1104.21 692.932L1103.89 701.363C1104.61 702.868 1105.85 703.654 1107.6 703.721C1108.96 703.773 1110.04 703.269 1110.84 702.209C1111.66 701.138 1112.11 699.49 1112.19 697.265ZM1127.12 707.526L1122.85 707.364L1123.58 688.358L1127.85 688.521L1127.12 707.526ZM1123.5 683.412C1123.53 682.756 1123.75 682.22 1124.18 681.802C1124.62 681.385 1125.22 681.191 1126 681.22C1126.77 681.25 1127.36 681.489 1127.76 681.939C1128.17 682.388 1128.36 682.941 1128.33 683.596C1128.31 684.24 1128.08 684.771 1127.64 685.188C1127.2 685.594 1126.6 685.782 1125.82 685.752C1125.05 685.723 1124.46 685.489 1124.06 685.052C1123.66 684.603 1123.48 684.056 1123.5 683.412ZM1139.35 688.959L1139.39 691.16C1140.86 689.515 1142.74 688.737 1145.02 688.824C1148.98 688.975 1150.9 691.317 1150.8 695.852L1150.32 708.411L1146.05 708.248L1146.52 695.935C1146.57 694.729 1146.34 693.829 1145.84 693.235C1145.34 692.63 1144.5 692.305 1143.32 692.26C1141.6 692.194 1140.29 692.924 1139.39 694.449L1138.87 707.974L1134.6 707.812L1135.33 688.806L1139.35 688.959ZM1162.74 689.851L1161.95 710.543C1161.88 712.487 1161.34 713.95 1160.33 714.932C1159.33 715.926 1157.9 716.387 1156.03 716.316C1155.25 716.286 1154.5 716.158 1153.78 715.931L1153.91 712.559C1154.35 712.681 1154.85 712.753 1155.41 712.774C1156.83 712.828 1157.59 712.083 1157.68 710.539L1158.47 689.689L1162.74 689.851ZM1158.29 684.739C1158.32 684.083 1158.55 683.546 1158.97 683.129C1159.41 682.711 1160.01 682.518 1160.79 682.547C1161.56 682.576 1162.15 682.816 1162.55 683.265C1162.96 683.715 1163.15 684.267 1163.12 684.923C1163.1 685.567 1162.87 686.098 1162.43 686.515C1161.99 686.92 1161.39 687.108 1160.62 687.079C1159.84 687.049 1159.25 686.816 1158.85 686.378C1158.45 685.929 1158.27 685.383 1158.29 684.739ZM1180.83 709.574C1180.65 709.204 1180.51 708.607 1180.4 707.781C1178.99 709.147 1177.3 709.792 1175.33 709.717C1173.43 709.644 1171.89 709.04 1170.72 707.905C1169.56 706.77 1169.01 705.4 1169.07 703.796C1169.15 701.77 1169.96 700.247 1171.5 699.227C1173.05 698.195 1175.22 697.733 1178.02 697.84L1180.64 697.94L1180.69 696.692C1180.72 695.709 1180.48 694.914 1179.95 694.307C1179.42 693.689 1178.6 693.358 1177.47 693.316C1176.5 693.278 1175.7 693.494 1175.06 693.962C1174.42 694.419 1174.08 695.022 1174.05 695.771L1169.79 695.608C1169.83 694.566 1170.21 693.607 1170.93 692.732C1171.66 691.845 1172.62 691.166 1173.83 690.696C1175.04 690.226 1176.38 690.02 1177.84 690.075C1180.07 690.16 1181.82 690.79 1183.1 691.965C1184.38 693.127 1185 694.723 1184.96 696.75L1184.63 705.322C1184.57 707.031 1184.75 708.405 1185.2 709.442L1185.18 709.74L1180.83 709.574ZM1176.26 706.322C1177.1 706.354 1177.9 706.179 1178.65 705.797C1179.42 705.416 1180 704.887 1180.4 704.21L1180.54 700.627L1178.24 700.539C1176.65 700.479 1175.46 700.709 1174.64 701.229C1173.82 701.749 1173.39 702.512 1173.35 703.52C1173.32 704.339 1173.57 705.005 1174.09 705.518C1174.62 706.019 1175.34 706.287 1176.26 706.322ZM1192.93 712.235L1189.58 712.107L1200.7 684.72L1204.06 684.848L1192.93 712.235ZM1220.27 711.078C1220.1 710.708 1219.96 710.111 1219.85 709.286C1218.44 710.651 1216.75 711.296 1214.78 711.221C1212.87 711.148 1211.34 710.544 1210.17 709.409C1209.01 708.274 1208.45 706.904 1208.52 705.3C1208.59 703.274 1209.4 701.751 1210.94 700.731C1212.49 699.7 1214.67 699.237 1217.47 699.344L1220.08 699.444L1220.13 698.197C1220.17 697.213 1219.92 696.418 1219.4 695.811C1218.87 695.193 1218.04 694.863 1216.92 694.82C1215.95 694.783 1215.14 694.998 1214.5 695.466C1213.86 695.923 1213.53 696.526 1213.5 697.275L1209.23 697.112C1209.27 696.07 1209.65 695.111 1210.38 694.236C1211.11 693.349 1212.07 692.67 1213.27 692.2C1214.49 691.731 1215.83 691.524 1217.29 691.579C1219.51 691.664 1221.27 692.294 1222.55 693.469C1223.83 694.632 1224.45 696.227 1224.4 698.254L1224.08 706.826C1224.01 708.535 1224.2 709.909 1224.64 710.946L1224.63 711.245L1220.27 711.078ZM1215.7 707.826C1216.54 707.858 1217.34 707.683 1218.1 707.301C1218.86 706.92 1219.44 706.391 1219.85 705.714L1219.98 702.131L1217.68 702.043C1216.1 701.983 1214.9 702.213 1214.08 702.733C1213.27 703.253 1212.84 704.017 1212.8 705.024C1212.77 705.843 1213.01 706.509 1213.53 707.022C1214.07 707.523 1214.79 707.791 1215.7 707.826ZM1243.5 701.251C1242.01 702.707 1240.31 703.399 1238.4 703.326C1236.16 703.24 1234.39 702.388 1233.12 700.767C1231.84 699.136 1231.26 697.037 1231.35 694.473C1231.42 692.787 1231.82 691.271 1232.55 689.927C1233.28 688.583 1234.29 687.554 1235.57 686.841C1236.85 686.127 1238.32 685.802 1239.97 685.865C1242.54 685.963 1244.55 687.002 1245.99 688.98C1247.43 690.958 1248.08 693.557 1247.96 696.777L1247.91 697.972C1247.74 702.586 1246.56 706.065 1244.39 708.409C1242.21 710.754 1239.05 711.865 1234.92 711.742L1234.41 711.723L1234.54 708.192L1235.16 708.216C1237.68 708.277 1239.63 707.747 1241.02 706.628C1242.41 705.496 1243.24 703.704 1243.5 701.251ZM1239.43 700.023C1240.28 700.055 1241.09 699.84 1241.86 699.377C1242.63 698.914 1243.24 698.257 1243.68 697.406L1243.74 695.737C1243.81 693.852 1243.49 692.32 1242.76 691.143C1242.03 689.966 1241.05 689.354 1239.82 689.307C1238.59 689.26 1237.59 689.732 1236.81 690.723C1236.04 691.702 1235.63 692.965 1235.57 694.511C1235.51 696.115 1235.83 697.423 1236.53 698.435C1237.23 699.447 1238.2 699.976 1239.43 700.023ZM1262.76 701.634L1259.74 704.597L1259.44 712.572L1255 712.402L1255.97 686.827L1260.41 686.997L1259.96 698.994L1262.53 696.049L1270.36 687.376L1275.73 687.581L1265.8 698.548L1275.3 713.177L1270.03 712.976L1262.76 701.634ZM1285.33 694.526L1284.54 715.218C1284.47 717.162 1283.93 718.625 1282.92 719.606C1281.92 720.6 1280.49 721.062 1278.62 720.991C1277.84 720.961 1277.09 720.832 1276.37 720.606L1276.5 717.233C1276.94 717.355 1277.44 717.427 1278 717.449C1279.42 717.503 1280.18 716.758 1280.27 715.213L1281.06 694.363L1285.33 694.526ZM1280.88 689.413C1280.91 688.757 1281.13 688.221 1281.56 687.803C1282 687.386 1282.6 687.192 1283.38 687.221C1284.15 687.251 1284.74 687.49 1285.14 687.94C1285.55 688.389 1285.74 688.942 1285.71 689.597C1285.69 690.241 1285.46 690.772 1285.02 691.189C1284.58 691.595 1283.98 691.783 1283.2 691.753C1282.43 691.724 1281.84 691.49 1281.44 691.053C1281.04 690.604 1280.86 690.057 1280.88 689.413ZM1296.6 713.989L1292.33 713.826L1293.06 694.82L1297.33 694.983L1296.6 713.989ZM1292.98 689.875C1293.01 689.219 1293.23 688.682 1293.66 688.264C1294.1 687.847 1294.7 687.653 1295.48 687.683C1296.25 687.712 1296.84 687.952 1297.24 688.401C1297.65 688.85 1297.84 689.403 1297.81 690.059C1297.79 690.703 1297.56 691.233 1297.12 691.651C1296.68 692.056 1296.08 692.244 1295.3 692.215C1294.53 692.185 1293.94 691.952 1293.54 691.514C1293.14 691.065 1292.96 690.519 1292.98 689.875ZM1320.95 704.134C1320.81 707.811 1320.01 710.56 1318.56 712.381C1317.12 714.191 1314.99 715.042 1312.18 714.935C1309.42 714.83 1307.37 713.842 1306.03 711.974C1304.71 710.094 1304.1 707.367 1304.2 703.794L1304.37 699.368C1304.51 695.691 1305.3 692.959 1306.74 691.173C1308.19 689.387 1310.33 688.548 1313.15 688.656C1315.95 688.762 1318 689.738 1319.3 691.582C1320.62 693.426 1321.22 696.135 1321.12 699.708L1320.95 704.134ZM1316.87 699.194C1316.96 696.793 1316.7 695.024 1316.08 693.887C1315.47 692.737 1314.45 692.135 1313.02 692.081C1311.63 692.028 1310.58 692.522 1309.89 693.562C1309.19 694.591 1308.78 696.229 1308.66 698.476L1308.44 704.273C1308.35 706.662 1308.61 708.454 1309.24 709.651C1309.86 710.847 1310.89 711.473 1312.31 711.527C1313.68 711.579 1314.72 711.079 1315.41 710.027C1316.11 708.963 1316.52 707.278 1316.65 704.973L1316.87 699.194ZM1332.01 715.339L1327.74 715.176L1328.77 688.196L1333.04 688.359L1332.01 715.339Z" fill="white"/>
<g filter="url(#filter1_d)">
<rect x="819.678" y="804" width="496" height="201.497" rx="40" transform="rotate(2.18368 819.678 804)" fill="white"/>
<rect x="820.639" y="805.037" width="494" height="199.497" rx="39" transform="rotate(2.18368 820.639 805.037)" stroke="#EAEEF9" stroke-opacity="0.89" stroke-width="2"/>
</g>
<path d="M1035.14 877.088C1036.04 872.504 1040.15 869.263 1044.82 869.457L1246.05 877.783C1251.85 878.023 1256.07 883.379 1254.95 889.076C1254.04 893.66 1249.93 896.9 1245.26 896.707L1044.03 888.38C1038.23 888.14 1034.01 882.784 1035.14 877.088Z" fill="#EAEEF9" fill-opacity="0.89"/>
<path d="M1032.14 916.088C1033.04 911.504 1037.15 908.264 1041.82 908.457L1243.05 916.784C1248.85 917.024 1253.07 922.38 1251.95 928.076C1251.04 932.66 1246.93 935.9 1242.26 935.707L1041.03 927.381C1035.23 927.141 1031.01 921.785 1032.14 916.088Z" fill="#EAEEF9" fill-opacity="0.89"/>
<path d="M1027.14 953.088C1028.04 948.504 1032.15 945.263 1036.82 945.457L1238.05 953.783C1243.85 954.023 1248.07 959.379 1246.95 965.076C1246.04 969.66 1241.93 972.9 1237.26 972.707L1036.03 964.38C1030.23 964.14 1026.01 958.784 1027.14 953.088Z" fill="#EAEEF9" fill-opacity="0.89"/>
<g filter="url(#filter2_d)">
<g clip-path="url(#clip1)">
<path d="M533.402 515.663L675.706 572.408C686.047 576.532 691.087 588.258 686.964 598.599L630.218 740.902C626.095 751.244 614.369 756.284 604.028 752.16L461.724 695.415C451.383 691.291 446.343 679.565 450.466 669.224L507.212 526.92C511.335 516.579 523.061 511.539 533.402 515.663Z" fill="white"/>
<path d="M632.331 615.876L647.31 621.849C649.378 622.674 651.724 621.666 652.548 619.598L661.508 597.129C662.333 595.061 661.324 592.715 659.256 591.891L644.277 585.917C621.527 576.845 595.729 587.934 586.657 610.684L579.191 629.408L560.467 621.942C558.399 621.117 556.053 622.125 555.229 624.193L546.269 646.662C545.444 648.73 546.452 651.076 548.52 651.901L567.245 659.367L540.365 726.774L570.324 738.72L597.203 671.313L615.927 678.78C617.539 679.421 619.38 678.96 620.499 677.634L636.948 658.152C638.384 656.45 638.169 653.907 636.468 652.47C636.138 652.192 635.765 651.968 635.363 651.808L609.15 641.354L616.616 622.63C619.091 616.426 626.126 613.402 632.331 615.876Z" fill="#2F61E6"/>
</g>
</g>
<g filter="url(#filter3_d)">
<path d="M918 965C948.375 965 973 940.375 973 910C973 879.624 948.375 855 918 855C887.624 855 863 879.624 863 910C863 940.375 887.624 965 918 965Z" fill="#2F61E6"/>
<path d="M918.004 955.235C942.987 955.235 963.239 934.982 963.239 910C963.239 885.017 942.987 864.765 918.004 864.765C893.022 864.765 872.77 885.017 872.77 910C872.77 934.982 893.022 955.235 918.004 955.235Z" fill="#2F61E6"/>
<path d="M928.723 926.38H923.69V920.483C929.682 918.41 934.443 913.152 936.427 906.451C938.782 906.45 940.69 904.291 940.69 901.629C940.69 899.303 939.234 897.363 937.297 896.907C936.171 885.985 927.965 877.507 918.004 877.507C908.042 877.507 899.836 885.985 898.711 896.907C896.774 897.363 895.317 899.303 895.317 901.629C895.317 904.291 897.226 906.45 899.58 906.451C901.564 913.152 906.325 918.41 912.318 920.483V926.38H907.284C897.242 926.38 888.974 934.357 888.498 944.287C896.419 951.11 906.73 955.236 918.004 955.236C929.279 955.236 939.589 951.11 947.51 944.287C947.034 934.357 938.766 926.38 928.723 926.38Z" fill="white"/>
<path d="M929.405 926.397C926.153 929.992 922.229 932.092 918.004 932.092C913.779 932.092 909.855 929.992 906.603 926.397C896.871 926.749 888.963 934.583 888.498 944.287C896.419 951.11 906.73 955.236 918.004 955.236C929.279 955.236 939.589 951.11 947.51 944.287C947.045 934.583 939.137 926.749 929.405 926.397Z" fill="white"/>
</g>
<path d="M1390.98 823.387L1357.4 759.834C1356.04 757.248 1358.8 754.435 1361.41 755.756L1424.78 787.823C1427.6 789.249 1426.58 793.5 1423.43 793.5H1404.49C1403.05 793.5 1401.81 794.529 1401.54 795.95L1396.58 822.536C1396.06 825.33 1392.31 825.9 1390.98 823.387Z" fill="white"/>
<path d="M1340.72 754.508L1323.29 753.182" stroke="url(#paint4_linear)" stroke-width="6" stroke-linecap="round"/>
<path d="M1350.86 742.293L1339.21 730.214" stroke="url(#paint5_linear)" stroke-width="6" stroke-linecap="round"/>
<path d="M1367.06 735.665L1369.24 719.764" stroke="url(#paint6_linear)" stroke-width="6" stroke-linecap="round"/>
<path d="M1151.21 531.336L1174.84 541.639L1187.74 547.264L1211.37 557.568L1220.08 533.306L1223.55 523.609C1225.54 518.068 1228.69 513.016 1232.79 508.793C1236.89 504.569 1241.84 501.271 1247.32 499.119L1247.55 499.027C1257.75 495.024 1265.93 487.135 1270.31 477.096L1276.49 462.923L1286.78 439.29L1263.15 428.987L1250.25 423.361L1226.62 413.058L1216.32 436.691L1207.23 457.549C1202.85 467.588 1194.67 475.477 1184.48 479.481C1178.93 481.66 1173.93 485.012 1169.8 489.307C1165.67 493.602 1162.52 498.739 1160.57 504.366L1159.66 506.981L1151.21 531.336Z" fill="#6CF069"/>
<path d="M1216.23 436.61C1219.33 437.963 1222.66 438.692 1226.05 438.754C1229.43 438.817 1232.79 438.213 1235.94 436.976C1239.09 435.739 1241.97 433.893 1244.4 431.544C1246.84 429.196 1248.79 426.39 1250.14 423.288L1226.52 412.994L1216.23 436.61Z" fill="#43C500"/>
<path d="M1262.66 448.624C1263.9 451.775 1265.74 454.651 1268.09 457.087C1270.44 459.523 1273.25 461.471 1276.35 462.819L1286.65 439.203L1263.03 428.908C1261.67 432.008 1260.94 435.346 1260.88 438.729C1260.82 442.113 1261.42 445.475 1262.66 448.624Z" fill="#43C500"/>
<path d="M1174.76 541.482C1176.18 538.228 1176.91 534.715 1176.91 531.165C1176.91 527.614 1176.17 524.103 1174.75 520.851C1173.32 517.599 1171.24 514.676 1168.63 512.267C1166.03 509.858 1162.95 508.014 1159.59 506.851L1151.15 531.187L1174.76 541.482Z" fill="#43C500"/>
<path d="M1187.66 547.103L1211.27 557.397L1219.98 533.153C1213.83 530.94 1207.06 531.15 1201.06 533.741C1195.06 536.332 1190.27 541.108 1187.66 547.103Z" fill="#43C500"/>
<path d="M1224.98 507.721C1211.73 512.924 1197.62 508.552 1193.46 497.956C1189.3 487.36 1196.66 474.553 1209.9 469.35C1223.15 464.147 1237.26 468.518 1241.42 479.114C1245.58 489.71 1238.22 502.518 1224.98 507.721Z" fill="#43C500"/>
<g filter="url(#filter4_d)">
<path d="M427.375 194.916C405.529 217.607 410 241.712 410 314.942C410 375.755 399.389 436.718 454.92 451.069C472.26 455.529 625.902 455.529 643.219 451.046C666.339 445.081 685.15 426.327 687.722 393.628C688.081 389.064 688.081 240.901 687.71 236.245C684.977 201.414 663.536 181.34 635.284 177.274C628.809 176.336 627.512 176.058 594.291 176C476.453 176.058 450.623 170.811 427.375 194.916Z" fill="url(#paint7_linear)"/>
<path d="M548.977 212.36C506.918 212.36 466.978 208.619 451.723 247.77C445.422 263.941 446.337 284.941 446.337 315.012C446.337 341.398 445.491 366.198 451.723 382.241C466.944 421.416 507.207 417.663 548.954 417.663C589.229 417.663 630.755 421.856 646.196 382.241C652.509 365.909 651.582 345.221 651.582 315.012C651.582 274.91 653.794 249.021 634.346 229.584C614.654 209.893 588.024 212.36 548.93 212.36H548.977ZM539.78 230.859C627.512 230.72 638.678 220.966 632.516 356.457C630.327 404.377 593.839 399.118 548.988 399.118C467.21 399.118 464.859 396.778 464.859 314.965C464.859 232.202 471.345 230.905 539.78 230.835V230.859ZM603.766 247.898C596.967 247.898 591.453 253.411 591.453 260.211C591.453 267.01 596.967 272.524 603.766 272.524C610.565 272.524 616.079 267.01 616.079 260.211C616.079 253.411 610.565 247.898 603.766 247.898ZM548.977 262.296C519.868 262.296 496.273 285.903 496.273 315.012C496.273 344.12 519.868 367.716 548.977 367.716C578.086 367.716 601.669 344.12 601.669 315.012C601.669 285.903 578.086 262.296 548.977 262.296ZM548.977 280.794C594.21 280.794 594.268 349.229 548.977 349.229C503.755 349.229 503.686 280.794 548.977 280.794Z" fill="white"/>
</g>
<path d="M1420.14 821C1430.62 842.146 1446.69 893.279 1427.13 928.646C1407.56 964.013 1393.12 973.933 1388.34 974.473" stroke="#2F61E6" stroke-width="6" stroke-linecap="round" stroke-dasharray="20 20"/>
<path d="M357.508 767.036C341.177 768.207 302.927 764.929 280.58 742.45C258.234 719.97 253.165 707.764 253.424 704.471" stroke="#93B0FF" stroke-opacity="0.46" stroke-width="6" stroke-linecap="round" stroke-dasharray="20 20"/>
<path d="M250.777 595.671C246.289 583.636 240.457 555.053 253.032 537.005C265.607 518.956 273.983 514.396 276.6 514.372" stroke="#93B0FF" stroke-opacity="0.46" stroke-width="6" stroke-linecap="round" stroke-dasharray="20 20"/>
<g filter="url(#filter5_d)">
<path d="M435.763 737.749L457.717 772.21L445.055 821.488L340.972 857.046L313.479 824.434L435.763 737.749Z" fill="#44B40B"/>
<path d="M313.479 824.434L423.16 787.118L435.764 737.748L326.995 779.134L313.479 824.434Z" fill="#83E181"/>
<path d="M328.751 815.351L407.509 788.304C408.752 783.766 414.181 778.498 419.813 776.59L425.993 752.629C420.328 754.687 416.801 752.8 418.011 748.412L339.805 777.95C338.571 782.095 333.726 786.861 329.064 788.668L322.498 810.809C327.16 809.001 330.077 811.147 328.751 815.351Z" fill="#FCFCFD"/>
<path d="M353.65 789.542C351.172 798.225 357.341 802.435 367.693 798.811C378.288 795.162 388.871 784.803 391.324 775.877C393.685 767.009 387.056 763.093 376.545 767.076C366.218 770.942 356.036 780.916 353.65 789.542Z" fill="#83E181"/>
<path d="M403.598 771.417C403.039 773.582 404.652 774.492 407.301 773.58C409.95 772.667 412.48 770.151 413.039 767.986C413.598 765.822 411.893 764.97 409.336 765.823C406.654 766.886 404.123 769.403 403.598 771.417Z" fill="#83E181"/>
<path d="M334.19 796.512C333.665 798.526 334.944 799.52 337.258 798.692C339.573 797.863 341.886 795.614 342.412 793.6C342.937 791.586 341.567 790.65 339.344 791.42C337.029 792.249 334.774 794.59 334.19 796.512Z" fill="#83E181"/>
<path d="M363.127 790.222C364.078 786.645 368.396 782.473 372.599 780.958C374.395 780.331 376.216 778.525 376.642 776.962C377.067 775.399 375.872 774.739 374.075 775.367C373.131 775.71 372.212 776.295 371.469 777.157C370.45 778.193 368.988 778.737 368.361 778.361C367.734 777.986 367.909 776.841 369.02 775.746C370.222 774.592 371.484 773.53 372.921 772.744L373.28 771.482C373.572 770.52 374.716 769.275 375.994 768.848C377.214 768.329 377.958 768.889 377.666 769.85L377.307 771.112C380.307 770.751 381.937 772.296 381.12 775.272C380.169 778.849 375.851 783.021 371.556 784.594C369.76 785.222 367.939 787.028 367.513 788.591C367.088 790.154 368.191 790.872 369.988 790.244C370.932 789.901 371.851 789.316 372.653 788.547C373.672 787.51 375.134 786.966 375.761 787.342C376.387 787.717 376.121 788.921 375.102 789.958C373.899 791.111 372.546 792.232 371.201 792.959L370.842 794.222C370.608 795.275 369.314 796.487 368.127 796.856C366.849 797.282 366.163 796.815 366.397 795.762L366.755 794.5C363.998 794.835 362.309 793.198 363.127 790.222Z" fill="#FCFCFD"/>
</g>
<g filter="url(#filter6_d)">
<path d="M461.91 1204.97C516.736 1201.25 558.164 1153.79 554.442 1098.96C550.72 1044.13 503.257 1002.71 448.431 1006.43C393.605 1010.15 352.177 1057.61 355.899 1112.44C359.621 1167.26 407.084 1208.69 461.91 1204.97Z" fill="#5C88FF"/>
</g>
<path d="M460.721 1187.34C505.813 1184.28 539.885 1145.25 536.824 1100.16C533.763 1055.06 494.727 1020.99 449.636 1024.05C404.544 1027.11 370.472 1066.15 373.533 1111.24C376.594 1156.33 415.629 1190.41 460.721 1187.34Z" fill="#90AEFF"/>
<path d="M476.533 1133.95L467.448 1134.57L466.725 1123.92C477.287 1119.45 485.236 1109.37 487.996 1097.04C492.246 1096.75 495.425 1092.62 495.099 1087.81C494.814 1083.61 491.948 1080.29 488.396 1079.7C485.027 1060.13 469.176 1045.83 451.196 1047.05C433.216 1048.27 419.444 1064.58 418.751 1084.43C415.31 1085.49 412.92 1089.17 413.205 1093.37C413.531 1098.17 417.24 1101.84 421.49 1101.55C425.892 1113.4 435.129 1122.31 446.199 1125.32L446.922 1135.96L437.837 1136.58C419.711 1137.81 405.764 1153.22 406.123 1171.2C421.256 1182.54 440.371 1188.73 460.721 1187.35C481.071 1185.96 499.175 1177.25 512.636 1163.97C510.56 1146.1 494.659 1132.72 476.533 1133.95Z" fill="white"/>
<path d="M477.765 1133.9C472.336 1140.78 465.51 1145.06 457.885 1145.57C450.259 1146.09 442.919 1142.78 436.609 1136.69C419.086 1138.52 405.772 1153.63 406.122 1171.2C421.256 1182.54 440.371 1188.73 460.72 1187.35C481.07 1185.96 499.174 1177.25 512.635 1163.97C510.607 1146.51 495.373 1133.34 477.765 1133.9Z" fill="white"/>
<g filter="url(#filter7_d)">
<path d="M332.298 521.179C354.064 519.702 370.51 500.86 369.032 479.095C367.555 457.33 348.713 440.883 326.948 442.361C305.183 443.838 288.736 462.68 290.214 484.445C291.691 506.21 310.533 522.657 332.298 521.179Z" fill="#5C88FF"/>
<path d="M331.827 514.182C349.727 512.967 363.254 497.47 362.039 479.57C360.823 461.669 345.327 448.143 327.426 449.358C309.525 450.573 295.999 466.07 297.214 483.97C298.429 501.871 313.926 515.397 331.827 514.182Z" fill="#91AEFF"/>
<path d="M338.104 492.986L334.497 493.231L334.21 489.005C338.403 487.228 341.559 483.229 342.654 478.331C344.341 478.216 345.604 476.576 345.474 474.668C345.361 473.002 344.223 471.682 342.813 471.45C341.476 463.679 335.183 458.003 328.045 458.488C320.908 458.972 315.44 465.446 315.165 473.327C313.799 473.748 312.85 475.209 312.963 476.875C313.093 478.783 314.565 480.237 316.252 480.124C318 484.828 321.667 488.364 326.062 489.558L326.348 493.784L322.742 494.029C315.546 494.517 310.01 500.635 310.152 507.773C316.16 512.276 323.748 514.731 331.827 514.183C339.905 513.634 347.092 510.176 352.436 504.902C351.612 497.81 345.299 492.497 338.104 492.986Z" fill="white"/>
<path d="M338.593 492.964C336.438 495.698 333.728 497.394 330.701 497.599C327.673 497.805 324.759 496.491 322.255 494.073C315.298 494.799 310.013 500.797 310.152 507.772C316.16 512.276 323.748 514.731 331.827 514.182C339.905 513.634 347.092 510.176 352.436 504.902C351.631 497.971 345.583 492.743 338.593 492.964Z" fill="white"/>
</g>
<path d="M458.595 827.668C476.093 843.505 509.776 885.198 504.525 925.273C499.274 965.349 489.467 979.87 485.219 982.122" stroke="#93B0FF" stroke-opacity="0.46" stroke-width="6" stroke-linecap="round" stroke-dasharray="20 20"/>
<g filter="url(#filter8_d)">
<rect x="195.833" y="629.671" width="73" height="67" rx="15" transform="rotate(-3.88365 195.833 629.671)" fill="#2F61E6"/>
</g>
<path d="M215.901 644.264L244.831 661.276L216.384 677.821L215.901 644.264Z" fill="white"/>
<rect x="231.076" y="646.824" width="24" height="29" transform="rotate(-3.88365 231.076 646.824)" fill="#EAEEF9" fill-opacity="0.67"/>
<g filter="url(#filter9_d)">
<path d="M655.171 835.989C651.09 827.873 642.922 822.494 633.855 821.949C617.275 820.885 554.493 833.809 554.493 833.809C554.493 833.809 491.712 846.733 476.867 854.095C468.918 858.142 463.407 866.51 462.863 875.577C461.964 892.121 468.664 924.669 468.664 924.669C468.664 924.669 475.398 957.38 482.725 972.06C486.807 980.175 494.974 985.555 504.043 986.1C520.786 987.131 583.403 974.241 583.403 974.241C583.403 974.241 646.184 961.317 661.029 953.954C669.145 949.873 674.523 941.705 675.068 932.638C675.968 916.092 669.268 883.546 669.268 883.546C669.268 883.546 662.699 850.798 655.171 835.989Z" fill="#FF3366"/>
<path d="M555.148 938.209L601.165 897.393L542.768 878.071L555.148 938.209Z" fill="white"/>
</g>
<g filter="url(#filter10_d)">
<rect x="912" y="338.165" width="186.329" height="186" rx="39" transform="rotate(-30 912 338.165)" fill="black"/>
</g>
<g clip-path="url(#clip2)">
<path d="M1025.09 385.132C1017.33 389.612 1014.68 399.501 1019.23 407.119C1022.16 412.006 1027.34 414.72 1032.72 414.803C1030.16 413.503 1027.93 411.501 1026.36 408.866C1021.81 401.249 1024.46 391.36 1032.22 386.88C1033.75 385.997 1035.36 385.396 1036.99 385.041L1028.11 369.655C1026.55 370.272 1025.02 371.007 1023.54 371.857C1023.47 371.901 1023.41 371.934 1023.33 371.978L1029.87 383.293C1028.24 383.648 1026.62 384.249 1025.09 385.132Z" fill="#F00044"/>
<path d="M1032 319.626L1031.88 319.692L1027.91 321.987C1032.38 327.078 1038.5 330.221 1044.97 331.019C1039.75 328.811 1035.13 324.955 1032 319.626Z" fill="#F00044"/>
<path d="M1068.91 329.533C1067.4 330.404 1065.86 331.09 1064.27 331.65L1070.64 342.679C1065.44 345.68 1059.81 347.581 1053.9 348.291C1050.09 348.757 1046.28 348.739 1042.51 348.243L1062.21 382.202C1066.59 389.87 1067.71 398.781 1065.36 407.346C1063.45 414.313 1059.43 420.378 1053.84 424.808C1052.52 425.846 1051.12 426.81 1049.65 427.66C1043.11 431.434 1035.65 432.91 1028.33 431.916C1029.3 432.273 1030.29 432.589 1031.34 432.852C1039.98 435.102 1049.01 433.888 1056.79 429.396C1058.26 428.547 1059.67 427.582 1060.98 426.544C1066.58 422.115 1070.59 416.05 1072.51 409.082C1074.85 400.517 1073.73 391.606 1069.36 383.939L1049.44 350.101C1053.2 350.608 1057.02 350.645 1060.83 350.149C1066.75 349.408 1072.39 347.527 1077.57 344.537" fill="#F00044"/>
<path d="M1007.81 392.231C1010.13 383.677 1015.65 376.494 1023.33 371.978L1020.98 367.907C1019.43 368.524 1017.89 369.259 1016.42 370.109C1008.62 374.611 1003.03 381.839 1000.68 390.483C998.376 398.977 999.517 408.104 1003.94 415.719C1008.38 423.403 1015.58 428.854 1024.21 431.134C1025.58 431.487 1026.94 431.771 1028.32 431.946C1021.03 429.298 1014.97 424.233 1011.05 417.478C1006.66 409.841 1005.5 400.725 1007.81 392.231Z" fill="#08FFF9"/>
<path d="M1064.27 331.65L1061.91 327.56L1061.87 327.582C1056.56 330.65 1050.65 331.716 1044.99 331.008C1051.02 333.543 1057.88 333.863 1064.27 331.65Z" fill="#08FFF9"/>
<path d="M1047.3 414.817C1049.17 413.865 1050.77 412.612 1052.08 411.169C1056.57 406.153 1057.59 398.686 1054.08 392.608L1040.97 369.852L1016.97 328.299L1027.91 321.987C1026.79 320.719 1025.8 319.355 1024.91 317.856L1009.85 326.552L1033.83 368.085L1046.94 390.841C1050.45 396.919 1049.44 404.386 1044.94 409.402C1043.64 410.864 1042.05 412.117 1040.17 413.051C1037.78 414.252 1035.22 414.811 1032.71 414.784C1037.15 417.058 1042.59 417.206 1047.3 414.817Z" fill="#08FFF9"/>
<path d="M1053.84 424.808C1059.43 420.378 1063.45 414.313 1065.37 407.346C1067.71 398.78 1066.59 389.869 1062.21 382.202L1042.51 348.243C1046.26 348.749 1050.08 348.787 1053.9 348.291C1059.82 347.55 1065.46 345.669 1070.64 342.679L1064.27 331.65C1057.88 333.863 1051.02 333.543 1044.99 331.008C1038.52 330.21 1032.38 327.078 1027.93 321.976L1016.98 328.299L1040.95 369.833L1054.07 392.589C1057.58 398.667 1056.56 406.134 1052.07 411.15C1050.77 412.612 1049.17 413.865 1047.29 414.798C1042.56 417.198 1037.14 417.039 1032.71 414.784C1027.34 414.72 1022.15 411.987 1019.22 407.099C1014.67 399.482 1017.32 389.593 1025.08 385.113C1026.61 384.23 1028.23 383.629 1029.86 383.274L1023.32 371.959C1015.63 376.474 1010.12 383.658 1007.8 392.212C1005.49 400.705 1006.63 409.833 1011.04 417.429C1014.95 424.195 1021.01 429.26 1028.32 431.896C1035.66 432.879 1043.1 431.414 1049.64 427.64C1051.12 426.81 1052.52 425.845 1053.84 424.808Z" fill="white"/>
</g>
<path d="M1279.71 1304C1312.58 1304 1339.21 1273.56 1339.21 1236C1339.21 1198.44 1312.58 1168 1279.71 1168C1246.85 1168 1220.21 1198.44 1220.21 1236C1220.21 1273.56 1246.85 1304 1279.71 1304Z" fill="#FFD949"/>
<path d="M1339.21 1236C1339.21 1201.27 1316.42 1172.63 1287 1168.52C1289.39 1168.19 1291.82 1168 1294.29 1168C1327.15 1168 1353.79 1198.44 1353.79 1236C1353.79 1273.56 1327.15 1304 1294.29 1304C1291.82 1304 1289.39 1303.81 1287 1303.48C1316.42 1299.37 1339.21 1270.73 1339.21 1236Z" fill="#F4BF1A"/>
<path d="M1279.51 1290.7H1279.72C1281.42 1290.7 1283.13 1290.6 1284.8 1290.4C1286.14 1290.24 1287.09 1289.03 1286.93 1287.7C1286.77 1286.37 1285.55 1285.44 1284.23 1285.58C1282.74 1285.75 1281.22 1285.84 1279.72 1285.84C1278.37 1285.84 1277.18 1286.93 1277.18 1288.27C1277.18 1289.61 1278.16 1290.7 1279.51 1290.7ZM1265.39 1288.09C1266.37 1288.09 1267.29 1287.49 1267.66 1286.51C1268.13 1285.26 1267.5 1283.85 1266.24 1283.38C1264.84 1282.86 1263.45 1282.24 1262.1 1281.55C1260.9 1280.93 1259.44 1281.4 1258.83 1282.6C1258.22 1283.79 1258.69 1285.25 1259.88 1285.87C1261.4 1286.64 1262.96 1287.33 1264.53 1287.93C1264.81 1288.03 1265.1 1288.09 1265.39 1288.09ZM1298.26 1286.23C1298.63 1286.23 1299 1286.15 1299.35 1285.97C1300.85 1285.21 1302.33 1284.35 1303.75 1283.42C1304.87 1282.69 1305.18 1281.18 1304.45 1280.06C1303.71 1278.94 1302.21 1278.62 1301.09 1279.36C1299.82 1280.19 1298.49 1280.96 1297.16 1281.64C1295.96 1282.24 1295.48 1283.7 1296.09 1284.9C1296.52 1285.74 1297.37 1286.23 1298.26 1286.23ZM1249.42 1277.59C1250.03 1277.59 1250.65 1277.35 1251.13 1276.88C1252.08 1275.94 1252.09 1274.4 1251.14 1273.45C1250.09 1272.39 1249.06 1271.24 1248.09 1270.05C1247.24 1269.01 1245.71 1268.85 1244.67 1269.69C1243.63 1270.54 1243.47 1272.07 1244.32 1273.11C1245.39 1274.43 1246.53 1275.69 1247.69 1276.87C1248.17 1277.35 1248.8 1277.59 1249.42 1277.59ZM1313.09 1274.17C1313.79 1274.17 1314.49 1273.87 1314.97 1273.28C1316.02 1272 1317.04 1270.64 1317.98 1269.24C1318.73 1268.13 1318.43 1266.62 1317.32 1265.87C1316.21 1265.12 1314.7 1265.41 1313.95 1266.52C1313.09 1267.79 1312.17 1269.03 1311.21 1270.2C1310.36 1271.24 1310.51 1272.77 1311.55 1273.62C1312 1273.99 1312.55 1274.17 1313.09 1274.17ZM1238.74 1261.69C1239.07 1261.69 1239.39 1261.63 1239.71 1261.49C1240.94 1260.96 1241.5 1259.53 1240.97 1258.29C1240.36 1256.9 1239.8 1255.45 1239.31 1254C1238.89 1252.73 1237.51 1252.04 1236.24 1252.47C1234.97 1252.9 1234.28 1254.27 1234.71 1255.55C1235.24 1257.13 1235.85 1258.71 1236.51 1260.23C1236.92 1261.15 1237.81 1261.69 1238.74 1261.69ZM1322.35 1257.4C1323.36 1257.4 1324.3 1256.76 1324.65 1255.76C1325.18 1254.18 1325.66 1252.56 1326.06 1250.94C1326.39 1249.64 1325.6 1248.32 1324.3 1248C1323 1247.67 1321.67 1248.47 1321.35 1249.77C1320.98 1251.26 1320.54 1252.74 1320.05 1254.19C1319.62 1255.46 1320.3 1256.84 1321.56 1257.27C1321.82 1257.36 1322.09 1257.4 1322.35 1257.4ZM1234.15 1243.08C1234.22 1243.08 1234.28 1243.08 1234.34 1243.07C1235.68 1242.97 1236.68 1241.8 1236.58 1240.46C1236.46 1238.99 1236.41 1237.49 1236.41 1236C1236.41 1234.66 1235.32 1233.49 1233.98 1233.49C1232.64 1233.49 1231.55 1234.5 1231.55 1235.84V1236C1231.55 1237.61 1231.61 1239.24 1231.74 1240.84C1231.83 1242.11 1232.9 1243.08 1234.15 1243.08ZM1325.45 1238.46C1326.79 1238.46 1327.88 1237.39 1327.88 1236.05V1236C1327.88 1234.34 1327.82 1232.68 1327.69 1231.05C1327.58 1229.72 1326.42 1228.73 1325.07 1228.82C1323.74 1228.93 1322.74 1230.1 1322.85 1231.44C1322.96 1232.94 1323.03 1234.47 1323.03 1236C1323.03 1237.34 1324.11 1238.46 1325.45 1238.46ZM1235.75 1223.97C1236.84 1223.97 1237.83 1223.24 1238.1 1222.14C1238.48 1220.65 1238.92 1219.16 1239.41 1217.72C1239.85 1216.45 1239.17 1215.07 1237.9 1214.63C1236.63 1214.19 1235.25 1214.87 1234.82 1216.14C1234.28 1217.71 1233.8 1219.33 1233.39 1220.95C1233.07 1222.25 1233.86 1223.57 1235.15 1223.9C1235.35 1223.95 1235.55 1223.97 1235.75 1223.97ZM1322.38 1219.56C1322.64 1219.56 1322.9 1219.52 1323.16 1219.43C1324.43 1219 1325.11 1217.62 1324.68 1216.35C1324.14 1214.77 1323.54 1213.2 1322.87 1211.67C1322.33 1210.44 1320.9 1209.88 1319.67 1210.41C1318.44 1210.95 1317.88 1212.38 1318.42 1213.61C1319.03 1215.01 1319.59 1216.46 1320.08 1217.91C1320.43 1218.92 1321.37 1219.56 1322.38 1219.56ZM1243.52 1206.46C1244.3 1206.46 1245.07 1206.09 1245.54 1205.4C1246.4 1204.13 1247.32 1202.89 1248.28 1201.72C1249.13 1200.69 1248.99 1199.16 1247.95 1198.3C1246.92 1197.45 1245.38 1197.6 1244.53 1198.63C1243.47 1199.92 1242.46 1201.28 1241.52 1202.67C1240.76 1203.78 1241.05 1205.29 1242.16 1206.05C1242.58 1206.33 1243.05 1206.46 1243.52 1206.46ZM1313.16 1202.77C1313.7 1202.77 1314.24 1202.59 1314.7 1202.22C1315.73 1201.37 1315.89 1199.84 1315.04 1198.8C1313.97 1197.49 1312.83 1196.23 1311.66 1195.05C1310.71 1194.1 1309.18 1194.1 1308.23 1195.04C1307.27 1195.99 1307.27 1197.52 1308.21 1198.48C1309.27 1199.54 1310.3 1200.69 1311.28 1201.88C1311.75 1202.47 1312.45 1202.77 1313.16 1202.77ZM1257.1 1192.98C1257.56 1192.98 1258.02 1192.86 1258.43 1192.59C1259.7 1191.76 1261.02 1191 1262.36 1190.32C1263.56 1189.72 1264.04 1188.26 1263.44 1187.06C1262.83 1185.87 1261.37 1185.38 1260.17 1185.99C1258.67 1186.74 1257.19 1187.59 1255.78 1188.52C1254.65 1189.25 1254.33 1190.76 1255.07 1191.88C1255.53 1192.6 1256.31 1192.98 1257.1 1192.98ZM1298.34 1190.68C1299.23 1190.68 1300.08 1190.19 1300.51 1189.35C1301.12 1188.15 1300.64 1186.69 1299.45 1186.08C1297.94 1185.31 1296.37 1184.62 1294.8 1184.03C1293.54 1183.56 1292.14 1184.2 1291.67 1185.46C1291.2 1186.71 1291.84 1188.11 1293.1 1188.58C1294.5 1189.11 1295.9 1189.72 1297.25 1190.41C1297.6 1190.59 1297.97 1190.68 1298.34 1190.68ZM1275.01 1186.43C1275.11 1186.43 1275.2 1186.42 1275.3 1186.41C1276.76 1186.24 1278.25 1186.16 1279.72 1186.16C1281.06 1186.16 1282.2 1185.07 1282.2 1183.73C1282.2 1182.39 1281.16 1181.3 1279.82 1181.3H1279.72C1278.06 1181.3 1276.38 1181.4 1274.74 1181.59C1273.41 1181.74 1272.45 1182.95 1272.61 1184.28C1272.75 1185.52 1273.8 1186.43 1275.01 1186.43Z" fill="#F4BF1A"/>
<path d="M1339.22 1238.43H1353.79C1353.74 1240.06 1353.64 1241.68 1353.5 1243.29H1338.92C1339.07 1241.68 1339.17 1240.06 1339.22 1238.43Z" fill="#DCA815"/>
<path d="M1338.66 1226.29H1353.22C1353.43 1227.89 1353.57 1229.51 1353.67 1231.14H1339.1C1339 1229.51 1338.86 1227.89 1338.66 1226.29Z" fill="#DCA815"/>
<path d="M1337.88 1250.57H1352.46C1352.14 1252.21 1351.78 1253.83 1351.36 1255.43H1336.79C1337.21 1253.83 1337.57 1252.21 1337.88 1250.57Z" fill="#DCA815"/>
<path d="M1334.49 1262.71H1349.07C1348.45 1264.37 1347.76 1265.99 1347.03 1267.57H1332.46C1333.19 1265.99 1333.87 1264.37 1334.49 1262.71Z" fill="#DCA815"/>
<path d="M1336.13 1214.14H1350.68C1351.15 1215.74 1351.6 1217.35 1351.96 1219H1337.38C1337.01 1217.36 1336.6 1215.73 1336.13 1214.14Z" fill="#DCA815"/>
<path d="M1331.29 1202H1345.86C1346.66 1203.58 1347.42 1205.2 1348.1 1206.86H1333.52C1332.83 1205.2 1332.09 1203.58 1331.29 1202Z" fill="#DCA815"/>
<path d="M1321.38 1187.43H1335.96C1337.35 1188.97 1338.66 1190.59 1339.9 1192.29H1325.32C1324.07 1190.59 1322.76 1188.97 1321.38 1187.43Z" fill="#DCA815"/>
<path d="M1306.53 1175.29H1321.13C1323.61 1176.72 1325.99 1178.34 1328.26 1180.14H1313.67C1311.39 1178.34 1309.01 1176.72 1306.53 1175.29Z" fill="#DCA815"/>
<path d="M1327.03 1277.29H1341.6C1340.48 1278.97 1339.29 1280.59 1338.03 1282.14H1323.44C1324.7 1280.59 1325.9 1278.97 1327.03 1277.29Z" fill="#DCA815"/>
<path d="M1331.12 1289.43C1329.17 1291.18 1327.13 1292.81 1324.99 1294.29H1310.39C1312.53 1292.81 1314.6 1291.19 1316.56 1289.43H1331.12Z" fill="#DCA815"/>
<path d="M200.054 939C179.516 939 162.866 919.972 162.866 896.5C162.866 873.028 179.516 854 200.054 854C220.592 854 237.241 873.028 237.241 896.5C237.241 919.972 220.592 939 200.054 939Z" fill="#FFD949"/>
<path d="M162.866 896.5C162.866 874.792 177.111 856.896 195.5 854.328C194.007 854.12 192.489 854 190.947 854C170.408 854 153.759 873.028 153.759 896.5C153.759 919.972 170.408 939 190.947 939C192.489 939 194.007 938.88 195.5 938.672C177.111 936.104 162.866 918.208 162.866 896.5Z" fill="#F4BF1A"/>
<path d="M200.183 930.688H200.052C198.99 930.688 197.92 930.625 196.872 930.5C196.039 930.4 195.445 929.646 195.544 928.812C195.644 927.979 196.405 927.398 197.232 927.486C198.161 927.597 199.11 927.653 200.052 927.653C200.892 927.653 201.635 928.333 201.635 929.171C201.635 930.008 201.024 930.688 200.183 930.688ZM209.009 929.054C208.396 929.054 207.818 928.679 207.588 928.07C207.292 927.285 207.688 926.41 208.473 926.115C209.348 925.786 210.22 925.399 211.063 924.966C211.809 924.581 212.723 924.877 213.107 925.623C213.49 926.369 213.195 927.284 212.448 927.666C211.503 928.152 210.527 928.583 209.543 928.955C209.369 929.022 209.188 929.054 209.009 929.054ZM188.465 927.894C188.234 927.894 187.999 927.841 187.779 927.729C186.845 927.254 185.921 926.721 185.033 926.138C184.332 925.68 184.136 924.74 184.594 924.037C185.056 923.337 185.994 923.14 186.697 923.599C187.49 924.119 188.318 924.599 189.152 925.022C189.899 925.402 190.198 926.315 189.819 927.062C189.552 927.59 189.017 927.894 188.465 927.894ZM218.989 922.494C218.603 922.494 218.216 922.346 217.92 922.053C217.325 921.463 217.321 920.502 217.911 919.907C218.572 919.242 219.214 918.526 219.819 917.779C220.349 917.129 221.305 917.031 221.955 917.559C222.604 918.087 222.705 919.043 222.175 919.695C221.506 920.517 220.797 921.308 220.067 922.044C219.769 922.343 219.378 922.494 218.989 922.494ZM179.194 920.356C178.755 920.356 178.319 920.167 178.019 919.802C177.36 918.998 176.727 918.148 176.14 917.275C175.671 916.58 175.854 915.636 176.55 915.167C177.243 914.698 178.187 914.88 178.656 915.577C179.192 916.372 179.768 917.146 180.367 917.876C180.898 918.524 180.804 919.481 180.156 920.013C179.875 920.244 179.532 920.356 179.194 920.356ZM225.661 912.559C225.458 912.559 225.253 912.518 225.056 912.433C224.286 912.098 223.936 911.204 224.27 910.434C224.651 909.563 224.998 908.658 225.303 907.749C225.57 906.957 226.431 906.527 227.226 906.794C228.02 907.063 228.448 907.922 228.181 908.717C227.847 909.709 227.468 910.695 227.053 911.647C226.803 912.218 226.244 912.559 225.661 912.559ZM173.408 909.877C172.776 909.877 172.186 909.478 171.97 908.848C171.635 907.864 171.337 906.852 171.085 905.838C170.882 905.025 171.377 904.202 172.19 904C173.001 903.794 173.828 904.291 174.03 905.105C174.262 906.035 174.535 906.966 174.844 907.867C175.114 908.661 174.69 909.523 173.898 909.794C173.737 909.85 173.57 909.877 173.408 909.877ZM228.529 900.926C228.489 900.926 228.45 900.925 228.41 900.922C227.574 900.856 226.95 900.126 227.014 899.29C227.085 898.37 227.122 897.431 227.122 896.5C227.122 895.662 227.802 894.934 228.639 894.934C229.477 894.934 230.157 895.564 230.157 896.402V896.5C230.157 897.51 230.118 898.527 230.04 899.525C229.98 900.321 229.313 900.926 228.529 900.926ZM171.466 898.035C170.628 898.035 169.948 897.371 169.948 896.534V896.5C169.948 895.465 169.989 894.424 170.07 893.408C170.137 892.574 170.864 891.954 171.703 892.015C172.539 892.082 173.163 892.813 173.097 893.648C173.022 894.586 172.984 895.545 172.984 896.5C172.984 897.338 172.304 898.035 171.466 898.035ZM227.53 888.984C226.851 888.984 226.234 888.525 226.061 887.838C225.825 886.904 225.551 885.975 225.241 885.074C224.969 884.281 225.393 883.418 226.185 883.146C226.979 882.871 227.843 883.296 228.113 884.09C228.45 885.071 228.749 886.082 229.004 887.094C229.209 887.908 228.715 888.732 227.903 888.937C227.78 888.97 227.656 888.984 227.53 888.984ZM173.388 886.226C173.226 886.226 173.062 886.199 172.899 886.144C172.105 885.875 171.68 885.013 171.949 884.219C172.284 883.233 172.665 882.248 173.083 881.293C173.42 880.523 174.312 880.176 175.082 880.51C175.85 880.845 176.201 881.741 175.865 882.509C175.481 883.384 175.132 884.289 174.825 885.194C174.608 885.827 174.021 886.226 173.388 886.226ZM222.673 878.04C222.186 878.04 221.709 877.806 221.414 877.372C220.877 876.58 220.3 875.807 219.699 875.077C219.167 874.431 219.259 873.473 219.906 872.94C220.552 872.407 221.51 872.5 222.043 873.146C222.703 873.949 223.338 874.798 223.928 875.671C224.399 876.364 224.216 877.308 223.523 877.779C223.262 877.955 222.967 878.04 222.673 878.04ZM179.15 875.731C178.813 875.731 178.473 875.619 178.19 875.388C177.541 874.859 177.445 873.902 177.976 873.253C178.646 872.433 179.356 871.644 180.088 870.908C180.68 870.316 181.641 870.311 182.234 870.902C182.829 871.494 182.832 872.453 182.242 873.048C181.58 873.714 180.935 874.429 180.326 875.174C180.029 875.542 179.591 875.731 179.15 875.731ZM214.185 869.614C213.901 869.614 213.614 869.535 213.359 869.369C212.565 868.851 211.737 868.374 210.897 867.951C210.15 867.573 209.85 866.661 210.228 865.912C210.606 865.167 211.517 864.862 212.266 865.241C213.204 865.714 214.129 866.246 215.015 866.825C215.718 867.283 215.917 868.224 215.458 868.925C215.167 869.373 214.683 869.614 214.185 869.614ZM188.41 868.172C187.858 868.172 187.325 867.87 187.056 867.344C186.675 866.597 186.973 865.683 187.72 865.302C188.665 864.821 189.643 864.388 190.628 864.021C191.411 863.727 192.287 864.124 192.581 864.911C192.874 865.695 192.477 866.57 191.69 866.864C190.813 867.192 189.94 867.576 189.096 868.007C188.878 868.119 188.641 868.172 188.41 868.172ZM202.991 865.518C202.932 865.518 202.872 865.515 202.813 865.507C201.899 865.401 200.97 865.348 200.052 865.348C199.214 865.348 198.502 864.668 198.502 863.83C198.502 862.992 199.151 862.312 199.988 862.312H200.052C201.087 862.312 202.135 862.373 203.164 862.493C203.996 862.588 204.594 863.341 204.496 864.174C204.408 864.949 203.75 865.518 202.991 865.518Z" fill="#F4BF1A"/>
<path d="M162.863 898.018H153.759C153.789 899.039 153.847 900.052 153.94 901.053H163.051C162.957 900.052 162.895 899.039 162.863 898.018Z" fill="#DCA815"/>
<path d="M163.211 890.429H154.11C153.984 891.429 153.893 892.443 153.831 893.464H162.936C163 892.443 163.085 891.429 163.211 890.429Z" fill="#DCA815"/>
<path d="M163.698 905.607H154.589C154.787 906.633 155.014 907.646 155.274 908.643H164.38C164.122 907.646 163.895 906.633 163.698 905.607Z" fill="#DCA815"/>
<path d="M165.821 913.196H156.708C157.095 914.231 157.523 915.241 157.979 916.232H167.087C166.632 915.242 166.209 914.23 165.821 913.196Z" fill="#DCA815"/>
<path d="M164.797 882.839H155.7C155.404 883.837 155.128 884.846 154.897 885.875H164.015C164.246 884.849 164.502 883.834 164.797 882.839Z" fill="#DCA815"/>
<path d="M167.82 875.25H158.713C158.212 876.238 157.74 877.249 157.309 878.286H166.423C166.854 877.251 167.32 876.238 167.82 875.25Z" fill="#DCA815"/>
<path d="M174.015 866.143H164.897C164.033 867.108 163.212 868.12 162.435 869.178H171.55C172.328 868.12 173.151 867.108 174.015 866.143Z" fill="#DCA815"/>
<path d="M183.296 858.554H174.17C172.618 859.449 171.131 860.463 169.713 861.589H178.834C180.253 860.463 181.744 859.449 183.296 858.554Z" fill="#DCA815"/>
<path d="M170.485 922.304H161.373C162.077 923.356 162.821 924.368 163.607 925.339H172.725C171.939 924.368 171.19 923.356 170.485 922.304Z" fill="#DCA815"/>
<path d="M167.924 929.893C169.143 930.99 170.419 932.008 171.755 932.928H180.883C179.542 932.007 178.251 930.995 177.028 929.893H167.924Z" fill="#DCA815"/>
</g>
<defs>
<filter id="filter0_d" x="851.008" y="573.009" width="678.614" height="327.786" filterUnits="userSpaceOnUse" color-interpolation-filters="sRGB">
<feFlood flood-opacity="0" result="BackgroundImageFix"/>
<feColorMatrix in="SourceAlpha" type="matrix" values="0 0 0 0 0 0 0 0 0 0 0 0 0 0 0 0 0 0 127 0"/>
<feOffset dx="40" dy="40"/>
<feGaussianBlur stdDeviation="45"/>
<feColorMatrix type="matrix" values="0 0 0 0 0.081059 0 0 0 0 0.242199 0 0 0 0 0.670833 0 0 0 0.19 0"/>
<feBlend mode="normal" in2="BackgroundImageFix" result="effect1_dropShadow"/>
<feBlend mode="normal" in="SourceGraphic" in2="effect1_dropShadow" result="shape"/>
</filter>
<filter id="filter1_d" x="783.495" y="775.495" width="740.328" height="457.261" filterUnits="userSpaceOnUse" color-interpolation-filters="sRGB">
<feFlood flood-opacity="0" result="BackgroundImageFix"/>
<feColorMatrix in="SourceAlpha" type="matrix" values="0 0 0 0 0 0 0 0 0 0 0 0 0 0 0 0 0 0 127 0"/>
<feOffset dx="90" dy="90"/>
<feGaussianBlur stdDeviation="60"/>
<feColorMatrix type="matrix" values="0 0 0 0 0.184314 0 0 0 0 0.380392 0 0 0 0 0.901961 0 0 0 0.14 0"/>
<feBlend mode="normal" in2="BackgroundImageFix" result="effect1_dropShadow"/>
<feBlend mode="normal" in="SourceGraphic" in2="effect1_dropShadow" result="shape"/>
</filter>
<filter id="filter2_d" x="343" y="428.196" width="491.43" height="491.43" filterUnits="userSpaceOnUse" color-interpolation-filters="sRGB">
<feFlood flood-opacity="0" result="BackgroundImageFix"/>
<feColorMatrix in="SourceAlpha" type="matrix" values="0 0 0 0 0 0 0 0 0 0 0 0 0 0 0 0 0 0 127 0"/>
<feOffset dx="20" dy="40"/>
<feGaussianBlur stdDeviation="60"/>
<feColorMatrix type="matrix" values="0 0 0 0 0.134896 0 0 0 0 0.308649 0 0 0 0 0.770833 0 0 0 0.15 0"/>
<feBlend mode="normal" in2="BackgroundImageFix" result="effect1_dropShadow"/>
<feBlend mode="normal" in="SourceGraphic" in2="effect1_dropShadow" result="shape"/>
</filter>
<filter id="filter3_d" x="803" y="799" width="230" height="230" filterUnits="userSpaceOnUse" color-interpolation-filters="sRGB">
<feFlood flood-opacity="0" result="BackgroundImageFix"/>
<feColorMatrix in="SourceAlpha" type="matrix" values="0 0 0 0 0 0 0 0 0 0 0 0 0 0 0 0 0 0 127 0"/>
<feOffset dy="4"/>
<feGaussianBlur stdDeviation="30"/>
<feColorMatrix type="matrix" values="0 0 0 0 0.184314 0 0 0 0 0.380392 0 0 0 0 0.901961 0 0 0 0.33 0"/>
<feBlend mode="normal" in2="BackgroundImageFix" result="effect1_dropShadow"/>
<feBlend mode="normal" in="SourceGraphic" in2="effect1_dropShadow" result="shape"/>
</filter>
<filter id="filter4_d" x="324.189" y="121.555" width="478.801" height="478.856" filterUnits="userSpaceOnUse" color-interpolation-filters="sRGB">
<feFlood flood-opacity="0" result="BackgroundImageFix"/>
<feColorMatrix in="SourceAlpha" type="matrix" values="0 0 0 0 0 0 0 0 0 0 0 0 0 0 0 0 0 0 127 0"/>
<feOffset dx="15" dy="46"/>
<feGaussianBlur stdDeviation="50"/>
<feColorMatrix type="matrix" values="0 0 0 0 0.184314 0 0 0 0 0.380392 0 0 0 0 0.901961 0 0 0 0.2 0"/>
<feBlend mode="normal" in2="BackgroundImageFix" result="effect1_dropShadow"/>
<feBlend mode="normal" in="SourceGraphic" in2="effect1_dropShadow" result="shape"/>
</filter>
<filter id="filter5_d" x="279.479" y="707.749" width="212.238" height="187.297" filterUnits="userSpaceOnUse" color-interpolation-filters="sRGB">
<feFlood flood-opacity="0" result="BackgroundImageFix"/>
<feColorMatrix in="SourceAlpha" type="matrix" values="0 0 0 0 0 0 0 0 0 0 0 0 0 0 0 0 0 0 127 0"/>
<feOffset dy="4"/>
<feGaussianBlur stdDeviation="17"/>
<feColorMatrix type="matrix" values="0 0 0 0 0.368262 0 0 0 0 0.895833 0 0 0 0 0.182899 0 0 0 0.16 0"/>
<feBlend mode="normal" in2="BackgroundImageFix" result="effect1_dropShadow"/>
<feBlend mode="normal" in="SourceGraphic" in2="effect1_dropShadow" result="shape"/>
</filter>
<filter id="filter6_d" x="291.667" y="995.195" width="327.007" height="327.007" filterUnits="userSpaceOnUse" color-interpolation-filters="sRGB">
<feFlood flood-opacity="0" result="BackgroundImageFix"/>
<feColorMatrix in="SourceAlpha" type="matrix" values="0 0 0 0 0 0 0 0 0 0 0 0 0 0 0 0 0 0 127 0"/>
<feOffset dy="53"/>
<feGaussianBlur stdDeviation="32"/>
<feColorMatrix type="matrix" values="0 0 0 0 0.241667 0 0 0 0 0.439754 0 0 0 0 0.966667 0 0 0 0.21 0"/>
<feBlend mode="normal" in2="BackgroundImageFix" result="effect1_dropShadow"/>
<feBlend mode="normal" in="SourceGraphic" in2="effect1_dropShadow" result="shape"/>
</filter>
<filter id="filter7_d" x="269.122" y="431.269" width="121.003" height="121.003" filterUnits="userSpaceOnUse" color-interpolation-filters="sRGB">
<feFlood flood-opacity="0" result="BackgroundImageFix"/>
<feColorMatrix in="SourceAlpha" type="matrix" values="0 0 0 0 0 0 0 0 0 0 0 0 0 0 0 0 0 0 127 0"/>
<feOffset dy="10"/>
<feGaussianBlur stdDeviation="10.5"/>
<feColorMatrix type="matrix" values="0 0 0 0 0.184314 0 0 0 0 0.380392 0 0 0 0 0.901961 0 0 0 0.2 0"/>
<feBlend mode="normal" in2="BackgroundImageFix" result="effect1_dropShadow"/>
<feBlend mode="normal" in="SourceGraphic" in2="effect1_dropShadow" result="shape"/>
</filter>
<filter id="filter8_d" x="196.814" y="601.708" width="99.4085" height="93.8286" filterUnits="userSpaceOnUse" color-interpolation-filters="sRGB">
<feFlood flood-opacity="0" result="BackgroundImageFix"/>
<feColorMatrix in="SourceAlpha" type="matrix" values="0 0 0 0 0 0 0 0 0 0 0 0 0 0 0 0 0 0 127 0"/>
<feOffset dx="20" dy="-20"/>
<feGaussianBlur stdDeviation="2"/>
<feColorMatrix type="matrix" values="0 0 0 0 0.917647 0 0 0 0 0.933333 0 0 0 0 0.976471 0 0 0 1 0"/>
<feBlend mode="normal" in2="BackgroundImageFix" result="effect1_dropShadow"/>
<feBlend mode="normal" in="SourceGraphic" in2="effect1_dropShadow" result="shape"/>
</filter>
<filter id="filter9_d" x="382.78" y="743.887" width="412.372" height="364.272" filterUnits="userSpaceOnUse" color-interpolation-filters="sRGB">
<feFlood flood-opacity="0" result="BackgroundImageFix"/>
<feColorMatrix in="SourceAlpha" type="matrix" values="0 0 0 0 0 0 0 0 0 0 0 0 0 0 0 0 0 0 127 0"/>
<feOffset dx="20" dy="22"/>
<feGaussianBlur stdDeviation="50"/>
<feColorMatrix type="matrix" values="0 0 0 0 0.184314 0 0 0 0 0.380392 0 0 0 0 0.901961 0 0 0 0.31 0"/>
<feBlend mode="normal" in2="BackgroundImageFix" result="effect1_dropShadow"/>
<feBlend mode="normal" in="SourceGraphic" in2="effect1_dropShadow" result="shape"/>
</filter>
<filter id="filter10_d" x="786.269" y="169.268" width="465.829" height="465.708" filterUnits="userSpaceOnUse" color-interpolation-filters="sRGB">
<feFlood flood-opacity="0" result="BackgroundImageFix"/>
<feColorMatrix in="SourceAlpha" type="matrix" values="0 0 0 0 0 0 0 0 0 0 0 0 0 0 0 0 0 0 127 0"/>
<feOffset dx="-20" dy="30"/>
<feGaussianBlur stdDeviation="60"/>
<feColorMatrix type="matrix" values="0 0 0 0 0.184314 0 0 0 0 0.380392 0 0 0 0 0.901961 0 0 0 0.33 0"/>
<feBlend mode="normal" in2="BackgroundImageFix" result="effect1_dropShadow"/>
<feBlend mode="normal" in="SourceGraphic" in2="effect1_dropShadow" result="shape"/>
</filter>
<linearGradient id="paint0_linear" x1="354" y1="926" x2="641" y2="892.5" gradientUnits="userSpaceOnUse">
<stop stop-color="#FDDAC6"/>
<stop offset="1" stop-color="#F9BFA2"/>
</linearGradient>
<linearGradient id="paint1_linear" x1="389.5" y1="1720" x2="576.462" y2="1786.5" gradientUnits="userSpaceOnUse">
<stop stop-color="#FDDAC6"/>
<stop offset="1" stop-color="#F9BFA2"/>
</linearGradient>
<linearGradient id="paint2_linear" x1="620.5" y1="1319.5" x2="880" y2="1428" gradientUnits="userSpaceOnUse">
<stop stop-color="#FDDAC5"/>
<stop offset="1" stop-color="#FFC7AE"/>
</linearGradient>
<linearGradient id="paint3_linear" x1="1152.99" y1="622" x2="674.787" y2="384.599" gradientUnits="userSpaceOnUse">
<stop stop-color="#2F61E6"/>
<stop offset="1" stop-color="#2F61E6" stop-opacity="0"/>
</linearGradient>
<linearGradient id="paint4_linear" x1="1323.83" y1="751.527" x2="1339.98" y2="756.772" gradientUnits="userSpaceOnUse">
<stop stop-color="#2F61E6"/>
<stop offset="0.541667" stop-color="#81A2FB"/>
<stop offset="1" stop-color="#D3DFFF"/>
</linearGradient>
<linearGradient id="paint5_linear" x1="1340.85" y1="729.381" x2="1348.1" y2="743.692" gradientUnits="userSpaceOnUse">
<stop stop-color="#2F61E6"/>
<stop offset="0.541667" stop-color="#81A2FB"/>
<stop offset="1" stop-color="#D3DFFF"/>
</linearGradient>
<linearGradient id="paint6_linear" x1="1371.02" y1="720.365" x2="1365.97" y2="735.295" gradientUnits="userSpaceOnUse">
<stop stop-color="#2F61E6"/>
<stop offset="0.541667" stop-color="#81A2FB"/>
<stop offset="1" stop-color="#D3DFFF"/>
</linearGradient>
<linearGradient id="paint7_linear" x1="427.908" y1="436.244" x2="686.279" y2="212.626" gradientUnits="userSpaceOnUse">
<stop stop-color="#FFDD55"/>
<stop offset="0.5" stop-color="#FF543E"/>
<stop offset="1" stop-color="#C837AB"/>
</linearGradient>
<clipPath id="clip0">
<rect width="1542" height="1472" fill="white"/>
</clipPath>
<clipPath id="clip1">
<rect x="514.678" y="508.196" width="193.516" height="193.516" rx="37" transform="rotate(21.7403 514.678 508.196)" fill="white"/>
</clipPath>
<clipPath id="clip2">
<rect width="113" height="113" fill="white" transform="translate(961 354.5) rotate(-30)"/>
</clipPath>
</defs>
</svg>
