<svg width="2048" height="1948" viewBox="0 0 2048 1948" fill="none" xmlns="http://www.w3.org/2000/svg">
<g clip-path="url(#clip0)">
<path d="M478.767 1366.85C519.167 1507.65 746.333 1570.17 832.5 1599C832.5 1599 1084.73 1625 1106.5 1625C1326.12 1625 1408.5 1647.5 1408.5 1647.5C1519.83 1543.33 1790.01 1366.85 1772.27 1129.85C1758.27 942.847 1635.77 968.347 1563.77 738.347C1491.77 508.347 1380.27 404.347 1132.77 382.847C885.267 361.347 730.267 465.347 654.767 569.347C579.267 673.347 582.767 867.847 507.267 968.347C431.767 1068.85 428.267 1190.85 478.767 1366.85Z" fill="url(#paint0_linear)" fill-opacity="0.38"/>
<path d="M489.184 962.001C555.5 1030.5 608 1033 628.5 1166C646.165 1280.61 628.555 1395.3 608 1390" stroke="#2F61E6" stroke-opacity="0.4" stroke-width="6" stroke-linecap="round" stroke-dasharray="20 20"/>
<mask id="mask0" mask-type="alpha" maskUnits="userSpaceOnUse" x="1033" y="766" width="191" height="190">
<path fill-rule="evenodd" clip-rule="evenodd" d="M1043.25 807.711C1045.1 842.039 1030.04 910.24 1033.76 930.303C1037.47 950.366 1062.89 954.813 1114.88 955.951C1166.85 957.089 1209.91 928.954 1220.42 913.062C1230.91 897.172 1214.57 813.18 1215.17 786.383C1215.76 759.587 1062.68 768.35 1062.68 768.35C1062.68 768.35 1041.4 773.382 1043.25 807.711Z" fill="#FDDAC6"/>
</mask>
<g mask="url(#mask0)">
<path fill-rule="evenodd" clip-rule="evenodd" d="M1043.25 807.711C1045.1 842.039 1030.04 910.24 1033.76 930.303C1037.47 950.366 1062.89 954.813 1114.88 955.951C1166.85 957.089 1209.91 928.954 1220.42 913.062C1230.91 897.172 1214.57 813.18 1215.17 786.383C1215.76 759.587 1062.68 768.35 1062.68 768.35C1062.68 768.35 1041.4 773.382 1043.25 807.711Z" fill="#FDDAC6"/>
<path d="M1137.81 880.979C1057.3 911.492 1018.84 874.698 1009.68 852.486L1020.05 740.05L1243.69 734.027L1248.69 826.913C1245.28 832.221 1218.33 850.466 1137.81 880.979Z" fill="#F5B591"/>
</g>
<path fill-rule="evenodd" clip-rule="evenodd" d="M1278.34 651.832C1281.18 650.323 1282.65 647.614 1286.36 646.377C1296.76 642.906 1315.8 642.647 1325.07 649.607C1329.15 652.675 1333.13 655.939 1336.18 660.01C1348.97 677.065 1333.87 702.694 1319.33 712.389C1308.5 719.618 1292.95 721 1280.26 721C1277.78 721 1267 720.761 1267 718.848" fill="#FDDAC6"/>
<path d="M1308 661C1317 671.057 1324.41 674.762 1317.53 695.935" stroke="#F5B591" stroke-width="10" stroke-linecap="round"/>
<path fill-rule="evenodd" clip-rule="evenodd" d="M961.984 651.438C960.86 649.587 958.228 647.329 954.088 645.914C950.09 644.55 930.911 642.584 921.095 645.543C913.383 647.87 906.711 652.207 903.04 659.28C894.86 675.075 897.762 689.757 903.78 698.038C915.318 713.945 932.662 726.086 951.797 722.304C954.742 721.722 972 722.287 972 720.877" fill="#FDDAC6"/>
<path d="M928.227 661C919.228 671.057 911.818 674.762 918.699 695.935" stroke="#F5B591" stroke-width="10" stroke-linecap="round"/>
<mask id="mask1" mask-type="alpha" maskUnits="userSpaceOnUse" x="961" y="490" width="322" height="365">
<path fill-rule="evenodd" clip-rule="evenodd" d="M964.829 586.788C957.665 651.297 958.845 719.188 983.322 768.363C1001.52 804.914 1025.18 855 1119.22 855C1203.64 855 1248.29 811.165 1262.82 750.511C1277.34 689.857 1286.92 630.751 1281.44 599.02C1275.96 567.289 1204.39 495.482 1151.31 491.448C1098.21 487.413 1008.14 511.398 992.551 532.457C976.963 553.517 971.993 522.277 964.829 586.788Z" fill="#FDDAC6"/>
</mask>
<g mask="url(#mask1)">
<path fill-rule="evenodd" clip-rule="evenodd" d="M964.829 586.788C957.665 651.297 958.845 719.188 983.322 768.363C1001.52 804.914 1025.18 855 1119.22 855C1203.64 855 1248.29 811.165 1262.82 750.511C1277.34 689.857 1286.92 630.751 1281.44 599.02C1275.96 567.289 1204.39 495.482 1151.31 491.448C1098.21 487.413 1008.14 511.398 992.551 532.457C976.963 553.517 971.993 522.277 964.829 586.788Z" fill="#FDDAC6"/>
<ellipse cx="988.503" cy="709.402" rx="48.5032" ry="52.4025" fill="url(#paint1_radial)"/>
<ellipse cx="1213.87" cy="736.927" rx="60.2615" ry="65.1062" fill="url(#paint2_radial)"/>
</g>
<ellipse cx="1042.04" cy="670.7" rx="8" ry="9.5" fill="black"/>
<ellipse cx="1169.5" cy="672" rx="7.5" ry="10" fill="black"/>
<path d="M1168.22 614.006C1166.01 613.886 1164.13 615.577 1164.01 617.783C1163.89 619.989 1165.58 621.874 1167.78 621.994L1168.22 614.006ZM1196.9 627.205L1194.6 630.484L1196.9 627.205ZM1206.44 643.82C1207.44 645.787 1209.85 646.567 1211.82 645.562C1213.79 644.557 1214.57 642.147 1213.56 640.18L1206.44 643.82ZM1167.78 621.994C1177.29 622.511 1187.71 625.666 1194.6 630.484L1199.19 623.927C1190.82 618.079 1178.87 614.585 1168.22 614.006L1167.78 621.994ZM1194.6 630.484C1203.17 636.469 1206.16 643.28 1206.44 643.82L1213.56 640.18C1213.56 640.184 1213.56 640.177 1213.5 640.046C1213.45 639.944 1213.38 639.808 1213.3 639.645C1213.13 639.317 1212.91 638.886 1212.62 638.373C1212.04 637.345 1211.21 635.994 1210.07 634.45C1207.8 631.361 1204.3 627.502 1199.19 623.927L1194.6 630.484Z" fill="black"/>
<path d="M1057.75 611.899C1059.92 612.33 1061.32 614.437 1060.89 616.603C1060.46 618.77 1058.35 620.176 1056.18 619.744L1057.75 611.899ZM1031.2 618.794L1029.76 615.062L1031.2 618.794ZM1020.02 631.887C1018.57 633.554 1016.04 633.73 1014.37 632.28C1012.71 630.83 1012.53 628.303 1013.98 626.637L1020.02 631.887ZM1056.18 619.744C1047.54 618.02 1037.96 620.474 1032.64 622.526L1029.76 615.062C1035.67 612.784 1046.93 609.743 1057.75 611.899L1056.18 619.744ZM1032.64 622.526C1025.74 625.188 1020.52 631.31 1020.02 631.887L1013.98 626.637C1014.45 626.098 1020.81 618.514 1029.76 615.062L1032.64 622.526Z" fill="black"/>
<path d="M1106.85 661C1102.71 674.621 1095 699.75 1095 706.795C1095 715.336 1109.85 719.242 1117 723" stroke="#F5B591" stroke-width="9" stroke-linecap="round"/>
<path d="M1116.58 749.681C1092.62 751.25 1068.54 740.596 1057.13 737C1057.13 737 1051.32 810.319 1116.58 805.799C1181.85 801.279 1173.67 737 1173.67 737C1161.4 743.212 1140.55 748.112 1116.58 749.681Z" fill="#F5B591"/>
<path d="M1324.04 648.797C1323.99 648.842 1323.95 648.881 1323.91 648.916L1313.7 644.541L1313.64 644.518L1313.59 644.508C1303.35 642.716 1295.98 648.321 1290.89 652.327C1290.78 652.419 1290.66 652.509 1290.55 652.599C1289.41 653.497 1288.39 654.294 1287.48 654.907C1286.47 655.587 1285.65 655.989 1284.99 656.073C1284.67 656.113 1284.39 656.079 1284.14 655.972C1283.89 655.865 1283.64 655.671 1283.39 655.346C1282.88 654.68 1282.42 653.518 1282.03 651.652C1280.44 644.067 1278.44 639.961 1276.03 637.104C1274.84 635.68 1273.55 634.582 1272.2 633.526C1271.78 633.192 1271.35 632.865 1270.91 632.533C1269.96 631.809 1268.99 631.066 1267.97 630.196L1267.92 630.159L1267.88 630.133C1265.01 628.624 1261.09 626.714 1257.37 625.048C1253.66 623.386 1250.11 621.948 1247.99 621.399C1245.85 620.846 1241.81 619.773 1237.92 616.799C1234.04 613.841 1230.28 608.977 1228.74 600.788C1229.14 578.308 1224.71 565.708 1216.75 558.911C1208.8 552.121 1197.47 551.254 1184.45 551.841C1180.27 552.029 1175.93 552.366 1171.44 552.713C1161.86 553.455 1151.66 554.246 1141.25 553.73C1126 552.976 1110.38 549.418 1095.84 538.808C1086.92 532.3 1078.2 529.158 1069.75 528.672C1061.31 528.186 1053.17 530.355 1045.43 534.409C1029.96 542.507 1015.99 558.152 1004.07 575.336C992.144 592.531 982.228 611.325 974.878 625.781C973.73 628.04 972.645 630.191 971.625 632.214C969.378 636.67 967.446 640.501 965.848 643.474C964.685 645.636 963.71 647.325 962.925 648.463C962.532 649.034 962.2 649.447 961.929 649.709C961.845 649.79 961.772 649.851 961.71 649.897C922.117 587.021 939.27 535.814 948.415 508.516C949.385 505.618 950.266 502.99 950.978 500.646C955.757 484.928 970.072 466.631 987.035 452.099C995.509 444.84 1004.62 438.537 1013.51 433.976C1022.4 429.412 1031.03 426.609 1038.54 426.314C1045.55 426.038 1051.31 425.951 1056.27 425.876C1072.81 425.625 1080.5 425.509 1095.96 419.004C1097.69 418.276 1099.69 417.41 1101.91 416.445C1112.55 411.822 1128.39 404.942 1145.19 400.243C1165.53 394.556 1187.1 392.117 1202.51 400.59C1219.95 410.181 1228.09 419.36 1235.2 429.122C1236.56 430.993 1237.88 432.888 1239.23 434.813C1244.92 442.951 1250.99 451.632 1261.79 461.311C1268.48 467.317 1276.78 472.065 1285.53 476.743C1287.08 477.573 1288.65 478.402 1290.23 479.235C1297.55 483.1 1305.05 487.063 1312.16 491.798C1329.39 503.284 1344.24 519.284 1348.06 549.313C1352.63 585.271 1346.5 610.239 1339.26 626.203C1335.63 634.187 1331.73 639.925 1328.73 643.661C1327.24 645.53 1325.97 646.898 1325.08 647.797C1324.63 648.247 1324.28 648.579 1324.04 648.797Z" fill="black" stroke="black"/>
<path d="M602.5 542.134C602.5 656.795 602.5 720 676.5 826L915.215 1087.76L1153 1095.5L1354.5 989.5L1756.65 761L1835.5 616L1503.5 347.5L602.5 320.5C579.695 327.341 602.5 453.5 602.5 542.133V542.134Z" fill="url(#paint3_linear)"/>
<path d="M495 520.32C514.556 507.107 563.084 484.349 600.748 499.013C638.411 513.678 650.172 526.668 651.345 531.331" stroke="#2F61E6" stroke-opacity="0.4" stroke-width="6" stroke-linecap="round" stroke-dasharray="20 20"/>
<path d="M903.773 379C907.308 402.334 907.026 455.933 877.61 483.652C848.194 511.37 831.412 516.414 826.698 515.472" stroke="#2F61E6" stroke-opacity="0.4" stroke-width="6" stroke-linecap="round" stroke-dasharray="20 20"/>
<path d="M1752.26 876.808C1775.07 882.885 1824.09 904.546 1837.76 942.583C1851.43 980.62 1849.35 998.02 1846.6 1001.97" stroke="#2F61E6" stroke-opacity="0.4" stroke-width="6" stroke-linecap="round" stroke-dasharray="20 20"/>
<path d="M1646 796C1629.63 796.062 1591.69 790.201 1570.91 766.259C1550.14 742.318 1545.91 729.797 1546.39 726.529" stroke="#2F61E6" stroke-opacity="0.4" stroke-width="6" stroke-linecap="round" stroke-dasharray="20 20"/>
<path d="M1551.12 617.799C1547.46 605.487 1543.57 576.576 1557.34 559.42C1571.11 542.265 1579.78 538.283 1582.39 538.436" stroke="#2F61E6" stroke-opacity="0.4" stroke-width="6" stroke-linecap="round" stroke-dasharray="20 20"/>
<path fill-rule="evenodd" clip-rule="evenodd" d="M568.573 1072.2C568.573 1072.2 577.392 1132.69 598.278 1163.91C619.163 1195.14 654.901 1265.69 654.901 1265.69C654.901 1265.69 560.634 1326.33 500.97 1341.87C441.305 1357.4 384.486 1394.42 346.637 1360.74C308.788 1327.06 312.51 1325.57 295.475 1299C278.44 1272.43 245.203 1147.36 234.508 1073.33C223.814 999.303 210.856 854.945 210.255 853.278C209.653 851.612 173.553 801.036 164.291 773.722C155.027 746.408 143.566 696.851 147.973 680.018C152.382 663.184 182.252 633.767 210.185 618.632C238.117 603.499 272.741 592.639 272.741 592.639C272.741 592.639 289.798 630.819 290.489 632.553C295.716 645.663 318.523 664.153 325.541 668.506C332.559 672.858 332.268 729.591 322.753 756.868C313.238 784.143 309.273 828.321 309.273 828.321C309.273 828.321 377.113 1035.1 390.456 1070.78C403.798 1106.45 408.52 1118.77 408.52 1118.77L416.507 1144L568.573 1072.2Z" fill="url(#paint4_linear)"/>
<path fill-rule="evenodd" clip-rule="evenodd" d="M1033.37 892C1033.37 892 933 898.072 854 925.795C775 953.517 669.196 1001.65 645.397 1015.21C621.599 1028.78 554 1063.79 554 1063.79C554 1063.79 564.257 1117.28 594.039 1187.06C614.396 1234.75 644.032 1274.25 644.032 1274.25C644.032 1274.25 694.035 1249.54 730.146 1234.14C766.256 1218.74 813.79 1202.9 813.79 1202.9C813.79 1202.9 815.31 1297.8 820.887 1355.48C826.464 1413.16 833.129 1588.79 838.254 1599.95C843.395 1611.12 1006.12 1655.22 1085.08 1650.58C1164.03 1645.94 1254.44 1637.07 1266.41 1632.92C1278.38 1628.79 1288.24 1507.7 1291.41 1457.73C1294.57 1407.74 1290.88 1316.05 1290.88 1316.05C1290.88 1316.05 1350.24 1330.37 1388.5 1333.29C1426.77 1336.22 1491.22 1337.49 1491.22 1337.49C1491.22 1337.49 1504.42 1267.01 1510.06 1210.47C1516.52 1145.79 1526.57 1101.69 1510.06 1063.79C1482.5 1000.5 1445 991.795 1406.5 968.295C1360.14 939.997 1278.07 908.305 1249.63 900.769C1221.21 893.234 1221.72 893.833 1221.72 893.833C1221.72 893.833 1182.1 956.21 1122.03 953.945C1061.95 951.679 1033.37 892 1033.37 892Z" fill="url(#paint5_linear)"/>
<path d="M1145.33 1100.27C1156.41 1100.5 1165.34 1091.23 1164.7 1080.17L1158.01 965.001C1157.44 955.253 1149.58 947.522 1139.83 947.119L927.131 938.323C916.021 937.863 906.893 946.999 907.362 958.108L912.406 1077.54C912.829 1087.55 920.963 1095.52 930.987 1095.73L1145.33 1100.27Z" fill="#EAEEF9"/>
<mask id="mask2" mask-type="alpha" maskUnits="userSpaceOnUse" x="902" y="950" width="253" height="150">
<path d="M1135.2 1099.76C1146.32 1100.04 1155.3 1090.76 1154.65 1079.66L1148.72 977.529C1148.16 967.795 1140.31 960.069 1130.57 959.649L922.703 950.675C911.461 950.189 902.263 959.526 902.915 970.759L909.063 1076.59C909.636 1086.46 917.673 1094.24 927.549 1094.49L1135.2 1099.76Z" fill="#2F61E6"/>
<path d="M1135.2 1099.76C1146.32 1100.04 1155.3 1090.76 1154.65 1079.66L1148.72 977.529C1148.16 967.795 1140.31 960.069 1130.57 959.649L922.703 950.675C911.461 950.189 902.263 959.526 902.915 970.759L909.063 1076.59C909.636 1086.46 917.673 1094.24 927.549 1094.49L1135.2 1099.76Z" fill="#2F61E6"/>
</mask>
<g mask="url(#mask2)">
<path d="M1135.2 1099.76C1146.32 1100.04 1155.3 1090.76 1154.65 1079.66L1148.72 977.529C1148.16 967.795 1140.31 960.069 1130.57 959.649L922.703 950.675C911.461 950.189 902.263 959.526 902.915 970.759L909.063 1076.59C909.636 1086.46 917.673 1094.24 927.549 1094.49L1135.2 1099.76Z" fill="#2F61E6"/>
<path d="M1135.2 1099.76C1146.32 1100.04 1155.3 1090.76 1154.65 1079.66L1148.72 977.529C1148.16 967.795 1140.31 960.069 1130.57 959.649L922.703 950.675C911.461 950.189 902.263 959.526 902.915 970.759L909.063 1076.59C909.636 1086.46 917.673 1094.24 927.549 1094.49L1135.2 1099.76Z" fill="#2F61E6"/>
<path d="M1045.34 1060.12C1043.24 1072.27 975.638 1081.7 955.087 1092.91L881.537 1094.18L885.129 1000.81L938.601 912.565C970.407 928.414 1085.78 965.66 1073.58 985.861C1057.59 1012.33 1072.88 1008.21 1075.52 1019.3C1078.16 1030.4 1049.54 1035.84 1045.34 1060.12Z" fill="#08287B" fill-opacity="0.25"/>
</g>
<path d="M1123.42 1081.29C1129.25 1081.41 1133.94 1076.53 1133.6 1070.71L1132.21 1046.82C1131.91 1041.6 1127.65 1037.5 1122.42 1037.4L1097.35 1036.91C1091.53 1036.79 1086.84 1041.67 1087.17 1047.48L1088.56 1071.38C1088.87 1076.6 1093.13 1080.7 1098.35 1080.8L1123.42 1081.29Z" fill="#EAEEF9"/>
<circle r="7.5" transform="matrix(-0.0579926 -0.998317 -0.998317 0.0579926 1118.91 1067.87)" fill="black"/>
<path d="M1127.97 1168.73C1128.93 1167.01 1119.94 1117.29 1117 1099H1095L1091.96 1094.25C1091.96 1094.25 1052.5 1023.5 1049 1010.5C1045.9 999 1032.61 991.25 1027.36 1002.26C1020.32 1017.02 1047.88 1071.5 1039.31 1057.16C1030.75 1042.82 998.068 987.449 998.068 987.449C998.068 987.449 980.201 961.038 965.805 967.142C944.838 976.036 1006.95 1074.64 993.794 1060.75C980.635 1046.85 942.444 991.89 930.94 1008.72C923.887 1019.03 929.076 1023.01 947.585 1054.18C964.857 1083.29 1005.78 1119.25 989.183 1105.49C972.586 1091.73 940.355 1070.85 934.684 1079.84C929.012 1088.84 934.619 1095.93 953.691 1116.53C972.762 1137.13 1043.87 1210.45 1049.56 1219.29C1055.25 1228.13 1185.83 1477.88 1249.71 1575.65C1313.59 1673.42 1333.5 1661.5 1365.5 1661.5C1411.5 1661.5 1431.61 1629.04 1444.5 1605.5C1457.39 1581.98 1475.4 1464.55 1479 1439C1482.6 1413.45 1492.5 1336 1492.5 1336C1492.5 1336 1419.5 1335.59 1383 1331C1346.5 1326.41 1290.13 1312.4 1290.41 1315.14C1290.68 1317.88 1287.51 1353.86 1287.51 1353.86C1287.51 1353.86 1235.23 1305.34 1217.7 1283.04C1200.17 1260.74 1135.86 1191.16 1135.86 1191.16C1135.86 1191.16 1127.01 1170.45 1127.97 1168.73Z" fill="url(#paint6_linear)"/>
<path fill-rule="evenodd" clip-rule="evenodd" d="M1254.22 1321.3C1254.8 1321.72 1255.81 1322.22 1256.04 1322.38C1257.45 1323.43 1258.9 1324.44 1260.28 1325.53C1261.25 1326.28 1262.16 1327.08 1263.04 1327.94C1265.21 1330.1 1267.33 1332.35 1269.42 1334.64C1274.21 1339.91 1278.82 1345.42 1283.64 1350.57C1290.36 1357.76 1296.61 1365.13 1302.59 1372.64C1311.6 1383.94 1320.03 1395.57 1328.85 1407.3C1331.02 1410.21 1337.18 1416.57 1340.99 1422.23C1343.15 1425.49 1344.52 1428.59 1344.47 1430.74C1344.47 1431.72 1343.68 1432.51 1342.7 1432.51C1341.72 1432.51 1340.92 1431.72 1340.92 1430.74C1340.89 1429.09 1339.48 1426.9 1337.76 1424.46C1333.85 1418.92 1327.84 1412.55 1325.69 1409.7C1316.9 1397.95 1308.47 1386.37 1299.56 1375.04C1293.68 1367.55 1287.61 1360.17 1281.04 1352.97C1276.28 1347.75 1271.72 1342.18 1266.96 1336.84C1264.96 1334.57 1262.9 1332.34 1260.78 1330.2L1254.18 1324.87C1253.69 1324.51 1251.73 1323.09 1251.3 1322.41C1250.48 1321.14 1250.98 1320.28 1252.01 1319.85C1252.78 1319.52 1253.68 1319.89 1254.01 1320.66L1253.87 1320.73C1253.73 1320.84 1253.85 1321.03 1254.14 1321.24C1254.14 1321.35 1254.13 1321.46 1254.11 1321.57C1254.14 1321.48 1254.19 1321.39 1254.22 1321.3L1254.14 1321.24C1254.14 1321.05 1254.1 1320.86 1254.01 1320.67V1320.66C1254.37 1320.5 1254.38 1320.85 1254.22 1321.3Z" fill="black"/>
<path fill-rule="evenodd" clip-rule="evenodd" d="M418.24 1143.12C415.724 1142.57 413.592 1143.65 411.86 1146.06C409.895 1148.8 408.418 1153.53 407.477 1159.2C404.7 1175.9 406.005 1200.93 406.007 1203.39C406.007 1204.36 406.794 1205.15 407.766 1205.15C408.736 1205.15 409.525 1204.36 409.525 1203.39C409.527 1200.96 408.471 1176.29 411 1159.76C411.776 1154.69 412.805 1150.39 414.495 1147.9C415.348 1146.64 416.33 1145.88 417.623 1146.13C418.455 1146.3 419.268 1145.76 419.437 1144.93C419.607 1144.1 419.071 1143.29 418.24 1143.12Z" fill="black"/>
<path d="M214.71 706.896L199.37 671.712C196.271 664.602 197.825 656.643 202.691 651.227C200.031 651.184 197.318 651.69 194.722 652.822C185.014 657.054 180.576 668.353 184.808 678.061L200.148 713.245C204.38 722.953 215.678 727.391 225.386 723.158C227.984 722.026 230.2 720.383 231.978 718.405C224.7 718.284 217.809 714.006 214.71 706.896Z" fill="#FFCEBF"/>
<path d="M249.088 689.807L233.749 654.622C230.65 647.513 232.204 639.553 237.07 634.138C234.409 634.094 231.697 634.6 229.101 635.732C219.393 639.965 214.955 651.263 219.187 660.971L234.527 696.155C238.759 705.863 250.057 710.301 259.765 706.069C262.363 704.936 264.579 703.294 266.357 701.315C259.079 701.194 252.188 696.917 249.088 689.807Z" fill="#FFCEBF"/>
<path d="M285.008 676.248L269.669 641.064C266.569 633.954 268.124 625.995 272.989 620.579C270.329 620.536 267.617 621.042 265.02 622.174C255.312 626.407 250.874 637.705 255.107 647.413L270.446 682.597C274.678 692.305 285.977 696.743 295.685 692.51C298.282 691.378 300.499 689.736 302.277 687.757C294.997 687.636 288.107 683.358 285.008 676.248Z" fill="#FFCEBF"/>
<path d="M179.564 722.219L164.225 687.034C161.125 679.926 162.68 671.967 167.541 666.553C164.88 666.509 162.167 667.015 159.57 668.147C149.868 672.377 145.43 683.675 149.663 693.383L165.002 728.567C169.234 738.275 180.533 742.713 190.234 738.483C192.833 737.35 195.049 735.708 196.828 733.728C189.552 733.605 182.663 729.328 179.564 722.219Z" fill="#FFCEBF"/>
<path d="M342.092 724.302L279.21 677.889C279.21 677.889 273.343 686.09 269.061 692.078C262.016 701.93 259.267 714.337 262.006 726.135C264.14 735.327 269.224 743.886 277.05 750.252L285.481 757.105L285.78 757.319C285.861 757.377 285.944 757.436 286.026 757.494C297.927 765.889 318.519 751.84 327 740L329.5 715.007L342.092 724.302Z" fill="#FCBCB1"/>
<path d="M272.056 678.417C270.294 676.932 267.642 677.264 266.301 679.136L263.106 683.597C260.622 687.064 256.976 689.193 253.079 689.837C249.09 690.496 244.842 689.594 241.331 686.976C234.549 681.917 233.294 672.223 238.221 665.344L251.197 647.228C254.102 643.173 258.034 640.128 262.466 638.302C266.906 636.474 271.846 635.865 276.766 636.703C280.671 637.363 284.372 638.908 287.594 641.216L322.175 665.986C325.818 668.596 328.446 672.385 329.615 676.709L329.615 708.5C329.882 709.301 330.034 709.755 330.505 710.452L329.615 725.5C326.5 739.5 325.5 751.5 312.5 749L284.66 740.89C271.594 730.262 269.057 711.305 278.86 697.619L284.873 689.224L272.056 678.417Z" fill="#FFDFCF"/>
<path d="M960 1021.5C974.833 1037.17 1007.9 1078 1009.5 1082" stroke="black" stroke-width="3" stroke-linecap="round"/>
<path d="M954 1081.98C972.006 1093.86 1000.46 1114.26 1002.92 1117.8" stroke="black" stroke-width="3" stroke-linecap="round"/>
<path d="M1010.61 1012C1022.64 1029.9 1041.04 1059.69 1041.96 1063.9" stroke="black" stroke-width="3" stroke-linecap="round"/>
<path d="M1066 1047.94C1075.74 1067.19 1092.73 1097.8 1095.95 1100.66" stroke="black" stroke-width="3" stroke-linecap="round"/>
<g clip-path="url(#clip1)" filter="url(#filter0_d)">
<path d="M530.796 676.288L501.204 730.529L525.355 803.579L686.031 846.567L724.17 794.548L530.796 676.288Z" fill="#43C500"/>
<path d="M724.17 794.548L554.868 749.483L530.796 676.288L699.138 727.587L724.17 794.548Z" fill="#5EE42F"/>
<path d="M700.199 782.409L578.603 749.669C576.263 742.949 567.532 735.558 558.84 733.256L547.061 697.737C555.819 700.263 560.947 697.054 558.673 690.558L679.689 727.112C681.977 733.24 689.774 739.935 696.993 742.184L709.168 774.915C701.948 772.665 697.766 776.202 700.199 782.409Z" fill="#FCFCFD"/>
<path d="M659.989 746.02C664.617 758.867 655.74 765.85 639.75 761.443C623.392 757.023 606.364 742.478 601.749 729.262C597.279 716.124 606.879 709.537 623.145 714.47C639.123 719.244 655.506 733.251 659.989 746.02Z" fill="#5EE42F"/>
<path d="M582.774 723.79C583.839 726.998 581.498 728.537 577.409 727.432C573.319 726.327 569.243 722.79 568.178 719.581C567.113 716.372 569.599 714.913 573.544 715.939C577.699 717.267 581.775 720.805 582.774 723.79Z" fill="#5EE42F"/>
<path d="M690.062 754.543C691.061 757.528 689.234 759.159 685.657 758.146C682.08 757.133 678.359 753.977 677.36 750.991C676.361 748.006 678.333 746.455 681.765 747.389C685.342 748.402 688.984 751.703 690.062 754.543Z" fill="#5EE42F"/>
<path d="M645.761 748.017C643.96 742.718 637.017 736.866 630.521 735.011C627.747 734.248 624.814 731.709 624.012 729.395C623.21 727.08 624.946 725.963 627.721 726.726C629.18 727.147 630.627 727.936 631.836 729.159C633.48 730.618 635.742 731.289 636.649 730.658C637.556 730.027 637.175 728.318 635.387 726.779C633.454 725.162 631.442 723.689 629.194 722.65L628.523 720.782C627.984 719.362 626.13 717.599 624.158 717.087C622.264 716.429 621.199 717.349 621.738 718.769L622.409 720.637C617.846 720.4 615.544 722.898 617.082 727.304C618.883 732.603 625.826 738.455 632.467 740.389C635.241 741.152 638.174 743.69 638.975 746.005C639.777 748.32 638.186 749.516 635.411 748.753C633.952 748.332 632.506 747.543 631.217 746.465C629.573 745.005 627.311 744.334 626.404 744.965C625.497 745.596 626.023 747.384 627.666 748.844C629.599 750.462 631.756 752.013 633.86 752.974L634.53 754.841C634.99 756.406 637.068 758.103 638.896 758.537C640.868 759.05 641.854 758.274 641.394 756.71L640.724 754.842C644.918 755.066 647.299 752.422 645.761 748.017Z" fill="#FCFCFD"/>
</g>
<g clip-path="url(#clip2)" filter="url(#filter1_d)">
<path d="M1712.92 813.104L1732.48 848.973L1716.51 897.28L1610.26 925.707L1585.04 891.308L1712.92 813.104Z" fill="#43C500"/>
<path d="M1585.04 891.308L1697 861.507L1712.92 813.104L1601.59 847.028L1585.04 891.308Z" fill="#5EE42F"/>
<path d="M1600.89 883.281L1681.3 861.63C1682.85 857.186 1688.62 852.299 1694.37 850.777L1702.16 827.288C1696.37 828.958 1692.98 826.837 1694.48 822.541L1614.45 846.714C1612.94 850.766 1607.79 855.193 1603.01 856.68L1594.96 878.325C1599.74 876.837 1602.5 879.176 1600.89 883.281Z" fill="#FCFCFD"/>
<path d="M1627.48 859.217C1624.42 867.713 1630.29 872.33 1640.87 869.416C1651.68 866.493 1662.94 856.875 1666 848.135C1668.95 839.448 1662.6 835.091 1651.85 838.353C1641.28 841.511 1630.45 850.773 1627.48 859.217Z" fill="#5EE42F"/>
<path d="M1678.54 844.517C1677.84 846.639 1679.39 847.656 1682.09 846.925C1684.8 846.195 1687.49 843.855 1688.2 841.733C1688.9 839.612 1687.26 838.647 1684.65 839.325C1681.9 840.203 1679.2 842.543 1678.54 844.517Z" fill="#5EE42F"/>
<path d="M1607.6 864.853C1606.93 866.827 1608.14 867.906 1610.51 867.236C1612.87 866.566 1615.33 864.479 1616 862.505C1616.66 860.531 1615.35 859.505 1613.08 860.122C1610.72 860.792 1608.31 862.975 1607.6 864.853Z" fill="#5EE42F"/>
<path d="M1636.89 860.538C1638.08 857.033 1642.67 853.163 1646.97 851.937C1648.8 851.432 1650.74 849.754 1651.27 848.223C1651.8 846.693 1650.66 845.954 1648.82 846.458C1647.86 846.737 1646.9 847.258 1646.1 848.067C1645.01 849.032 1643.52 849.476 1642.92 849.059C1642.32 848.641 1642.57 847.511 1643.75 846.493C1645.03 845.424 1646.36 844.45 1647.85 843.763L1648.29 842.528C1648.65 841.589 1649.87 840.423 1651.18 840.084C1652.43 839.649 1653.13 840.258 1652.78 841.197L1652.33 842.432C1655.35 842.275 1656.87 843.927 1655.86 846.84C1654.66 850.345 1650.07 854.215 1645.68 855.494C1643.85 855.998 1641.91 857.677 1641.38 859.207C1640.85 860.738 1641.9 861.529 1643.73 861.024C1644.7 860.746 1645.66 860.224 1646.51 859.511C1647.6 858.546 1649.09 858.102 1649.69 858.519C1650.29 858.937 1649.94 860.119 1648.86 861.085C1647.58 862.154 1646.15 863.181 1644.76 863.815L1644.32 865.05C1644.01 866.086 1642.64 867.207 1641.43 867.494C1640.13 867.834 1639.47 867.321 1639.78 866.286L1640.22 865.051C1637.45 865.199 1635.87 863.451 1636.89 860.538Z" fill="#FCFCFD"/>
</g>
<g clip-path="url(#clip3)">
<path d="M1564.56 637.245L1574.41 655.312L1566.37 679.644L1512.85 693.963L1500.15 676.636L1564.56 637.245Z" fill="#43C500"/>
<path d="M1500.15 676.636L1556.54 661.625L1564.56 637.245L1508.48 654.332L1500.15 676.636Z" fill="#5EE42F"/>
<path d="M1508.13 672.593L1548.63 661.687C1549.41 659.449 1552.32 656.987 1555.22 656.22L1559.14 644.389C1556.22 645.231 1554.51 644.162 1555.27 641.998L1514.96 654.174C1514.2 656.215 1511.6 658.445 1509.2 659.194L1505.14 670.097C1507.55 669.347 1508.94 670.525 1508.13 672.593Z" fill="#FCFCFD"/>
<path d="M1521.52 660.472C1519.98 664.751 1522.94 667.077 1528.27 665.609C1533.71 664.137 1539.39 659.292 1540.92 654.89C1542.41 650.514 1539.21 648.32 1533.8 649.963C1528.47 651.553 1523.02 656.219 1521.52 660.472Z" fill="#5EE42F"/>
<path d="M1547.24 653.067C1546.89 654.136 1547.67 654.649 1549.03 654.281C1550.39 653.913 1551.75 652.734 1552.11 651.666C1552.46 650.597 1551.63 650.111 1550.32 650.452C1548.93 650.895 1547.58 652.073 1547.24 653.067Z" fill="#5EE42F"/>
<path d="M1511.51 663.311C1511.17 664.305 1511.78 664.848 1512.97 664.511C1514.17 664.174 1515.41 663.122 1515.74 662.128C1516.07 661.134 1515.41 660.617 1514.27 660.928C1513.08 661.265 1511.87 662.365 1511.51 663.311Z" fill="#5EE42F"/>
<path d="M1526.26 661.137C1526.86 659.372 1529.18 657.423 1531.34 656.805C1532.26 656.551 1533.24 655.705 1533.51 654.934C1533.77 654.163 1533.2 653.791 1532.27 654.045C1531.79 654.186 1531.3 654.448 1530.9 654.856C1530.35 655.342 1529.6 655.565 1529.3 655.355C1529 655.145 1529.12 654.576 1529.72 654.063C1530.36 653.524 1531.03 653.034 1531.78 652.688L1532.01 652.066C1532.18 651.593 1532.8 651.005 1533.46 650.835C1534.09 650.615 1534.44 650.922 1534.27 651.395L1534.04 652.017C1535.56 651.938 1536.33 652.77 1535.82 654.238C1535.22 656.003 1532.9 657.952 1530.69 658.596C1529.77 658.851 1528.79 659.696 1528.52 660.467C1528.26 661.238 1528.79 661.637 1529.71 661.382C1530.2 661.242 1530.68 660.979 1531.11 660.62C1531.66 660.134 1532.41 659.91 1532.71 660.121C1533.01 660.331 1532.84 660.927 1532.29 661.413C1531.65 661.952 1530.93 662.468 1530.23 662.788L1530 663.41C1529.85 663.932 1529.16 664.497 1528.55 664.641C1527.89 664.812 1527.56 664.554 1527.72 664.033L1527.94 663.411C1526.54 663.485 1525.75 662.605 1526.26 661.137Z" fill="#FCFCFD"/>
</g>
<g filter="url(#filter2_d)">
<path d="M864 363C904.869 363 938 329.869 938 289C938 248.131 904.869 215 864 215C823.131 215 790 248.131 790 289C790 329.869 823.131 363 864 363Z" fill="#2F61E6" fill-opacity="0.8"/>
<path d="M864.006 349.861C897.619 349.861 924.867 322.613 924.867 289C924.867 255.387 897.619 228.139 864.006 228.139C830.393 228.139 803.145 255.387 803.145 289C803.145 322.613 830.393 349.861 864.006 349.861Z" fill="#2F61E6" fill-opacity="0.8"/>
<path d="M878.428 311.039H871.656V303.104C879.718 300.316 886.124 293.24 888.793 284.225C891.961 284.224 894.529 281.319 894.529 277.737C894.529 274.608 892.57 271.997 889.963 271.384C888.449 256.689 877.408 245.282 864.005 245.282C850.602 245.282 839.562 256.689 838.047 271.384C835.441 271.997 833.482 274.608 833.482 277.737C833.482 281.319 836.05 284.224 839.218 284.225C841.887 293.241 848.292 300.316 856.355 303.104V311.039H849.583C836.071 311.039 824.946 321.771 824.307 335.131C834.964 344.311 848.836 349.862 864.006 349.862C879.175 349.862 893.047 344.311 903.705 335.131C903.064 321.771 891.94 311.039 878.428 311.039Z" fill="white"/>
<path d="M879.345 311.062C874.97 315.898 869.69 318.724 864.005 318.724C858.321 318.724 853.041 315.898 848.666 311.062C835.572 311.535 824.932 322.075 824.306 335.131C834.964 344.311 848.836 349.862 864.005 349.862C879.175 349.862 893.047 344.311 903.704 335.131C903.079 322.075 892.438 311.535 879.345 311.062Z" fill="white"/>
</g>
<g filter="url(#filter3_d)">
<path d="M588.5 1632C643.452 1632 688 1587.45 688 1532.5C688 1477.55 643.452 1433 588.5 1433C533.548 1433 489 1477.55 489 1532.5C489 1587.45 533.548 1632 588.5 1632Z" fill="#2F61E6" fill-opacity="0.8"/>
<path d="M588.508 1614.33C633.703 1614.33 670.342 1577.7 670.342 1532.5C670.342 1487.3 633.703 1450.67 588.508 1450.67C543.312 1450.67 506.674 1487.3 506.674 1532.5C506.674 1577.7 543.312 1614.33 588.508 1614.33Z" fill="#2F61E6" fill-opacity="0.8"/>
<path d="M607.9 1562.13H598.794V1551.46C609.635 1547.72 618.247 1538.2 621.836 1526.08C626.096 1526.08 629.549 1522.17 629.549 1517.36C629.549 1513.15 626.915 1509.64 623.41 1508.81C621.374 1489.06 606.528 1473.72 588.507 1473.72C570.486 1473.72 555.64 1489.06 553.604 1508.81C550.099 1509.64 547.465 1513.15 547.465 1517.36C547.465 1522.17 550.918 1526.08 555.178 1526.08C558.767 1538.2 567.379 1547.72 578.22 1551.46V1562.13H569.114C550.947 1562.13 535.989 1576.56 535.128 1594.53C549.459 1606.87 568.111 1614.34 588.507 1614.34C608.904 1614.34 627.557 1606.87 641.886 1594.53C641.025 1576.56 626.067 1562.13 607.9 1562.13Z" fill="white"/>
<path d="M609.132 1562.16C603.25 1568.67 596.151 1572.47 588.507 1572.47C580.864 1572.47 573.765 1568.67 567.882 1562.16C550.276 1562.8 535.969 1576.97 535.128 1594.53C549.458 1606.87 568.111 1614.34 588.507 1614.34C608.904 1614.34 627.556 1606.87 641.886 1594.53C641.045 1576.97 626.738 1562.8 609.132 1562.16Z" fill="white"/>
</g>
<g filter="url(#filter4_d)">
<path d="M1756.5 1211C1811.45 1211 1856 1166.45 1856 1111.5C1856 1056.55 1811.45 1012 1756.5 1012C1701.55 1012 1657 1056.55 1657 1111.5C1657 1166.45 1701.55 1211 1756.5 1211Z" fill="#2F61E6" fill-opacity="0.8"/>
<path d="M1756.51 1193.33C1801.7 1193.33 1838.34 1156.7 1838.34 1111.5C1838.34 1066.3 1801.7 1029.67 1756.51 1029.67C1711.31 1029.67 1674.67 1066.3 1674.67 1111.5C1674.67 1156.7 1711.31 1193.33 1756.51 1193.33Z" fill="#2F61E6" fill-opacity="0.8"/>
<path d="M1775.9 1141.13H1766.79V1130.46C1777.63 1126.72 1786.25 1117.2 1789.84 1105.08C1794.1 1105.08 1797.55 1101.17 1797.55 1096.36C1797.55 1092.15 1794.91 1088.64 1791.41 1087.81C1789.37 1068.06 1774.53 1052.72 1756.51 1052.72C1738.49 1052.72 1723.64 1068.06 1721.6 1087.81C1718.1 1088.64 1715.47 1092.15 1715.47 1096.36C1715.47 1101.17 1718.92 1105.08 1723.18 1105.08C1726.77 1117.2 1735.38 1126.72 1746.22 1130.46V1141.13H1737.11C1718.95 1141.13 1703.99 1155.56 1703.13 1173.53C1717.46 1185.87 1736.11 1193.34 1756.51 1193.34C1776.9 1193.34 1795.56 1185.87 1809.89 1173.53C1809.03 1155.56 1794.07 1141.13 1775.9 1141.13Z" fill="white"/>
<path d="M1777.13 1141.16C1771.25 1147.67 1764.15 1151.47 1756.51 1151.47C1748.86 1151.47 1741.76 1147.67 1735.88 1141.16C1718.28 1141.8 1703.97 1155.97 1703.13 1173.53C1717.46 1185.87 1736.11 1193.34 1756.51 1193.34C1776.9 1193.34 1795.56 1185.87 1809.89 1173.53C1809.04 1155.97 1794.74 1141.8 1777.13 1141.16Z" fill="white"/>
</g>
<g filter="url(#filter5_d)">
<path d="M1637.5 549C1659.32 549 1677 531.315 1677 509.5C1677 487.685 1659.32 470 1637.5 470C1615.68 470 1598 487.685 1598 509.5C1598 531.315 1615.68 549 1637.5 549Z" fill="#2F61E6"/>
<path d="M1637.5 541.987C1655.45 541.987 1669.99 527.442 1669.99 509.5C1669.99 491.558 1655.45 477.013 1637.5 477.013C1619.56 477.013 1605.02 491.558 1605.02 509.5C1605.02 527.442 1619.56 541.987 1637.5 541.987Z" fill="#2F61E6"/>
<path d="M1645.2 521.264H1641.59V517.029C1645.89 515.54 1649.31 511.763 1650.73 506.951C1652.43 506.95 1653.8 505.4 1653.8 503.488C1653.8 501.818 1652.75 500.424 1651.36 500.097C1650.55 492.253 1644.66 486.164 1637.5 486.164C1630.35 486.164 1624.46 492.253 1623.65 500.097C1622.26 500.424 1621.21 501.818 1621.21 503.488C1621.21 505.4 1622.58 506.95 1624.27 506.951C1625.7 511.764 1629.12 515.54 1633.42 517.029V521.264H1629.8C1622.59 521.264 1616.65 526.993 1616.31 534.124C1622 539.024 1629.41 541.987 1637.5 541.987C1645.6 541.987 1653.01 539.024 1658.69 534.124C1658.35 526.993 1652.41 521.264 1645.2 521.264Z" fill="white"/>
<path d="M1645.69 521.276C1643.36 523.858 1640.54 525.366 1637.5 525.366C1634.47 525.366 1631.65 523.858 1629.31 521.276C1622.33 521.529 1616.65 527.155 1616.31 534.124C1622 539.024 1629.41 541.987 1637.5 541.987C1645.6 541.987 1653 539.024 1658.69 534.124C1658.36 527.155 1652.68 521.529 1645.69 521.276Z" fill="white"/>
</g>
<path d="M470.5 941C492.315 941 510 923.315 510 901.5C510 879.685 492.315 862 470.5 862C448.685 862 431 879.685 431 901.5C431 923.315 448.685 941 470.5 941Z" fill="#2F61E6"/>
<path d="M470.503 933.987C488.445 933.987 502.99 919.442 502.99 901.5C502.99 883.558 488.445 869.013 470.503 869.013C452.561 869.013 438.016 883.558 438.016 901.5C438.016 919.442 452.561 933.987 470.503 933.987Z" fill="#2F61E6"/>
<path d="M478.201 913.264H474.586V909.029C478.89 907.54 482.309 903.763 483.734 898.951C485.425 898.95 486.796 897.4 486.796 895.488C486.796 893.818 485.75 892.424 484.359 892.097C483.55 884.253 477.657 878.164 470.503 878.164C463.349 878.164 457.455 884.253 456.647 892.097C455.256 892.424 454.21 893.818 454.21 895.488C454.21 897.4 455.58 898.95 457.271 898.951C458.696 903.764 462.115 907.54 466.419 909.029V913.264H462.804C455.592 913.264 449.654 918.993 449.312 926.124C455.001 931.024 462.406 933.987 470.503 933.987C478.6 933.987 486.005 931.024 491.694 926.124C491.352 918.993 485.414 913.264 478.201 913.264Z" fill="white"/>
<path d="M478.691 913.276C476.355 915.858 473.537 917.366 470.503 917.366C467.469 917.366 464.65 915.858 462.315 913.276C455.326 913.529 449.646 919.155 449.312 926.124C455.001 931.024 462.406 933.987 470.503 933.987C478.6 933.987 486.005 931.024 491.694 926.124C491.36 919.155 485.68 913.529 478.691 913.276Z" fill="white"/>
<path d="M1698 1224.5C1651.03 1298.58 1526.19 1293.41 1419.5 1252.5C1327.56 1217.24 1198.24 1105.79 1192.08 1086" stroke="white" stroke-width="6" stroke-linecap="round" stroke-dasharray="20 20"/>
<path d="M641 1432C641 1368 671.792 1302.5 716 1240.5C755.574 1185 870.601 1087.15 891 1083.5" stroke="white" stroke-width="6" stroke-linecap="round" stroke-dasharray="20 20"/>
<g clip-path="url(#clip4)">
<path d="M691.765 569.52C673.016 543.718 681.72 505.431 711.208 484.003C740.695 462.575 779.799 466.12 798.548 491.922C817.298 517.723 808.593 556.01 779.106 577.438C749.619 598.866 710.515 595.321 691.765 569.52Z" fill="url(#paint7_linear)"/>
<path d="M711.208 484.003C738.479 464.185 773.966 465.744 793.979 486.5C792.877 484.434 791.642 482.418 790.234 480.481C771.485 454.679 732.381 451.134 702.894 472.562C673.406 493.99 664.702 532.277 683.452 558.079C684.859 560.016 686.396 561.813 688.02 563.5C674.459 538.054 683.936 503.821 711.208 484.003Z" fill="#F4BF1A"/>
<path d="M702.325 562.094L702.206 561.93C701.236 560.595 700.339 559.192 699.539 557.763C698.904 556.625 699.31 555.191 700.447 554.554C701.586 553.919 703.01 554.344 703.655 555.463C704.364 556.731 705.159 557.974 706.02 559.158C706.786 560.213 706.611 561.768 705.558 562.533C704.505 563.298 703.093 563.15 702.325 562.094ZM712.436 571.69C711.877 570.919 711.82 569.851 712.375 569.007C713.091 567.919 714.553 567.617 715.639 568.334C716.851 569.132 718.134 569.875 719.446 570.538C720.612 571.124 721.075 572.542 720.487 573.706C719.9 574.867 718.481 575.333 717.319 574.744C715.846 573.999 714.413 573.167 713.048 572.271C712.805 572.112 712.6 571.915 712.436 571.69ZM695.138 544.822C694.927 544.532 694.779 544.188 694.72 543.809C694.464 542.203 694.29 540.555 694.211 538.907C694.147 537.608 695.149 536.504 696.45 536.439C697.75 536.379 698.854 537.378 698.92 538.679C698.991 540.152 699.143 541.629 699.374 543.064C699.579 544.349 698.704 545.558 697.419 545.764C696.512 545.91 695.642 545.516 695.138 544.822ZM729.789 578.238C729.437 577.754 729.268 577.133 729.366 576.494C729.565 575.207 730.767 574.325 732.054 574.523C733.492 574.746 734.978 574.898 736.469 574.977C737.769 575.05 738.766 576.161 738.695 577.459C738.625 578.758 737.515 579.756 736.213 579.685C734.569 579.596 732.928 579.427 731.337 579.182C730.69 579.081 730.143 578.726 729.789 578.238ZM696.144 526.294C695.743 525.743 695.584 525.022 695.767 524.312C696.176 522.75 696.666 521.179 697.227 519.644C697.672 518.42 699.025 517.789 700.249 518.234C701.472 518.678 702.105 520.03 701.658 521.255C701.148 522.654 700.7 524.084 700.331 525.504C700.001 526.763 698.714 527.517 697.453 527.19C696.907 527.047 696.453 526.719 696.144 526.294ZM748.36 577.551C748.175 577.296 748.039 577.001 747.966 576.676C747.684 575.403 748.488 574.146 749.759 573.863C751.201 573.546 752.655 573.157 754.076 572.71C755.315 572.322 756.641 573.011 757.031 574.255C757.418 575.497 756.73 576.819 755.487 577.21C753.937 577.695 752.351 578.119 750.777 578.467C749.831 578.674 748.892 578.284 748.36 577.551ZM704.026 509.458C703.45 508.665 703.412 507.559 704.007 506.713C704.936 505.394 705.937 504.096 706.98 502.853C707.817 501.855 709.302 501.726 710.298 502.564C711.298 503.393 711.427 504.887 710.589 505.883C709.633 507.025 708.713 508.217 707.862 509.427C707.111 510.492 705.641 510.747 704.579 509.998C704.361 509.847 704.175 509.662 704.026 509.458ZM765.592 570.534C765.556 570.484 765.522 570.433 765.489 570.381C764.808 569.27 765.156 567.82 766.264 567.137C767.485 566.387 768.699 565.575 769.868 564.725C770.92 563.96 772.456 564.15 773.221 565.202C773.986 566.255 773.815 567.684 772.763 568.449L772.639 568.539C771.371 569.46 770.057 570.339 768.732 571.154C767.677 571.804 766.308 571.519 765.592 570.534ZM717.131 496.208C716.366 495.156 716.579 493.696 717.631 492.931L717.673 492.901C718.974 491.955 720.319 491.056 721.668 490.23C722.778 489.552 724.22 489.9 724.91 491.01C725.589 492.122 725.24 493.573 724.13 494.252C722.884 495.015 721.644 495.843 720.445 496.714C719.392 497.479 717.896 497.261 717.131 496.208ZM779.683 558.376C779.064 557.524 779.075 556.329 779.781 555.484C780.739 554.337 781.655 553.143 782.505 551.931C783.253 550.867 784.724 550.61 785.789 551.358C786.859 552.104 787.113 553.577 786.363 554.641C785.439 555.96 784.442 557.258 783.402 558.503C782.567 559.503 781.082 559.636 780.083 558.802C779.929 558.678 779.798 558.535 779.683 558.376ZM733.721 487.842C733.572 487.638 733.457 487.407 733.377 487.153C732.99 485.91 733.685 484.589 734.928 484.202C736.473 483.723 738.059 483.302 739.639 482.955C740.914 482.676 742.165 483.48 742.448 484.751C742.728 486.022 741.923 487.28 740.652 487.56C739.201 487.877 737.746 488.265 736.329 488.705C735.336 489.01 734.298 488.637 733.721 487.842ZM788.997 542.284C788.552 541.672 788.411 540.86 788.687 540.093C789.192 538.695 789.636 537.265 790.005 535.843C790.331 534.584 791.618 533.826 792.878 534.152C794.138 534.478 794.896 535.765 794.57 537.025C794.164 538.587 793.677 540.159 793.12 541.698C792.678 542.922 791.325 543.555 790.101 543.113C789.642 542.946 789.266 542.654 788.997 542.284ZM752.164 485.5C751.857 485.076 751.688 484.547 751.72 483.981C751.792 482.682 752.906 481.688 754.207 481.763C755.848 481.855 757.488 482.027 759.081 482.274C760.365 482.478 761.248 483.68 761.048 484.965C760.847 486.253 759.645 487.132 758.358 486.934C756.917 486.711 755.43 486.553 753.938 486.469C753.205 486.43 752.568 486.054 752.164 485.5ZM791.833 523.929C791.574 523.572 791.411 523.14 791.388 522.667C791.314 521.197 791.156 519.721 790.922 518.28C790.715 516.997 791.586 515.786 792.872 515.578C794.153 515.372 795.368 516.238 795.575 517.526C795.839 519.136 796.013 520.783 796.096 522.425C796.162 523.726 795.161 524.835 793.862 524.9C793.033 524.942 792.288 524.554 791.833 523.929ZM770.115 490.232C769.61 489.538 769.503 488.593 769.92 487.775C770.51 486.615 771.929 486.154 773.09 486.745C774.558 487.493 775.993 488.326 777.354 489.229C778.439 489.944 778.739 491.407 778.02 492.495C777.302 493.579 775.84 493.878 774.753 493.159C773.54 492.356 772.261 491.61 770.949 490.943C770.608 490.771 770.325 490.522 770.115 490.232ZM786.76 506.126C786.706 506.052 786.656 505.974 786.612 505.893C785.911 504.648 785.13 503.433 784.291 502.279C783.526 501.227 783.731 499.711 784.783 498.947C785.836 498.182 787.282 498.375 788.047 499.428L788.105 499.508C789.05 500.808 789.93 502.179 790.719 503.582C791.358 504.714 790.958 506.153 789.823 506.791C788.77 507.387 787.453 507.079 786.76 506.126Z" fill="#F4BF1A"/>
<path d="M709.298 485.385L700.987 473.948C699.731 474.918 698.512 475.915 697.338 476.946L705.657 488.393C706.829 487.36 708.044 486.358 709.298 485.385Z" fill="#DCA815"/>
<path d="M719.15 478.893L710.841 467.46C709.47 468.215 708.113 469.026 706.773 469.881L715.085 481.32C716.427 480.467 717.778 479.648 719.15 478.893Z" fill="#DCA815"/>
<path d="M700.526 493.362L692.211 481.919C691.102 483.104 690.038 484.314 689.022 485.551L697.335 496.99C698.352 495.755 699.417 494.547 700.526 493.362Z" fill="#DCA815"/>
<path d="M692.931 502.958L684.611 491.51C683.664 492.941 682.787 494.4 681.957 495.877L690.273 507.32C691.1 505.844 691.985 504.388 692.931 502.958Z" fill="#DCA815"/>
<path d="M730.132 473.957L721.828 462.53C720.305 463.068 718.785 463.643 717.281 464.292L725.605 475.747C727.104 475.1 728.614 474.495 730.132 473.957Z" fill="#DCA815"/>
<path d="M742.426 470.828L734.112 459.387C732.414 459.659 730.713 459.989 729.017 460.394L737.337 471.843C739.03 471.439 740.728 471.1 742.426 470.828Z" fill="#DCA815"/>
<path d="M759.523 470.295L751.199 458.841C749.198 458.637 747.176 458.53 745.137 458.519L753.458 469.97C755.498 469.982 757.521 470.092 759.523 470.295Z" fill="#DCA815"/>
<path d="M777.53 475.027L769.198 463.561C766.657 462.43 764.025 461.487 761.316 460.734L769.642 472.192C772.353 472.947 774.987 473.894 777.53 475.027Z" fill="#DCA815"/>
<path d="M685.746 517.13L677.428 505.683C676.75 507.529 676.157 509.387 675.654 511.262L683.978 522.716C684.481 520.841 685.069 518.977 685.746 517.13Z" fill="#DCA815"/>
<path d="M673.875 520.842C673.609 523.375 673.495 525.908 673.559 528.426L681.892 539.894C681.825 537.367 681.919 534.822 682.186 532.279L673.875 520.842Z" fill="#DCA815"/>
</g>
<g clip-path="url(#clip5)">
<path d="M461.441 629.486C440.297 623.821 428.406 599.639 434.881 575.475C441.355 551.311 463.745 536.314 484.888 541.98C506.032 547.645 517.924 571.827 511.449 595.991C504.974 620.156 482.585 635.152 461.441 629.486Z" fill="url(#paint8_linear)"/>
<path d="M434.881 575.475C440.869 553.126 460.471 538.633 480.11 541.061C478.63 540.435 477.1 539.893 475.513 539.468C454.369 533.802 431.98 548.798 425.505 572.963C419.03 597.127 430.922 621.309 452.065 626.974C453.653 627.4 455.249 627.695 456.844 627.893C438.621 620.176 428.892 597.823 434.881 575.475Z" fill="#F4BF1A"/>
<path d="M463.867 620.965L463.732 620.929C462.638 620.636 461.554 620.275 460.51 619.858C459.68 619.525 459.277 618.585 459.609 617.754C459.942 616.924 460.885 616.535 461.712 616.854C462.638 617.224 463.599 617.544 464.57 617.804C465.434 618.035 466.012 618.941 465.781 619.803C465.55 620.666 464.732 621.197 463.867 620.965ZM473.404 621.717C472.773 621.548 472.281 621.002 472.213 620.313C472.125 619.423 472.774 618.631 473.663 618.544C474.654 618.446 475.659 618.288 476.646 618.075C477.521 617.884 478.38 618.441 478.57 619.316C478.758 620.189 478.202 621.05 477.328 621.238C476.22 621.477 475.097 621.651 473.981 621.763C473.783 621.783 473.589 621.766 473.404 621.717ZM452.574 614.856C452.337 614.792 452.109 614.673 451.913 614.496C451.083 613.75 450.279 612.946 449.525 612.101C448.93 611.436 448.988 610.415 449.653 609.818C450.321 609.225 451.341 609.28 451.939 609.946C452.612 610.701 453.331 611.423 454.074 612.089C454.738 612.686 454.794 613.709 454.197 614.373C453.777 614.843 453.143 615.008 452.574 614.856ZM485.488 617.716C485.091 617.61 484.733 617.352 484.509 616.968C484.06 616.196 484.32 615.206 485.092 614.756C485.955 614.254 486.814 613.694 487.643 613.092C488.368 612.569 489.38 612.731 489.903 613.454C490.426 614.177 490.265 615.19 489.54 615.714C488.624 616.376 487.676 616.995 486.721 617.551C486.333 617.777 485.888 617.824 485.488 617.716ZM445.109 604.539C444.657 604.418 444.261 604.102 444.052 603.644C443.596 602.634 443.179 601.585 442.815 600.524C442.524 599.679 442.973 598.758 443.818 598.467C444.662 598.175 445.584 598.623 445.874 599.47C446.206 600.436 446.585 601.392 447.001 602.309C447.369 603.123 447.008 604.081 446.194 604.451C445.841 604.611 445.457 604.632 445.109 604.539ZM495.098 609.33C494.888 609.274 494.689 609.175 494.509 609.033C493.809 608.475 493.695 607.458 494.251 606.758C494.884 605.966 495.491 605.131 496.056 604.279C496.549 603.537 497.554 603.332 498.299 603.826C499.042 604.322 499.246 605.325 498.751 606.07C498.134 606.998 497.471 607.909 496.782 608.774C496.367 609.293 495.698 609.49 495.098 609.33ZM442.043 592.154C441.393 591.98 440.895 591.406 440.847 590.698C440.773 589.593 440.746 588.469 440.766 587.355C440.781 586.462 441.518 585.751 442.411 585.768C443.302 585.779 444.017 586.52 444 587.413C443.982 588.435 444.007 589.468 444.075 590.481C444.135 591.373 443.461 592.144 442.571 592.204C442.389 592.217 442.21 592.199 442.043 592.154ZM501.258 598.145C501.218 598.134 501.178 598.121 501.138 598.107C500.295 597.809 499.854 596.886 500.15 596.042C500.477 595.115 500.774 594.158 501.031 593.2C501.262 592.337 502.163 591.775 503.026 592.006C503.888 592.237 504.414 593.073 504.183 593.936L504.156 594.037C503.878 595.076 503.556 596.113 503.201 597.119C502.919 597.921 502.066 598.361 501.258 598.145ZM443.311 579.427C442.448 579.196 441.931 578.326 442.162 577.463L442.172 577.429C442.457 576.363 442.787 575.302 443.15 574.279C443.449 573.438 444.368 573.001 445.215 573.295C446.058 573.595 446.498 574.52 446.199 575.361C445.864 576.306 445.56 577.283 445.297 578.266C445.066 579.129 444.174 579.658 443.311 579.427ZM503.525 585.574C502.826 585.387 502.317 584.745 502.328 583.989C502.343 582.963 502.317 581.931 502.247 580.918C502.186 580.027 502.86 579.255 503.75 579.194C504.643 579.13 505.415 579.806 505.475 580.697C505.551 581.8 505.58 582.923 505.563 584.036C505.55 584.93 504.815 585.642 503.922 585.629C503.786 585.629 503.654 585.609 503.525 585.574ZM448.547 567.8C448.38 567.755 448.218 567.682 448.066 567.581C447.323 567.085 447.123 566.08 447.619 565.337C448.236 564.414 448.9 563.505 449.593 562.637C450.153 561.938 451.167 561.826 451.867 562.383C452.566 562.94 452.68 563.958 452.122 564.657C451.485 565.452 450.876 566.287 450.311 567.134C449.913 567.726 449.198 567.975 448.547 567.8ZM501.543 572.968C501.041 572.834 500.615 572.462 500.432 571.933C500.097 570.97 499.717 570.015 499.299 569.098C498.929 568.285 499.289 567.325 500.101 566.954C500.914 566.584 501.874 566.944 502.244 567.756C502.703 568.765 503.122 569.814 503.489 570.875C503.782 571.719 503.334 572.641 502.49 572.934C502.173 573.043 501.846 573.049 501.543 572.968ZM457.373 558.586C457.026 558.493 456.707 558.283 456.48 557.968C455.958 557.243 456.123 556.232 456.849 555.71C457.764 555.051 458.713 554.434 459.67 553.878C460.442 553.432 461.433 553.693 461.881 554.464C462.33 555.238 462.069 556.226 461.297 556.676C460.432 557.179 459.57 557.737 458.738 558.337C458.33 558.633 457.828 558.707 457.373 558.586ZM495.129 561.953C494.837 561.874 494.563 561.714 494.347 561.472C493.672 560.72 492.951 560.001 492.203 559.333C491.539 558.738 491.481 557.716 492.077 557.05C492.671 556.387 493.693 556.324 494.36 556.922C495.196 557.666 496 558.47 496.753 559.31C497.35 559.975 497.296 560.999 496.63 561.595C496.207 561.975 495.642 562.09 495.129 561.953ZM468.992 553.358C468.423 553.206 467.958 552.748 467.827 552.132C467.641 551.258 468.199 550.399 469.073 550.213C470.179 549.978 471.305 549.803 472.42 549.696C473.308 549.609 474.1 550.26 474.186 551.151C474.271 552.039 473.62 552.83 472.73 552.916C471.736 553.012 470.732 553.166 469.744 553.377C469.488 553.432 469.23 553.422 468.992 553.358ZM484.735 554.647C484.674 554.631 484.614 554.611 484.555 554.587C483.644 554.226 482.702 553.915 481.757 553.662C480.894 553.43 480.349 552.534 480.58 551.671C480.811 550.809 481.666 550.288 482.528 550.519L482.594 550.536C483.66 550.822 484.721 551.173 485.747 551.581C486.577 551.909 486.985 552.849 486.656 553.68C486.351 554.452 485.516 554.857 484.735 554.647Z" fill="#F4BF1A"/>
<path d="M434.459 577.037L425.086 574.525C424.836 575.585 424.616 576.643 424.435 577.7L433.815 580.214C433.995 579.156 434.21 578.097 434.459 577.037Z" fill="#DCA815"/>
<path d="M436.91 569.32L427.541 566.809C427.135 567.804 426.762 568.823 426.416 569.857L435.79 572.369C436.137 571.335 436.505 570.315 436.91 569.32Z" fill="#DCA815"/>
<path d="M433.225 585.08L423.847 582.567C423.768 583.678 423.723 584.783 423.715 585.882L433.089 588.393C433.098 587.295 433.145 586.191 433.225 585.08Z" fill="#DCA815"/>
<path d="M433.317 593.479L423.935 590.965C424.048 592.138 424.21 593.295 424.406 594.441L433.783 596.953C433.587 595.809 433.431 594.65 433.317 593.479Z" fill="#DCA815"/>
<path d="M440.636 561.944L431.272 559.435C430.692 560.38 430.129 561.342 429.608 562.338L438.994 564.853C439.515 563.861 440.059 562.886 440.636 561.944Z" fill="#DCA815"/>
<path d="M445.843 554.965L436.467 552.453C435.679 553.332 434.914 554.242 434.184 555.191L443.566 557.704C444.296 556.758 445.055 555.844 445.843 554.965Z" fill="#DCA815"/>
<path d="M454.732 547.298L445.345 544.783C444.19 545.538 443.065 546.354 441.973 547.229L451.357 549.743C452.45 548.869 453.577 548.053 454.732 547.298Z" fill="#DCA815"/>
<path d="M466.381 542.045L456.985 539.528C455.141 540.022 453.33 540.655 451.56 541.423L460.949 543.939C462.721 543.171 464.535 542.539 466.381 542.045Z" fill="#DCA815"/>
<path d="M435.605 604.141L426.225 601.627C426.66 602.905 427.146 604.152 427.688 605.369L437.075 607.884C436.533 606.667 436.042 605.419 435.605 604.141Z" fill="#DCA815"/>
<path d="M430.876 611.248C431.828 612.714 432.861 614.114 433.982 615.43L443.38 617.948C442.253 616.629 441.204 615.231 440.248 613.759L430.876 611.248Z" fill="#DCA815"/>
</g>
<g clip-path="url(#clip6)">
<path d="M1740.6 645.461C1756.08 629.983 1782.96 631.776 1800.65 649.465C1818.34 667.155 1820.14 694.042 1804.66 709.521C1789.18 724.999 1762.29 723.207 1744.6 705.517C1726.91 687.828 1725.12 660.94 1740.6 645.461Z" fill="url(#paint9_linear)"/>
<path d="M1800.65 649.465C1817.01 665.825 1819.77 690.048 1807.84 705.842C1809.12 704.873 1810.36 703.819 1811.52 702.657C1827 687.179 1825.21 660.291 1807.52 642.602C1789.83 624.912 1762.94 623.12 1747.46 638.598C1746.3 639.76 1745.25 640.994 1744.28 642.277C1760.07 630.354 1784.29 633.105 1800.65 649.465Z" fill="#F4BF1A"/>
<path d="M1746.76 651.823L1746.86 651.724C1747.66 650.924 1748.52 650.165 1749.4 649.47C1750.1 648.917 1751.12 649.038 1751.67 649.741C1752.23 650.444 1752.09 651.455 1751.4 652.013C1750.62 652.629 1749.86 653.302 1749.15 654.012C1748.52 654.645 1747.45 654.693 1746.81 654.061C1746.18 653.43 1746.13 652.456 1746.76 651.823ZM1741.34 659.707C1741.81 659.244 1742.53 659.091 1743.16 659.377C1743.97 659.745 1744.33 660.704 1743.96 661.517C1743.55 662.424 1743.19 663.374 1742.88 664.335C1742.61 665.188 1741.69 665.654 1740.84 665.38C1739.99 665.107 1739.52 664.195 1739.8 663.344C1740.14 662.265 1740.56 661.205 1741.02 660.184C1741.1 660.002 1741.21 659.842 1741.34 659.707ZM1757.7 645.098C1757.88 644.924 1758.09 644.786 1758.34 644.705C1759.41 644.36 1760.5 644.065 1761.61 643.835C1762.49 643.652 1763.34 644.212 1763.53 645.087C1763.71 645.962 1763.15 646.818 1762.27 647.002C1761.28 647.208 1760.3 647.47 1759.35 647.78C1758.5 648.057 1757.59 647.594 1757.31 646.745C1757.11 646.145 1757.29 645.514 1757.7 645.098ZM1738.77 672.172C1739.06 671.881 1739.46 671.7 1739.9 671.698C1740.8 671.695 1741.53 672.415 1741.53 673.309C1741.53 674.307 1741.59 675.331 1741.69 676.35C1741.79 677.239 1741.14 678.034 1740.25 678.126C1739.36 678.217 1738.57 677.572 1738.48 676.682C1738.36 675.558 1738.3 674.428 1738.29 673.323C1738.29 672.873 1738.47 672.465 1738.77 672.172ZM1770.37 643.791C1770.7 643.461 1771.17 643.275 1771.67 643.323C1772.78 643.433 1773.89 643.597 1774.99 643.812C1775.87 643.982 1776.44 644.832 1776.27 645.71C1776.1 646.586 1775.26 647.16 1774.38 646.988C1773.37 646.793 1772.36 646.643 1771.35 646.545C1770.47 646.457 1769.82 645.665 1769.9 644.775C1769.94 644.389 1770.11 644.046 1770.37 643.791ZM1741.23 684.687C1741.38 684.534 1741.56 684.411 1741.78 684.326C1742.61 683.999 1743.55 684.408 1743.88 685.24C1744.25 686.184 1744.67 687.127 1745.12 688.042C1745.52 688.841 1745.19 689.813 1744.39 690.211C1743.59 690.607 1742.62 690.282 1742.22 689.482C1741.73 688.483 1741.27 687.453 1740.86 686.424C1740.62 685.805 1740.79 685.127 1741.23 684.687ZM1782.63 647.328C1783.1 646.852 1783.85 646.708 1784.49 647.02C1785.48 647.509 1786.47 648.048 1787.42 648.622C1788.19 649.082 1788.44 650.075 1787.97 650.84C1787.52 651.606 1786.52 651.855 1785.76 651.394C1784.88 650.867 1783.97 650.372 1783.06 649.925C1782.26 649.53 1781.93 648.561 1782.32 647.761C1782.4 647.597 1782.51 647.451 1782.63 647.328ZM1747.83 695.615C1747.86 695.585 1747.89 695.557 1747.92 695.529C1748.6 694.948 1749.62 695.028 1750.21 695.707C1750.85 696.454 1751.53 697.189 1752.23 697.89C1752.86 698.522 1752.9 699.583 1752.26 700.215C1751.63 700.846 1750.65 700.884 1750.01 700.253L1749.94 700.178C1749.18 699.418 1748.44 698.621 1747.75 697.81C1747.19 697.165 1747.24 696.207 1747.83 695.615ZM1793.02 654.79C1793.65 654.159 1794.66 654.146 1795.29 654.777L1795.32 654.803C1796.1 655.583 1796.85 656.398 1797.55 657.224C1798.13 657.904 1798.05 658.918 1797.37 659.505C1796.69 660.085 1795.67 660.004 1795.09 659.324C1794.44 658.561 1793.75 657.81 1793.03 657.09C1792.4 656.459 1792.38 655.421 1793.02 654.79ZM1757.59 703.863C1758.1 703.351 1758.91 703.231 1759.56 703.619C1760.44 704.145 1761.34 704.638 1762.26 705.085C1763.06 705.477 1763.39 706.447 1763 707.249C1762.61 708.054 1761.64 708.385 1760.83 707.99C1759.84 707.505 1758.85 706.969 1757.9 706.398C1757.13 705.939 1756.88 704.946 1757.34 704.18C1757.41 704.062 1757.49 703.958 1757.59 703.863ZM1800.47 665.138C1800.59 665.015 1800.73 664.912 1800.9 664.831C1801.7 664.435 1802.67 664.765 1803.06 665.566C1803.55 666.562 1804.01 667.592 1804.41 668.626C1804.74 669.46 1804.33 670.394 1803.5 670.722C1802.67 671.048 1801.73 670.638 1801.4 669.806C1801.03 668.857 1800.61 667.912 1800.16 666.999C1799.85 666.358 1799.99 665.615 1800.47 665.138ZM1769.49 708.45C1769.86 708.083 1770.4 707.9 1770.94 708.005C1771.95 708.197 1772.96 708.345 1773.97 708.442C1774.86 708.528 1775.51 709.319 1775.42 710.208C1775.34 711.097 1774.54 711.749 1773.66 711.663C1772.55 711.556 1771.44 711.394 1770.33 711.182C1769.46 711.013 1768.88 710.165 1769.05 709.287C1769.11 708.958 1769.27 708.672 1769.49 708.45ZM1804.03 677.389C1804.29 677.135 1804.63 676.964 1805.02 676.925C1805.9 676.834 1806.7 677.483 1806.79 678.373C1806.9 679.495 1806.96 680.625 1806.96 681.731C1806.96 682.624 1806.24 683.351 1805.35 683.354C1804.45 683.356 1803.73 682.635 1803.73 681.742C1803.72 680.741 1803.67 679.716 1803.57 678.696C1803.51 678.194 1803.7 677.722 1804.03 677.389ZM1782.24 708.403C1782.45 708.189 1782.73 708.032 1783.05 707.966C1784.04 707.758 1785.02 707.492 1785.97 707.179C1786.82 706.901 1787.73 707.362 1788.01 708.211C1788.29 709.057 1787.83 709.974 1786.98 710.253C1785.92 710.604 1784.82 710.899 1783.72 711.131C1782.84 711.315 1781.98 710.756 1781.8 709.882C1781.68 709.325 1781.86 708.778 1782.24 708.403ZM1802.75 690.065C1803.17 689.649 1803.8 689.475 1804.4 689.669C1805.25 689.945 1805.71 690.858 1805.44 691.708C1805.09 692.783 1804.67 693.846 1804.21 694.865C1803.84 695.677 1802.88 696.037 1802.07 695.667C1801.25 695.296 1800.89 694.337 1801.27 693.523C1801.68 692.615 1802.05 691.668 1802.36 690.707C1802.44 690.457 1802.58 690.239 1802.75 690.065ZM1793.76 703.054C1793.81 703.009 1793.86 702.967 1793.91 702.928C1794.67 702.32 1795.41 701.66 1796.11 700.968C1796.74 700.336 1797.79 700.312 1798.42 700.944C1799.05 701.575 1799.07 702.576 1798.44 703.207L1798.39 703.255C1797.61 704.036 1796.78 704.779 1795.91 705.464C1795.21 706.019 1794.2 705.902 1793.64 705.201C1793.12 704.551 1793.19 703.626 1793.76 703.054Z" fill="#F4BF1A"/>
<path d="M1799.51 648.319L1806.37 641.458C1805.58 640.711 1804.77 639.991 1803.95 639.306L1797.08 646.173C1797.91 646.857 1798.72 647.573 1799.51 648.319Z" fill="#DCA815"/>
<path d="M1804.97 654.301L1811.83 647.442C1811.17 646.593 1810.47 645.76 1809.75 644.943L1802.89 651.806C1803.61 652.624 1804.31 653.452 1804.97 654.301Z" fill="#DCA815"/>
<path d="M1793.16 643.229L1800.03 636.364C1799.11 635.739 1798.17 635.148 1797.22 634.592L1790.36 641.454C1791.31 642.011 1792.24 642.604 1793.16 643.229Z" fill="#DCA815"/>
<path d="M1785.84 639.109L1792.71 632.241C1791.64 631.753 1790.56 631.315 1789.47 630.911L1782.6 637.776C1783.69 638.178 1784.77 638.622 1785.84 639.109Z" fill="#DCA815"/>
<path d="M1809.49 661.216L1816.35 654.36C1815.82 653.385 1815.27 652.417 1814.67 651.467L1807.8 658.339C1808.39 659.286 1808.97 660.244 1809.49 661.216Z" fill="#DCA815"/>
<path d="M1812.93 669.214L1819.8 662.35C1819.43 661.228 1819.03 660.111 1818.57 659.004L1811.7 665.872C1812.16 666.977 1812.57 668.092 1812.93 669.214Z" fill="#DCA815"/>
<path d="M1815.13 680.746L1822 673.874C1821.92 672.496 1821.78 671.114 1821.57 669.731L1814.7 676.6C1814.91 677.984 1815.05 679.367 1815.13 680.746Z" fill="#DCA815"/>
<path d="M1813.85 693.46L1820.73 686.582C1821.23 684.738 1821.58 682.853 1821.8 680.935L1814.93 687.809C1814.71 689.728 1814.35 691.615 1813.85 693.46Z" fill="#DCA815"/>
<path d="M1775.47 635.76L1782.33 628.893C1781.01 628.631 1779.69 628.429 1778.36 628.289L1771.49 635.161C1772.81 635.3 1774.14 635.499 1775.47 635.76Z" fill="#DCA815"/>
<path d="M1771.68 628.111C1769.93 628.202 1768.2 628.397 1766.5 628.71L1759.62 635.59C1761.33 635.273 1763.06 635.063 1764.82 634.972L1771.68 628.111Z" fill="#DCA815"/>
</g>
</g>
<defs>
<filter id="filter0_d" x="349.866" y="511.495" width="515.78" height="515.78" filterUnits="userSpaceOnUse" color-interpolation-filters="sRGB">
<feFlood flood-opacity="0" result="BackgroundImageFix"/>
<feColorMatrix in="SourceAlpha" type="matrix" values="0 0 0 0 0 0 0 0 0 0 0 0 0 0 0 0 0 0 127 0"/>
<feOffset dy="4"/>
<feGaussianBlur stdDeviation="45"/>
<feColorMatrix type="matrix" values="0 0 0 0 0.184314 0 0 0 0 0.380392 0 0 0 0 0.901961 0 0 0 0.4 0"/>
<feBlend mode="normal" in2="BackgroundImageFix" result="effect1_dropShadow"/>
<feBlend mode="normal" in="SourceGraphic" in2="effect1_dropShadow" result="shape"/>
</filter>
<filter id="filter1_d" x="1461" y="675" width="402.046" height="402.046" filterUnits="userSpaceOnUse" color-interpolation-filters="sRGB">
<feFlood flood-opacity="0" result="BackgroundImageFix"/>
<feColorMatrix in="SourceAlpha" type="matrix" values="0 0 0 0 0 0 0 0 0 0 0 0 0 0 0 0 0 0 127 0"/>
<feOffset dy="4"/>
<feGaussianBlur stdDeviation="45"/>
<feColorMatrix type="matrix" values="0 0 0 0 0.184314 0 0 0 0 0.380392 0 0 0 0 0.901961 0 0 0 0.4 0"/>
<feBlend mode="normal" in2="BackgroundImageFix" result="effect1_dropShadow"/>
<feBlend mode="normal" in="SourceGraphic" in2="effect1_dropShadow" result="shape"/>
</filter>
<filter id="filter2_d" x="700" y="129" width="328" height="328" filterUnits="userSpaceOnUse" color-interpolation-filters="sRGB">
<feFlood flood-opacity="0" result="BackgroundImageFix"/>
<feColorMatrix in="SourceAlpha" type="matrix" values="0 0 0 0 0 0 0 0 0 0 0 0 0 0 0 0 0 0 127 0"/>
<feOffset dy="4"/>
<feGaussianBlur stdDeviation="45"/>
<feColorMatrix type="matrix" values="0 0 0 0 0.200278 0 0 0 0 0.380074 0 0 0 0 0.858333 0 0 0 0.31 0"/>
<feBlend mode="normal" in2="BackgroundImageFix" result="effect1_dropShadow"/>
<feBlend mode="normal" in="SourceGraphic" in2="effect1_dropShadow" result="shape"/>
</filter>
<filter id="filter3_d" x="399" y="1347" width="379" height="379" filterUnits="userSpaceOnUse" color-interpolation-filters="sRGB">
<feFlood flood-opacity="0" result="BackgroundImageFix"/>
<feColorMatrix in="SourceAlpha" type="matrix" values="0 0 0 0 0 0 0 0 0 0 0 0 0 0 0 0 0 0 127 0"/>
<feOffset dy="4"/>
<feGaussianBlur stdDeviation="45"/>
<feColorMatrix type="matrix" values="0 0 0 0 0.184314 0 0 0 0 0.380392 0 0 0 0 0.901961 0 0 0 0.38 0"/>
<feBlend mode="normal" in2="BackgroundImageFix" result="effect1_dropShadow"/>
<feBlend mode="normal" in="SourceGraphic" in2="effect1_dropShadow" result="shape"/>
</filter>
<filter id="filter4_d" x="1567" y="926" width="379" height="379" filterUnits="userSpaceOnUse" color-interpolation-filters="sRGB">
<feFlood flood-opacity="0" result="BackgroundImageFix"/>
<feColorMatrix in="SourceAlpha" type="matrix" values="0 0 0 0 0 0 0 0 0 0 0 0 0 0 0 0 0 0 127 0"/>
<feOffset dy="4"/>
<feGaussianBlur stdDeviation="45"/>
<feColorMatrix type="matrix" values="0 0 0 0 0.184314 0 0 0 0 0.380392 0 0 0 0 0.901961 0 0 0 0.26 0"/>
<feBlend mode="normal" in2="BackgroundImageFix" result="effect1_dropShadow"/>
<feBlend mode="normal" in="SourceGraphic" in2="effect1_dropShadow" result="shape"/>
</filter>
<filter id="filter5_d" x="1538" y="414" width="199" height="199" filterUnits="userSpaceOnUse" color-interpolation-filters="sRGB">
<feFlood flood-opacity="0" result="BackgroundImageFix"/>
<feColorMatrix in="SourceAlpha" type="matrix" values="0 0 0 0 0 0 0 0 0 0 0 0 0 0 0 0 0 0 127 0"/>
<feOffset dy="4"/>
<feGaussianBlur stdDeviation="30"/>
<feColorMatrix type="matrix" values="0 0 0 0 0.184314 0 0 0 0 0.380392 0 0 0 0 0.901961 0 0 0 0.33 0"/>
<feBlend mode="normal" in2="BackgroundImageFix" result="effect1_dropShadow"/>
<feBlend mode="normal" in="SourceGraphic" in2="effect1_dropShadow" result="shape"/>
</filter>
<linearGradient id="paint0_linear" x1="1872.77" y1="1323.85" x2="1437.77" y2="300.347" gradientUnits="userSpaceOnUse">
<stop stop-color="#2F61E6" stop-opacity="0.4"/>
<stop offset="1" stop-color="#EAEEF9" stop-opacity="0"/>
</linearGradient>
<radialGradient id="paint1_radial" cx="0" cy="0" r="1" gradientUnits="userSpaceOnUse" gradientTransform="translate(992.436 710.819) rotate(94.4106) scale(51.1377 62.6864)">
<stop stop-color="#F9BFA2"/>
<stop offset="1" stop-color="#F9BFA2" stop-opacity="0"/>
</radialGradient>
<radialGradient id="paint2_radial" cx="0" cy="0" r="1" gradientUnits="userSpaceOnUse" gradientTransform="translate(1218.76 738.686) rotate(94.4106) scale(63.5347 77.8831)">
<stop stop-color="#F9BFA2"/>
<stop offset="1" stop-color="#F9BFA2" stop-opacity="0"/>
</radialGradient>
<linearGradient id="paint3_linear" x1="943" y1="1096" x2="943.249" y2="593.953" gradientUnits="userSpaceOnUse">
<stop stop-color="#CEDBFF"/>
<stop offset="1" stop-color="white" stop-opacity="0"/>
</linearGradient>
<linearGradient id="paint4_linear" x1="239" y1="1071.5" x2="908" y2="739" gradientUnits="userSpaceOnUse">
<stop stop-color="#FDDAC6"/>
<stop offset="1" stop-color="#F5B591"/>
</linearGradient>
<linearGradient id="paint5_linear" x1="948.5" y1="1479" x2="752" y2="684.5" gradientUnits="userSpaceOnUse">
<stop stop-color="#2F61E6"/>
<stop offset="1" stop-color="#4273F5"/>
</linearGradient>
<linearGradient id="paint6_linear" x1="1210.21" y1="966.226" x2="1210.21" y2="1661.96" gradientUnits="userSpaceOnUse">
<stop offset="0.546875" stop-color="#FDDAC6"/>
<stop offset="1" stop-color="#F9BFA2"/>
</linearGradient>
<linearGradient id="paint7_linear" x1="798.548" y1="491.922" x2="815.5" y2="598.5" gradientUnits="userSpaceOnUse">
<stop stop-color="#FFD949"/>
<stop offset="1" stop-color="#FFD949" stop-opacity="0"/>
</linearGradient>
<linearGradient id="paint8_linear" x1="484.888" y1="541.98" x2="550.5" y2="605" gradientUnits="userSpaceOnUse">
<stop stop-color="#FFD949"/>
<stop offset="1" stop-color="#FFD949" stop-opacity="0"/>
</linearGradient>
<linearGradient id="paint9_linear" x1="1794.5" y1="592" x2="1713" y2="754" gradientUnits="userSpaceOnUse">
<stop stop-color="#FFD949"/>
<stop offset="1" stop-color="#FFD949" stop-opacity="0"/>
</linearGradient>
<clipPath id="clip0">
<rect width="2048" height="1948" fill="white"/>
</clipPath>
<clipPath id="clip1">
<rect width="247.483" height="247.483" fill="white" transform="translate(558.392 597.495) rotate(28.6152)"/>
</clipPath>
<clipPath id="clip2">
<rect width="163.656" height="163.656" fill="white" transform="matrix(-0.877856 0.478925 0.478925 0.877856 1694.67 761)"/>
</clipPath>
<clipPath id="clip3">
<rect width="82.4339" height="82.4339" fill="white" transform="matrix(-0.877856 0.478925 0.478925 0.877856 1555.37 611)"/>
</clipPath>
<clipPath id="clip4">
<rect width="132" height="132" fill="white" transform="translate(755.592 432.81) rotate(53.9945)"/>
</clipPath>
<clipPath id="clip5">
<rect width="90.5935" height="90.5935" fill="white" transform="translate(436.447 529) rotate(15)"/>
</clipPath>
<clipPath id="clip6">
<rect width="90.5935" height="90.5935" fill="white" transform="translate(1840.12 674.059) rotate(135)"/>
</clipPath>
</defs>
</svg>
