<svg width="84" height="110" viewBox="0 0 84 110" fill="none" xmlns="http://www.w3.org/2000/svg">
<path d="M8.24414 104.219C9.1875 104.219 9.77539 103.617 9.77539 102.633V86.9238H14.6016C15.4492 86.9238 16.0234 86.4043 16.0234 85.5977C16.0234 84.791 15.4492 84.2715 14.6016 84.2715H1.87305C1.02539 84.2715 0.451172 84.791 0.451172 85.5977C0.451172 86.4043 1.02539 86.9238 1.87305 86.9238H6.71289V102.633C6.71289 103.617 7.28711 104.219 8.24414 104.219Z" fill="white"/>
<path d="M18.5801 104.246C20.4531 104.246 22.2852 103.234 23.1191 101.635H23.1875V102.852C23.2148 103.727 23.7754 104.26 24.5957 104.26C25.4297 104.26 26.0176 103.699 26.0176 102.77V94.0879C26.0176 91.2031 23.7891 89.3574 20.3027 89.3574C17.7188 89.3574 15.5449 90.3965 14.793 92.0234C14.6152 92.3516 14.5332 92.6797 14.5332 92.9805C14.5332 93.7188 15.0664 94.2109 15.8047 94.2109C16.3242 94.2109 16.707 94.0195 17.0078 93.582C17.8281 92.2695 18.7715 91.7637 20.1934 91.7637C21.998 91.7637 23.0781 92.7207 23.0781 94.3203V95.4277L19.127 95.6602C15.7227 95.8516 13.7812 97.3965 13.7812 99.9121C13.7812 102.496 15.7637 104.246 18.5801 104.246ZM19.3867 101.908C17.8145 101.908 16.7617 101.088 16.7617 99.8301C16.7617 98.5996 17.7598 97.8203 19.5234 97.6973L23.0781 97.4785V98.6133C23.0781 100.486 21.4512 101.908 19.3867 101.908Z" fill="white"/>
<path d="M30.3652 109.1C31.2266 109.1 31.8418 108.498 31.8418 107.527V101.635H31.9102C32.7305 103.234 34.3711 104.246 36.4355 104.246C40.0449 104.246 42.4375 101.361 42.4375 96.8086C42.4375 92.2559 40.0312 89.3848 36.3809 89.3848C34.3027 89.3848 32.6484 90.4375 31.8008 92.0918H31.7461V90.875C31.7461 89.9316 31.1445 89.3574 30.3105 89.3574C29.4766 89.3574 28.8887 89.9316 28.8887 90.875V107.527C28.8887 108.498 29.4902 109.1 30.3652 109.1ZM35.6016 101.744C33.332 101.744 31.8281 99.8027 31.8281 96.8086C31.8281 93.8418 33.3457 91.873 35.6016 91.873C37.9395 91.873 39.4023 93.8008 39.4023 96.8086C39.4023 99.8301 37.9395 101.744 35.6016 101.744Z" fill="white"/>
<path d="M46.293 87.4434C47.25 87.4434 48.0156 86.6777 48.0156 85.748C48.0156 84.8047 47.25 84.0664 46.293 84.0664C45.3496 84.0664 44.584 84.8047 44.584 85.748C44.584 86.6777 45.3496 87.4434 46.293 87.4434ZM46.293 104.26C47.1816 104.26 47.7695 103.645 47.7695 102.701V90.9297C47.7695 89.9727 47.1816 89.3574 46.293 89.3574C45.4043 89.3574 44.8164 89.9727 44.8164 90.9297V102.701C44.8164 103.645 45.4043 104.26 46.293 104.26Z" fill="white"/>
<path d="M52.2676 104.26C53.1289 104.26 53.7441 103.672 53.7441 102.701V95.6191C53.7441 93.3906 55.084 91.9141 57.1621 91.9141C59.2129 91.9141 60.2246 93.1035 60.2246 95.2637V102.701C60.2246 103.672 60.8398 104.26 61.7012 104.26C62.5762 104.26 63.1914 103.672 63.1914 102.701V94.6895C63.1914 91.3945 61.373 89.3711 58.2012 89.3711C55.9863 89.3711 54.4824 90.3555 53.7031 91.9961H53.6348V90.8613C53.6348 89.9453 53.0469 89.3574 52.1992 89.3574C51.3379 89.3574 50.791 89.9453 50.791 90.8477V102.701C50.791 103.672 51.3926 104.26 52.2676 104.26Z" fill="white"/>
<path d="M67.6074 87.4434C68.5781 87.4434 69.3438 86.6777 69.3438 85.748C69.3438 84.8047 68.5781 84.0664 67.6074 84.0664C66.6641 84.0664 65.8984 84.8047 65.8984 85.748C65.8984 86.6777 66.6641 87.4434 67.6074 87.4434ZM67.6074 89.3574C66.7461 89.3574 66.1309 89.9453 66.1309 90.9297V104.738C66.1309 105.873 65.748 106.434 64.7363 106.598L64.6133 106.611C63.8066 106.734 63.4512 107.131 63.4512 107.746C63.4512 108.512 64.1211 108.99 65.2285 108.99H65.2559C67.6621 108.99 69.084 107.582 69.084 104.971V90.9297C69.084 89.9453 68.4824 89.3574 67.6074 89.3574Z" fill="white"/>
<path d="M76.3301 104.246C78.2031 104.246 80.0352 103.234 80.8691 101.635H80.9375V102.852C80.9648 103.727 81.5254 104.26 82.3457 104.26C83.1797 104.26 83.7676 103.699 83.7676 102.77V94.0879C83.7676 91.2031 81.5391 89.3574 78.0527 89.3574C75.4688 89.3574 73.2949 90.3965 72.543 92.0234C72.3652 92.3516 72.2832 92.6797 72.2832 92.9805C72.2832 93.7188 72.8164 94.2109 73.5547 94.2109C74.0742 94.2109 74.457 94.0195 74.7578 93.582C75.5781 92.2695 76.5215 91.7637 77.9434 91.7637C79.748 91.7637 80.8281 92.7207 80.8281 94.3203V95.4277L76.877 95.6602C73.4727 95.8516 71.5312 97.3965 71.5312 99.9121C71.5312 102.496 73.5137 104.246 76.3301 104.246ZM77.1367 101.908C75.5645 101.908 74.5117 101.088 74.5117 99.8301C74.5117 98.5996 75.5098 97.8203 77.2734 97.6973L80.8281 97.4785V98.6133C80.8281 100.486 79.2012 101.908 77.1367 101.908Z" fill="white"/>
<path d="M10 9.58445C10 4.2911 14.2911 0 19.5845 0H65.4156C70.7089 0 75 4.29111 75 9.58445V55.4156C75 60.7089 70.7089 65 65.4156 65H19.5844C14.2911 65 10 60.7089 10 55.4156V9.58445Z" fill="#2F61E5"/>
<path fill-rule="evenodd" clip-rule="evenodd" d="M58.6587 49.0998C59.88 48.5626 60.3659 47.0816 59.7009 45.9227L57.5228 42.1265C57.123 41.4296 56.3821 41 55.5801 41H29.4199C28.6179 41 27.877 41.4296 27.4772 42.1265L25.299 45.9227C24.6341 47.0816 25.12 48.5626 26.3413 49.0998L41.5995 55.8107C42.1734 56.0631 42.8266 56.0631 43.4005 55.8107L58.6587 49.0998Z" fill="url(#paint0_linear)" fill-opacity="0.5"/>
<path fill-rule="evenodd" clip-rule="evenodd" d="M58.6587 45.6398C59.88 45.0668 60.3659 43.487 59.7009 42.2509L57.5228 38.2016C57.123 37.4582 56.3821 37 55.5801 37H29.4199C28.6179 37 27.877 37.4582 27.4772 38.2016L25.299 42.2509C24.6341 43.487 25.12 45.0668 26.3413 45.6398L41.5995 52.7981C42.1734 53.0673 42.8266 53.0673 43.4005 52.7981L58.6587 45.6398Z" fill="#5EE42F"/>
<g filter="url(#filter0_d)">
<path fill-rule="evenodd" clip-rule="evenodd" d="M44.4428 12.1325C43.581 10.6225 41.419 10.6225 40.5572 12.1325L25.299 38.8686C24.6341 40.0337 25.12 41.5226 26.3413 42.0627L41.5995 48.8097C42.1734 49.0634 42.8266 49.0634 43.4005 48.8097L58.6587 42.0627C59.88 41.5226 60.3659 40.0337 59.701 38.8686L44.4428 12.1325ZM46.9398 32.8756C49.392 33.4795 51.032 33.8834 51.032 31.0703C51.032 26.7982 47.2499 23.335 42.5845 23.335C37.9191 23.335 34.1371 26.7982 34.1371 31.0703C34.1371 33.8834 35.777 33.4795 38.2292 32.8756C39.501 32.5623 40.9912 32.1953 42.5845 32.1953C44.1778 32.1953 45.668 32.5623 46.9398 32.8756Z" fill="url(#paint1_linear)"/>
<path d="M41.2249 28.0166C41.0558 28.6137 40.4612 28.1248 39.4198 28.2723C38.3783 28.4198 37.9314 29.0562 37.6146 28.528C37.2977 27.9997 38.2552 27.2116 39.2521 27.0704C40.2491 26.9292 41.3941 27.4196 41.2249 28.0166Z" fill="url(#paint2_linear)"/>
<path d="M43.779 28.0166C43.9481 28.6137 44.5427 28.1248 45.5842 28.2723C46.6257 28.4198 47.0725 29.0562 47.3894 28.528C47.7063 27.9997 46.7488 27.2116 45.7518 27.0704C44.7548 26.9292 43.6099 27.4196 43.779 28.0166Z" fill="url(#paint3_linear)"/>
</g>
<defs>
<filter id="filter0_d" x="8" y="1" width="69" height="72" filterUnits="userSpaceOnUse" color-interpolation-filters="sRGB">
<feFlood flood-opacity="0" result="BackgroundImageFix"/>
<feColorMatrix in="SourceAlpha" type="matrix" values="0 0 0 0 0 0 0 0 0 0 0 0 0 0 0 0 0 0 127 0"/>
<feOffset dy="7"/>
<feGaussianBlur stdDeviation="8.5"/>
<feColorMatrix type="matrix" values="0 0 0 0 0 0 0 0 0 0 0 0 0 0 0 0 0 0 0.25 0"/>
<feBlend mode="normal" in2="BackgroundImageFix" result="effect1_dropShadow"/>
<feBlend mode="normal" in="SourceGraphic" in2="effect1_dropShadow" result="shape"/>
</filter>
<linearGradient id="paint0_linear" x1="42.5" y1="41" x2="42.5" y2="105.888" gradientUnits="userSpaceOnUse">
<stop stop-color="#46E42F"/>
<stop offset="0.838542" stop-color="#2F61E5" stop-opacity="0"/>
</linearGradient>
<linearGradient id="paint1_linear" x1="42.5845" y1="34.8013" x2="42.5845" y2="74.499" gradientUnits="userSpaceOnUse">
<stop stop-color="white"/>
<stop offset="1" stop-color="#2F61E5"/>
</linearGradient>
<linearGradient id="paint2_linear" x1="42.5845" y1="34.8013" x2="42.5845" y2="74.499" gradientUnits="userSpaceOnUse">
<stop stop-color="white"/>
<stop offset="1" stop-color="#2F61E5"/>
</linearGradient>
<linearGradient id="paint3_linear" x1="42.5845" y1="34.8013" x2="42.5845" y2="74.499" gradientUnits="userSpaceOnUse">
<stop stop-color="white"/>
<stop offset="1" stop-color="#2F61E5"/>
</linearGradient>
</defs>
</svg>
