<svg width="1039" height="342" viewBox="0 0 1039 342" fill="none" xmlns="http://www.w3.org/2000/svg">
<path d="M422.798 250.191C430.488 250.191 435.281 245.287 435.281 237.262V109.199H474.625C481.536 109.199 486.217 104.963 486.217 98.3874C486.217 91.8115 481.536 87.5761 474.625 87.5761H370.859C363.949 87.5761 359.268 91.8115 359.268 98.3874C359.268 104.963 363.949 109.199 370.859 109.199H410.315V237.262C410.315 245.287 414.996 250.191 422.798 250.191Z" fill="black"/>
<path d="M507.059 250.414C522.329 250.414 537.264 242.166 544.063 229.126H544.62V239.045C544.843 246.179 549.412 250.525 556.1 250.525C562.899 250.525 567.691 245.956 567.691 238.377V167.602C567.691 144.085 549.524 129.038 521.103 129.038C500.037 129.038 482.316 137.509 476.186 150.772C474.737 153.447 474.068 156.122 474.068 158.574C474.068 164.593 478.415 168.605 484.433 168.605C488.669 168.605 491.79 167.045 494.242 163.478C500.929 152.778 508.619 148.654 520.211 148.654C534.923 148.654 543.728 156.456 543.728 169.497V178.525L511.517 180.419C483.765 181.98 467.938 194.574 467.938 215.082C467.938 236.148 484.099 250.414 507.059 250.414ZM513.635 231.355C500.817 231.355 492.235 224.668 492.235 214.414C492.235 204.382 500.372 198.029 514.75 197.026L543.728 195.243V204.494C543.728 219.763 530.465 231.355 513.635 231.355Z" fill="black"/>
<path d="M603.134 289.981C610.156 289.981 615.172 285.077 615.172 277.164V229.126H615.729C622.416 242.166 635.791 250.414 652.621 250.414C682.046 250.414 701.551 226.897 701.551 189.782C701.551 152.667 681.934 129.261 652.175 129.261C635.234 129.261 621.748 137.843 614.837 151.329H614.392V141.41C614.392 133.719 609.488 129.038 602.689 129.038C595.89 129.038 591.097 133.719 591.097 141.41V277.164C591.097 285.077 596.001 289.981 603.134 289.981ZM645.822 230.017C627.321 230.017 615.06 214.191 615.06 189.782C615.06 165.596 627.432 149.546 645.822 149.546C664.881 149.546 676.807 165.261 676.807 189.782C676.807 214.414 664.881 230.017 645.822 230.017Z" fill="black"/>
<path d="M732.981 113.434C740.783 113.434 747.025 107.192 747.025 99.6134C747.025 91.9229 740.783 85.9043 732.981 85.9043C725.291 85.9043 719.049 91.9229 719.049 99.6134C719.049 107.192 725.291 113.434 732.981 113.434ZM732.981 250.525C740.226 250.525 745.019 245.51 745.019 237.819V141.855C745.019 134.053 740.226 129.038 732.981 129.038C725.737 129.038 720.944 134.053 720.944 141.855V237.819C720.944 245.51 725.737 250.525 732.981 250.525Z" fill="black"/>
<path d="M781.688 250.525C788.709 250.525 793.725 245.733 793.725 237.819V180.085C793.725 161.918 804.648 149.88 821.589 149.88C838.308 149.88 846.555 159.577 846.555 177.187V237.819C846.555 245.733 851.571 250.525 858.593 250.525C865.726 250.525 870.741 245.733 870.741 237.819V172.506C870.741 145.645 855.918 129.149 830.06 129.149C812.004 129.149 799.744 137.174 793.391 150.549H792.833V141.298C792.833 133.831 788.041 129.038 781.13 129.038C774.109 129.038 769.65 133.831 769.65 141.187V237.819C769.65 245.733 774.554 250.525 781.688 250.525Z" fill="black"/>
<path d="M906.742 113.434C914.655 113.434 920.897 107.192 920.897 99.6134C920.897 91.9229 914.655 85.9043 906.742 85.9043C899.051 85.9043 892.81 91.9229 892.81 99.6134C892.81 107.192 899.051 113.434 906.742 113.434ZM906.742 129.038C899.72 129.038 894.705 133.831 894.705 141.855V254.426C894.705 263.677 891.584 268.247 883.336 269.584L882.333 269.696C875.757 270.699 872.859 273.931 872.859 278.947C872.859 285.188 878.32 289.089 887.348 289.089H887.571C907.188 289.089 918.779 277.609 918.779 256.321V141.855C918.779 133.831 913.875 129.038 906.742 129.038Z" fill="black"/>
<path d="M977.851 250.414C993.121 250.414 1008.06 242.166 1014.85 229.126H1015.41V239.045C1015.63 246.179 1020.2 250.525 1026.89 250.525C1033.69 250.525 1038.48 245.956 1038.48 238.377V167.602C1038.48 144.085 1020.32 129.038 991.895 129.038C970.829 129.038 953.108 137.509 946.978 150.772C945.529 153.447 944.86 156.122 944.86 158.574C944.86 164.593 949.207 168.605 955.225 168.605C959.461 168.605 962.581 167.045 965.034 163.478C971.721 152.778 979.411 148.654 991.003 148.654C1005.72 148.654 1014.52 156.456 1014.52 169.497V178.525L982.309 180.419C954.557 181.98 938.73 194.574 938.73 215.082C938.73 236.148 954.891 250.414 977.851 250.414ZM984.427 231.355C971.609 231.355 963.027 224.668 963.027 214.414C963.027 204.382 971.164 198.029 985.542 197.026L1014.52 195.243V204.494C1014.52 219.763 1001.26 231.355 984.427 231.355Z" fill="black"/>
<path fill-rule="evenodd" clip-rule="evenodd" d="M265.21 291.363C274.194 287.42 277.768 276.552 272.876 268.047L256.854 240.189C253.913 235.075 248.463 231.922 242.564 231.922H50.1341C44.2345 231.922 38.7845 235.075 35.8433 240.189L19.8215 268.047C14.9303 276.552 18.5041 287.42 27.4882 291.363L139.725 340.611C143.947 342.463 148.751 342.463 152.973 340.611L265.21 291.363Z" fill="url(#paint0_linear)" fill-opacity="0.5"/>
<path fill-rule="evenodd" clip-rule="evenodd" d="M265.21 262.196C274.194 258.253 277.768 247.385 272.876 238.88L256.854 211.022C253.913 205.908 248.463 202.755 242.564 202.755H50.1341C44.2345 202.755 38.7845 205.908 35.8433 211.022L19.8215 238.88C14.9303 247.385 18.5041 258.253 27.4882 262.196L139.725 311.444C143.947 313.296 148.751 313.296 152.973 311.444L265.21 262.196Z" fill="#5EE42F"/>
<g filter="url(#filter0_d)">
<path fill-rule="evenodd" clip-rule="evenodd" d="M160.018 18.2668C153.679 7.24441 137.776 7.2444 131.436 18.2668L19.1998 213.422C14.3086 221.927 17.8824 232.795 26.8665 236.737L139.103 285.985C143.325 287.838 148.13 287.838 152.351 285.985L264.588 236.737C273.572 232.795 277.146 221.927 272.255 213.422L160.018 18.2668ZM178.386 169.677C196.424 174.086 208.487 177.034 208.487 156.5C208.487 125.316 180.667 100.037 146.349 100.037C112.031 100.037 84.2107 125.316 84.2107 156.5C84.2107 177.034 96.2739 174.086 114.312 169.677C123.667 167.391 134.629 164.711 146.349 164.711C158.069 164.711 169.031 167.391 178.386 169.677Z" fill="url(#paint1_linear)"/>
<path d="M137.144 138.013C135.9 142.371 131.526 138.802 123.866 139.879C116.205 140.955 112.918 145.601 110.587 141.745C108.256 137.889 115.299 132.137 122.633 131.106C129.966 130.075 138.388 133.654 137.144 138.013Z" fill="url(#paint2_linear)"/>
<path d="M155.932 138.013C157.176 142.371 161.55 138.802 169.21 139.879C176.871 140.955 180.158 145.601 182.489 141.745C184.82 137.889 177.777 132.137 170.443 131.106C163.11 130.075 154.688 133.654 155.932 138.013Z" fill="url(#paint3_linear)"/>
</g>
<defs>
<filter id="filter0_d" x="0" y="0" width="291.454" height="311.374" filterUnits="userSpaceOnUse" color-interpolation-filters="sRGB">
<feFlood flood-opacity="0" result="BackgroundImageFix"/>
<feColorMatrix in="SourceAlpha" type="matrix" values="0 0 0 0 0 0 0 0 0 0 0 0 0 0 0 0 0 0 127 0"/>
<feOffset dy="7"/>
<feGaussianBlur stdDeviation="8.5"/>
<feColorMatrix type="matrix" values="0 0 0 0 0 0 0 0 0 0 0 0 0 0 0 0 0 0 0.25 0"/>
<feBlend mode="normal" in2="BackgroundImageFix" result="effect1_dropShadow"/>
<feBlend mode="normal" in="SourceGraphic" in2="effect1_dropShadow" result="shape"/>
</filter>
<linearGradient id="paint0_linear" x1="146.349" y1="231.922" x2="146.349" y2="708.104" gradientUnits="userSpaceOnUse">
<stop stop-color="#46E42F"/>
<stop offset="0.838542" stop-color="#2F61E5" stop-opacity="0"/>
</linearGradient>
<linearGradient id="paint1_linear" x1="85.4788" y1="10" x2="195.172" y2="373.952" gradientUnits="userSpaceOnUse">
<stop stop-color="#4E7DF9"/>
<stop offset="1" stop-color="#2F61E5"/>
</linearGradient>
<linearGradient id="paint2_linear" x1="85.4788" y1="10" x2="195.172" y2="373.952" gradientUnits="userSpaceOnUse">
<stop stop-color="#4E7DF9"/>
<stop offset="1" stop-color="#2F61E5"/>
</linearGradient>
<linearGradient id="paint3_linear" x1="85.4788" y1="10" x2="195.172" y2="373.952" gradientUnits="userSpaceOnUse">
<stop stop-color="#4E7DF9"/>
<stop offset="1" stop-color="#2F61E5"/>
</linearGradient>
</defs>
</svg>
